{
.appVersion = "99";
DisplayStrings = (
"this.a*a._*//`as\"df`",
","
);
copyright = "Copyright (c) 2010-2011 by tyPoland Lukasz Dziedzic with Reserved Font Name \"Lato\". Licensed under the SIL Open Font License, Version 1.1.";
date = "2011-09-12 07:00:00 +0000";
designer = "Paul Go";
designerURL = "http://www.github.com/paul-go";
familyName = "Lato Code";
featurePrefixes = (
{
automatic = 1;
code = "languagesystem DFLT dflt;\012";
name = Languagesystems;
}
);
features = (
{
automatic = 1;
code = "feature frac;\012feature ordn;\012";
name = aalt;
},
{
automatic = 1;
code = "sub one slash four by onequarter;\012sub one slash two by onehalf;\012sub three slash four by threequarters;\012";
name = frac;
},
{
automatic = 1;
code = "sub [zero one two three four five six seven eight nine] [A a]' by ordfeminine;\012sub [zero one two three four five six seven eight nine] [O o]' by ordmasculine;\012";
name = ordn;
},
{
automatic = 1;
code = "sub f i by fi;\012sub f l by fl;\012";
name = liga;
}
);
fontMaster = (
{
ascender = 1610;
capHeight = 1433;
customParameters = (
{
name = "Prep Table Assembly";

glyphs = (
{
glyphname = A;
layers = (
{
layerId = "35A30917-2BE5-44A3-8659-B24E5BB0D762";
paths = (
{
closed = 1;
nodes = (
"780 1433 LINE",
"583 1433 LINE",
"10 0 LINE",
"160 0 LINE SMOOTH",
"193.333 0 OFFCURVE",
"216.667 22 OFFCURVE",
"226 46 CURVE SMOOTH",
"360 392 LINE",
"1003 392 LINE",
"1137 46 LINE SMOOTH",
"1147.667 19.333 OFFCURVE",
"1168.333 0 OFFCURVE",
"1203 0 CURVE SMOOTH",
"1353 0 LINE"
);
},
{
closed = 1;
nodes = (
"639 1114 LINE SMOOTH",
"652.333 1148.667 OFFCURVE",
"666.333 1195.333 OFFCURVE",
"681 1250 CURVE",
"695 1196 OFFCURVE",
"709.333 1151 OFFCURVE",
"724 1115 CURVE SMOOTH",
"949 532 LINE",
"414 532 LINE"
);
}
);
userData = {
assembly = "NPUSHB[ ]\011/* 12 values pushed */
15 14 13 12 11 9 6 5 2 0 5 7 
CALL[ ]\011/* CallFunction */
MPPEM[ ]\011/* MeasurePixelPerEm */
PUSHB[ ]\011/* 1 value pushed */
95 
LT[ ]\011/* LessThan */
IF[ ]\011/* If */
NPUSHB[ ]\011/* 29 values pushed */
18 1 4 3 1 30 0 4 0 1 0 4 1 0 2 38 0 3 3 11 31 2 1 0 0 12 0 32 4 
ELSE[ ]\011/* Else */
MPPEM[ ]\011/* MeasurePixelPerEm */
PUSHB[ ]\011/* 1 value pushed */
108 
LT[ ]\011/* LessThan */
IF[ ]\011/* If */
NPUSHB[ ]\011/* 29 values pushed */
18 1 4 3 1 30 0 3 4 3 52 0 4 0 1 0 4 1 0 2 38 2 1 0 0 15 0 32 4 
ELSE[ ]\011/* Else */
MPPEM[ ]\011/* MeasurePixelPerEm */
PUSHB[ ]\011/* 1 value pushed */
232 
LT[ ]\011/* LessThan */
IF[ ]\011/* If */
NPUSHB[ ]\011/* 40 values pushed */
18 1 4 3 1 30 0 3 4 3 52 2 1 0 1 0 53 0 4 1 1 4 0 0 35 0 4 4 1 0 2 36 0 1 4 1 0 2 33 6 
ELSE[ ]\011/* Else */
NPUSHB[ ]\011/* 46 values pushed */
18 1 4 3 1 30 0 3 4 3 52 0 2 1 0 1 2 0 50 0 0 0 51 0 4 1 1 4 0 0 35 0 4 4 1 0 2 36 0 1 4 1 0 2 33 7 
EIF[ ]\011/* EndIf */
EIF[ ]\011/* EndIf */
EIF[ ]\011/* EndIf */
PUSHB[ ]\011/* 1 value pushed */
56 
CALL[ ]\011/* CallFunction */";
};
width = 1360;
}
);
note = A;
unicode = 0041;
},
{
glyphname = Aogonek;
layers = (
{
layerId = "35A30917-2BE5-44A3-8659-B24E5BB0D762";
paths = (
{
closed = 1;
nodes = (
"1369.525 -211 OFFCURVE",
"1322.408 -235 OFFCURVE",
"1289 -235 CURVE SMOOTH",
"1233 -235 OFFCURVE",
"1198 -204.667 OFFCURVE",
"1198 -154 CURVE SMOOTH",
"1198 -85.611 OFFCURVE",
"1260.328 -30.62 OFFCURVE",
"1316 0 CURVE",
"1353 0 LINE",
"780 1433 LINE",
"583 1433 LINE",
"10 0 LINE",
"160 0 LINE SMOOTH",
"193.333 0 OFFCURVE",
"216.667 22 OFFCURVE",
"226 46 CURVE SMOOTH",
"360 392 LINE",
"1003 392 LINE",
"1137 46 LINE SMOOTH",
"1147.667 19.333 OFFCURVE",
"1168.667 0 OFFCURVE",
"1202 0 CURVE",
"1122 -50.667 OFFCURVE",
"1063 -119.667 OFFCURVE",
"1063 -197 CURVE SMOOTH",
"1063 -285 OFFCURVE",
"1134.667 -342 OFFCURVE",
"1252 -342 CURVE SMOOTH",
"1320 -342 OFFCURVE",
"1386 -320.667 OFFCURVE",
"1426 -290 CURVE",
"1398 -224 LINE SMOOTH",
"1395.333 -217.333 OFFCURVE",
"1389.333 -211 OFFCURVE",
"1380 -211 CURVE SMOOTH"
);
},
{
closed = 1;
nodes = (
"639 1114 LINE SMOOTH",
"652.333 1148.667 OFFCURVE",
"666.333 1195.333 OFFCURVE",
"681 1250 CURVE",
"695 1196 OFFCURVE",
"709.333 1151 OFFCURVE",
"724 1115 CURVE SMOOTH",
"949 532 LINE",
"414 532 LINE"
);
}
);
userData = {
assembly = "NPUSHB[ ]\011/* 24 values pushed */
1 0 41 40 36 34 27 26 25 24 23 21 18 17 14 13 8 6 0 39 1 39 10 7 
CALL[ ]\011/* CallFunction */
MPPEM[ ]\011/* MeasurePixelPerEm */
PUSHB[ ]\011/* 1 value pushed */
21 
LT[ ]\011/* LessThan */
IF[ ]\011/* If */
NPUSHB[ ]\011/* 48 values pushed */
44 1 8 5 4 1 1 0 2 30 0 8 0 3 2 8 3 0 2 38 0 5 5 11 31 6 4 2 2 2 12 31 7 9 2 0 0 1 1 0 36 0 1 1 16 1 32 6 
ELSE[ ]\011/* Else */
MPPEM[ ]\011/* MeasurePixelPerEm */
PUSHB[ ]\011/* 1 value pushed */
73 
LT[ ]\011/* LessThan */
IF[ ]\011/* If */
NPUSHB[ ]\011/* 55 values pushed */
44 1 8 5 4 1 1 7 2 30 9 1 0 2 7 2 0 7 50 0 8 0 3 2 8 3 0 2 38 0 5 5 11 31 6 4 2 2 2 12 31 0 7 7 1 1 0 36 0 1 1 16 1 32 7 
ELSE[ ]\011/* Else */
MPPEM[ ]\011/* MeasurePixelPerEm */
PUSHB[ ]\011/* 1 value pushed */
95 
LT[ ]\011/* LessThan */
IF[ ]\011/* If */
NPUSHB[ ]\011/* 52 values pushed */
44 1 8 5 4 1 1 7 2 30 9 1 0 2 7 2 0 7 50 0 8 0 3 2 8 3 0 2 38 0 7 0 1 7 1 1 0 37 0 5 5 11 31 6 4 2 2 2 12 2 32 6 
ELSE[ ]\011/* Else */
MPPEM[ ]\011/* MeasurePixelPerEm */
PUSHB[ ]\011/* 1 value pushed */
108 
LT[ ]\011/* LessThan */
IF[ ]\011/* If */
NPUSHB[ ]\011/* 52 values pushed */
44 1 8 5 4 1 1 7 2 30 0 5 8 5 52 9 1 0 2 7 2 0 7 50 0 8 0 3 2 8 3 0 2 38 0 7 0 1 7 1 1 0 37 6 4 2 2 2 15 2 32 6 
ELSE[ ]\011/* Else */
MPPEM[ ]\011/* MeasurePixelPerEm */
PUSHB[ ]\011/* 1 value pushed */
232 
LT[ ]\011/* LessThan */
IF[ ]\011/* If */
NPUSHB[ ]\011/* 66 values pushed */
44 1 8 5 4 1 1 7 2 30 0 5 8 5 52 6 4 2 2 3 0 3 2 0 50 9 1 0 7 3 0 7 48 0 8 0 3 2 8 3 0 2 38 0 7 1 1 7 1 0 35 0 7 7 1 1 0 36 0 1 7 1 1 0 33 8 
ELSE[ ]\011/* Else */
NPUSHB[ ]\011/* 78 values pushed */
44 1 8 5 4 1 1 7 2 30 0 5 8 5 52 0 6 3 4 3 6 4 50 0 4 2 3 4 2 48 0 2 0 3 2 0 48 9 1 0 7 3 0 7 48 0 8 0 3 6 8 3 0 2 38 0 7 1 1 7 1 0 35 0 7 7 1 1 0 36 0 1 7 1 1 0 33 10 
EIF[ ]\011/* EndIf */
EIF[ ]\011/* EndIf */
EIF[ ]\011/* EndIf */
EIF[ ]\011/* EndIf */
EIF[ ]\011/* EndIf */
PUSHB[ ]\011/* 1 value pushed */
56 
CALL[ ]\011/* CallFunction */";
};
width = 1360;
}
);
note = Aogonek;
unicode = 0104;
},
{
glyphname = AE;
layers = (
{
layerId = "35A30917-2BE5-44A3-8659-B24E5BB0D762";
paths = (
{
closed = 1;
nodes = (
"-24 0 LINE",
"124 0 LINE SMOOTH",
"158.667 0 OFFCURVE",
"183.333 18.333 OFFCURVE",
"198 45 CURVE SMOOTH",
"377 392 LINE",
"933 392 LINE",
"982 0 LINE",
"1754 0 LINE",
"1754 158 LINE",
"1145 158 LINE",
"1084 647 LINE",
"1624 647 LINE",
"1624 799 LINE",
"1065 799 LINE",
"1005 1275 LINE",
"1754 1275 LINE",
"1754 1433 LINE",
"733 1433 LINE"
);
},
{
closed = 1;
nodes = (
"766 1144 LINE",
"784.667 1185.333 OFFCURVE",
"805 1230.333 OFFCURVE",
"821 1285 CURVE",
"915 532 LINE",
"450 532 LINE"
);
}
);
userData = {
assembly = "NPUSHB[ ]\011/* 20 values pushed */
20 19 18 16 13 12 11 10 9 8 7 6 5 4 3 2 1 0 9 7 
CALL[ ]\011/* CallFunction */
MPPEM[ ]\011/* MeasurePixelPerEm */
PUSHB[ ]\011/* 1 value pushed */
95 
LT[ ]\011/* LessThan */
IF[ ]\011/* If */
NPUSHB[ ]\011/* 53 values pushed */
21 1 1 0 1 30 0 2 0 3 8 2 3 0 0 38 0 8 0 6 4 8 6 0 0 38 0 1 1 0 0 0 36 0 0 0 11 31 0 4 4 5 1 0 36 7 1 5 5 12 5 32 7 
ELSE[ ]\011/* Else */
MPPEM[ ]\011/* MeasurePixelPerEm */
PUSHB[ ]\011/* 1 value pushed */
108 
LT[ ]\011/* LessThan */
IF[ ]\011/* If */
NPUSHB[ ]\011/* 51 values pushed */
21 1 1 0 1 30 0 0 0 1 2 0 1 0 0 38 0 2 0 3 8 2 3 0 0 38 0 8 0 6 4 8 6 0 0 38 0 4 4 5 1 0 36 7 1 5 5 15 5 32 6 
ELSE[ ]\011/* Else */
MPPEM[ ]\011/* MeasurePixelPerEm */
PUSHB[ ]\011/* 1 value pushed */
232 
LT[ ]\011/* LessThan */
IF[ ]\011/* If */
NPUSHB[ ]\011/* 60 values pushed */
21 1 1 0 1 30 0 0 0 1 2 0 1 0 0 38 0 2 0 3 8 2 3 0 0 38 0 8 0 6 4 8 6 0 0 38 0 4 5 5 4 0 0 35 0 4 4 5 1 0 36 7 1 5 4 5 1 0 33 7 
ELSE[ ]\011/* Else */
NPUSHB[ ]\011/* 67 values pushed */
21 1 1 0 1 30 0 7 4 5 4 7 5 50 0 0 0 1 2 0 1 0 0 38 0 2 0 3 8 2 3 0 0 38 0 8 0 6 4 8 6 0 0 38 0 4 7 5 4 0 0 35 0 4 4 5 0 0 36 0 5 4 5 0 0 33 8 
EIF[ ]\011/* EndIf */
EIF[ ]\011/* EndIf */
EIF[ ]\011/* EndIf */
PUSHB[ ]\011/* 1 value pushed */
56 
CALL[ ]\011/* CallFunction */";
};
width = 1858;
}
);
note = AE;
unicode = 00C6;
},
{
glyphname = B;
layers = (
{
layerId = "35A30917-2BE5-44A3-8659-B24E5BB0D762";
paths = (
{
closed = 1;
nodes = (
"681 0 LINE SMOOTH",
"841 0 OFFCURVE",
"966.5 41 OFFCURVE",
"1052.5 113 CURVE SMOOTH",
"1138.5 185 OFFCURVE",
"1184 286.667 OFFCURVE",
"1184 408 CURVE SMOOTH",
"1184 586.667 OFFCURVE",
"1076.333 695.667 OFFCURVE",
"867 737 CURVE",
"957.667 765 OFFCURVE",
"1024.833 810 OFFCURVE",
"1069.5 866 CURVE SMOOTH",
"1114.167 922 OFFCURVE",
"1136 988.333 OFFCURVE",
"1136 1059 CURVE SMOOTH",
"1136 1175 OFFCURVE",
"1097.5 1269 OFFCURVE",
"1015.5 1333 CURVE SMOOTH",
"933.5 1397 OFFCURVE",
"807 1433 OFFCURVE",
"631 1433 CURVE SMOOTH",
"174 1433 LINE",
"174 0 LINE"
);
},
{
closed = 1;
nodes = (
"677 653 LINE SMOOTH",
"889 653 OFFCURVE",
"993 561 OFFCURVE",
"993 413 CURVE SMOOTH",
"993 337 OFFCURVE",
"969.833 272.5 OFFCURVE",
"918.5 226.5 CURVE SMOOTH",
"867.167 180.5 OFFCURVE",
"788.667 154 OFFCURVE",
"678 154 CURVE SMOOTH",
"368 154 LINE",
"368 653 LINE"
);
},
{
closed = 1;
nodes = (
"368 1280 LINE",
"631 1280 LINE SMOOTH",
"844.333 1280 OFFCURVE",
"943 1204 OFFCURVE",
"943 1036 CURVE SMOOTH",
"943 964 OFFCURVE",
"918.167 901.667 OFFCURVE",
"865.5 859 CURVE SMOOTH",
"812.833 816.333 OFFCURVE",
"733.333 791 OFFCURVE",
"624 791 CURVE SMOOTH",
"368 791 LINE"
);
}
);
userData = {
assembly = "NPUSHB[ ]\011/* 22 values pushed */
21 21 0 0 42 40 34 32 21 31 21 30 24 22 0 20 0 19 3 1 8 7 
CALL[ ]\011/* CallFunction */
MPPEM[ ]\011/* MeasurePixelPerEm */
PUSHB[ ]\011/* 1 value pushed */
95 
LT[ ]\011/* LessThan */
IF[ ]\011/* If */
NPUSHB[ ]\011/* 44 values pushed */
12 1 3 4 1 30 0 4 7 1 3 2 4 3 1 0 38 0 5 5 0 1 0 36 0 0 0 11 31 0 2 2 1 1 0 36 6 1 1 1 12 1 32 6 
ELSE[ ]\011/* Else */
MPPEM[ ]\011/* MeasurePixelPerEm */
PUSHB[ ]\011/* 1 value pushed */
108 
LT[ ]\011/* LessThan */
IF[ ]\011/* If */
NPUSHB[ ]\011/* 42 values pushed */
12 1 3 4 1 30 0 0 0 5 4 0 5 1 0 38 0 4 7 1 3 2 4 3 1 0 38 0 2 2 1 1 0 36 6 1 1 1 15 1 32 5 
ELSE[ ]\011/* Else */
NPUSHB[ ]\011/* 51 values pushed */
12 1 3 4 1 30 0 0 0 5 4 0 5 1 0 38 0 4 7 1 3 2 4 3 1 0 38 0 2 1 1 2 1 0 35 0 2 2 1 1 0 36 6 1 1 2 1 1 0 33 6 
EIF[ ]\011/* EndIf */
EIF[ ]\011/* EndIf */
PUSHB[ ]\011/* 1 value pushed */
56 
CALL[ ]\011/* CallFunction */";
};
width = 1294;
}
);
note = B;
unicode = 0042;
},
{
glyphname = C;
layers = (
{
layerId = "35A30917-2BE5-44A3-8659-B24E5BB0D762";
paths = (
{
closed = 1;
nodes = (
"1173.333 296 OFFCURVE",
"1162.333 291 OFFCURVE",
"1151 281 CURVE SMOOTH",
"1045.825 186.896 OFFCURVE",
"949.527 151 OFFCURVE",
"785 151 CURVE SMOOTH",
"645 151 OFFCURVE",
"520.167 202.833 OFFCURVE",
"431.5 299.5 CURVE SMOOTH",
"342.833 396.167 OFFCURVE",
"288 537.333 OFFCURVE",
"288 716 CURVE SMOOTH",
"288 889.333 OFFCURVE",
"342 1031.667 OFFCURVE",
"434 1129 CURVE SMOOTH",
"526 1226.333 OFFCURVE",
"655.667 1281 OFFCURVE",
"809 1281 CURVE SMOOTH",
"851.667 1281 OFFCURVE",
"889.333 1277.833 OFFCURVE",
"922 1271.5 CURVE SMOOTH",
"987.333 1258.833 OFFCURVE",
"1036 1239.333 OFFCURVE",
"1072 1218 CURVE SMOOTH",
"1111.784 1194.424 OFFCURVE",
"1158.574 1155 OFFCURVE",
"1181 1155 CURVE SMOOTH",
"1203.667 1155 OFFCURVE",
"1213.667 1164.667 OFFCURVE",
"1223 1178 CURVE SMOOTH",
"1286 1267 LINE",
"1167.333 1379 OFFCURVE",
"1020.667 1449 OFFCURVE",
"810 1449 CURVE SMOOTH",
"596.667 1449 OFFCURVE",
"416.667 1374.333 OFFCURVE",
"290 1245 CURVE SMOOTH",
"163.333 1115.667 OFFCURVE",
"90 932 OFFCURVE",
"90 716 CURVE SMOOTH",
"90 500 OFFCURVE",
"158.333 316.167 OFFCURVE",
"277 187.5 CURVE SMOOTH",
"395.667 58.833 OFFCURVE",
"566.333 -16 OFFCURVE",
"773 -16 CURVE SMOOTH",
"1009 -16 OFFCURVE",
"1171.667 64 OFFCURVE",
"1289 200 CURVE",
"1213 283 LINE",
"1204.333 291.667 OFFCURVE",
"1194.667 296 OFFCURVE",
"1184 296 CURVE SMOOTH"
);
}
);
userData = {
assembly = "NPUSHB[ ]\011/* 18 values pushed */
1 0 41 39 31 29 24 22 17 15 7 5 0 46 1 46 7 7 
CALL[ ]\011/* CallFunction */
MPPEM[ ]\011/* MeasurePixelPerEm */
PUSHB[ ]\011/* 1 value pushed */
95 
LT[ ]\011/* LessThan */
IF[ ]\011/* If */
NPUSHB[ ]\011/* 52 values pushed */
19 1 3 4 3 1 5 0 2 30 0 3 4 0 4 3 0 50 6 1 0 5 4 0 5 48 0 4 4 2 1 0 36 0 2 2 17 31 0 5 5 1 1 0 36 0 1 1 18 1 32 7 
ELSE[ ]\011/* Else */
MPPEM[ ]\011/* MeasurePixelPerEm */
PUSHB[ ]\011/* 1 value pushed */
108 
LT[ ]\011/* LessThan */
IF[ ]\011/* If */
NPUSHB[ ]\011/* 50 values pushed */
19 1 3 4 3 1 5 0 2 30 0 3 4 0 4 3 0 50 6 1 0 5 4 0 5 48 0 2 0 4 3 2 4 1 0 38 0 5 5 1 1 0 36 0 1 1 21 1 32 6 
ELSE[ ]\011/* Else */
NPUSHB[ ]\011/* 59 values pushed */
19 1 3 4 3 1 5 0 2 30 0 3 4 0 4 3 0 50 6 1 0 5 4 0 5 48 0 2 0 4 3 2 4 1 0 38 0 5 1 1 5 1 0 35 0 5 5 1 1 0 36 0 1 5 1 1 0 33 7 
EIF[ ]\011/* EndIf */
EIF[ ]\011/* EndIf */
PUSHB[ ]\011/* 1 value pushed */
56 
CALL[ ]\011/* CallFunction */";
};
width = 1370;
}
);
note = C;
unicode = 0043;
},
{
glyphname = Ccedilla;
layers = (
{
layerId = "35A30917-2BE5-44A3-8659-B24E5BB0D762";
paths = (
{
closed = 1;
nodes = (
"631.667 -247 OFFCURVE",
"624 -253 OFFCURVE",
"620 -265 CURVE SMOOTH",
"603 -320 LINE",
"644.333 -338.667 OFFCURVE",
"694.333 -351 OFFCURVE",
"749 -351 CURVE SMOOTH",
"868.58 -351 OFFCURVE",
"966 -303.305 OFFCURVE",
"966 -213 CURVE SMOOTH",
"966 -141 OFFCURVE",
"915 -96.667 OFFCURVE",
"795 -70 CURVE",
"811 -15 LINE",
"1027 -7 OFFCURVE",
"1178.333 70.667 OFFCURVE",
"1289 200 CURVE",
"1213 283 LINE",
"1204.333 291.667 OFFCURVE",
"1194.667 296 OFFCURVE",
"1184 296 CURVE SMOOTH",
"1173.333 296 OFFCURVE",
"1162.333 291 OFFCURVE",
"1151 281 CURVE SMOOTH",
"1045.825 186.896 OFFCURVE",
"949.527 151 OFFCURVE",
"785 151 CURVE SMOOTH",
"645 151 OFFCURVE",
"520.167 202.833 OFFCURVE",
"431.5 299.5 CURVE SMOOTH",
"342.833 396.167 OFFCURVE",
"288 537.333 OFFCURVE",
"288 716 CURVE SMOOTH",
"288 889.333 OFFCURVE",
"342 1031.667 OFFCURVE",
"434 1129 CURVE SMOOTH",
"526 1226.333 OFFCURVE",
"655.667 1281 OFFCURVE",
"809 1281 CURVE SMOOTH",
"851.667 1281 OFFCURVE",
"889.333 1277.833 OFFCURVE",
"922 1271.5 CURVE SMOOTH",
"987.333 1258.833 OFFCURVE",
"1036 1239.333 OFFCURVE",
"1072 1218 CURVE SMOOTH",
"1111.784 1194.424 OFFCURVE",
"1158.574 1155 OFFCURVE",
"1181 1155 CURVE SMOOTH",
"1203.667 1155 OFFCURVE",
"1213.667 1164.667 OFFCURVE",
"1223 1178 CURVE SMOOTH",
"1286 1267 LINE",
"1167.333 1379 OFFCURVE",
"1020.667 1449 OFFCURVE",
"810 1449 CURVE SMOOTH",
"596.667 1449 OFFCURVE",
"416.667 1374.333 OFFCURVE",
"290 1245 CURVE SMOOTH",
"163.333 1115.667 OFFCURVE",
"90 932 OFFCURVE",
"90 716 CURVE SMOOTH",
"90 512 OFFCURVE",
"149.5 338.833 OFFCURVE",
"255.5 211.5 CURVE SMOOTH",
"361.5 84.167 OFFCURVE",
"514.667 3 OFFCURVE",
"700 -13 CURVE",
"664 -131 LINE",
"753.328 -142.754 OFFCURVE",
"825 -157.177 OFFCURVE",
"825 -211 CURVE SMOOTH",
"825 -245.667 OFFCURVE",
"796 -270 OFFCURVE",
"740 -270 CURVE SMOOTH",
"707.037 -270 OFFCURVE",
"655.748 -247 OFFCURVE",
"643 -247 CURVE SMOOTH"
);
}
);
userData = {
assembly = "NPUSHB[ ]\011/* 24 values pushed */
1 0 71 69 61 60 56 54 49 47 39 37 32 30 25 23 6 4 0 75 1 75 10 7 
CALL[ ]\011/* CallFunction */
MPPEM[ ]\011/* MeasurePixelPerEm */
PUSHB[ ]\011/* 1 value pushed */
9 
LT[ ]\011/* LessThan */
IF[ ]\011/* If */
NPUSHB[ ]\011/* 75 values pushed */
27 1 3 4 58 1 5 6 62 14 13 3 0 7 73 1 8 0 4 30 0 3 4 6 4 3 6 50 0 6 5 4 6 5 48 0 4 4 2 1 0 36 0 2 2 17 31 0 5 5 7 1 0 36 0 7 7 21 31 1 9 2 0 0 8 1 0 36 0 8 8 16 8 32 9 
ELSE[ ]\011/* Else */
MPPEM[ ]\011/* MeasurePixelPerEm */
PUSHB[ ]\011/* 1 value pushed */
13 
LT[ ]\011/* LessThan */
IF[ ]\011/* If */
NPUSHB[ ]\011/* 75 values pushed */
27 1 3 4 58 1 5 6 62 14 13 3 0 7 73 1 8 0 4 30 0 3 4 6 4 3 6 50 0 6 5 4 6 5 48 0 4 4 2 1 0 36 0 2 2 17 31 0 5 5 7 1 0 36 0 7 7 18 31 1 9 2 0 0 8 1 0 36 0 8 8 16 8 32 9 
ELSE[ ]\011/* Else */
MPPEM[ ]\011/* MeasurePixelPerEm */
PUSHB[ ]\011/* 1 value pushed */
21 
LT[ ]\011/* LessThan */
IF[ ]\011/* If */
NPUSHB[ ]\011/* 75 values pushed */
27 1 3 4 58 1 5 6 62 14 13 3 0 7 73 1 8 0 4 30 0 3 4 6 4 3 6 50 0 6 5 4 6 5 48 0 4 4 2 1 0 36 0 2 2 17 31 0 5 5 7 1 0 36 0 7 7 21 31 1 9 2 0 0 8 1 0 36 0 8 8 16 8 32 9 
ELSE[ ]\011/* Else */
MPPEM[ ]\011/* MeasurePixelPerEm */
PUSHB[ ]\011/* 1 value pushed */
73 
LT[ ]\011/* LessThan */
IF[ ]\011/* If */
NPUSHB[ ]\011/* 82 values pushed */
27 1 3 4 58 1 5 6 62 14 13 3 0 7 73 1 8 1 4 30 0 3 4 6 4 3 6 50 0 6 5 4 6 5 48 9 1 0 7 1 7 0 1 50 0 4 4 2 1 0 36 0 2 2 17 31 0 5 5 7 1 0 36 0 7 7 21 31 0 1 1 8 1 0 36 0 8 8 16 8 32 10 
ELSE[ ]\011/* Else */
MPPEM[ ]\011/* MeasurePixelPerEm */
PUSHB[ ]\011/* 1 value pushed */
95 
LT[ ]\011/* LessThan */
IF[ ]\011/* If */
NPUSHB[ ]\011/* 79 values pushed */
27 1 3 4 58 1 5 6 62 14 13 3 0 7 73 1 8 1 4 30 0 3 4 6 4 3 6 50 0 6 5 4 6 5 48 9 1 0 7 1 7 0 1 50 0 1 0 8 1 8 1 0 37 0 4 4 2 1 0 36 0 2 2 17 31 0 5 5 7 1 0 36 0 7 7 21 7 32 9 
ELSE[ ]\011/* Else */
MPPEM[ ]\011/* MeasurePixelPerEm */
PUSHB[ ]\011/* 1 value pushed */
108 
LT[ ]\011/* LessThan */
IF[ ]\011/* If */
NPUSHB[ ]\011/* 77 values pushed */
27 1 3 4 58 1 5 6 62 14 13 3 0 7 73 1 8 1 4 30 0 3 4 6 4 3 6 50 0 6 5 4 6 5 48 9 1 0 7 1 7 0 1 50 0 2 0 4 3 2 4 1 0 38 0 1 0 8 1 8 1 0 37 0 5 5 7 1 0 36 0 7 7 21 7 32 8 
ELSE[ ]\011/* Else */
NPUSHB[ ]\011/* 87 values pushed */
27 1 3 4 58 1 5 6 62 14 13 3 0 7 73 1 8 1 4 30 0 3 4 6 4 3 6 50 0 6 5 4 6 5 48 9 1 0 7 1 7 0 1 50 0 2 0 4 3 2 4 1 0 38 0 5 0 7 0 5 7 1 0 38 0 1 8 8 1 1 0 35 0 1 1 8 1 0 36 0 8 1 8 1 0 33 9 
EIF[ ]\011/* EndIf */
EIF[ ]\011/* EndIf */
EIF[ ]\011/* EndIf */
EIF[ ]\011/* EndIf */
EIF[ ]\011/* EndIf */
EIF[ ]\011/* EndIf */
PUSHB[ ]\011/* 1 value pushed */
56 
CALL[ ]\011/* CallFunction */";
};
width = 1370;
}
);
note = Ccedilla;
unicode = 00C7;
},
{
glyphname = D;
layers = (
{
layerId = "35A30917-2BE5-44A3-8659-B24E5BB0D762";
paths = (
{
closed = 1;
nodes = (
"1416 930.667 OFFCURVE",
"1345 1109.5 OFFCURVE",
"1221 1235.5 CURVE SMOOTH",
"1097 1361.5 OFFCURVE",
"920.667 1433 OFFCURVE",
"710 1433 CURVE SMOOTH",
"174 1433 LINE",
"174 0 LINE",
"710 0 LINE SMOOTH",
"920.667 0 OFFCURVE",
"1097 71.667 OFFCURVE",
"1221 197 CURVE SMOOTH",
"1345 322.333 OFFCURVE",
"1416 501.333 OFFCURVE",
"1416 716 CURVE SMOOTH"
);
},
{
closed = 1;
nodes = (
"1217 540 OFFCURVE",
"1167 399.833 OFFCURVE",
"1079 304.5 CURVE SMOOTH",
"991 209.167 OFFCURVE",
"863.333 157 OFFCURVE",
"710 157 CURVE SMOOTH",
"369 157 LINE",
"369 1276 LINE",
"710 1276 LINE SMOOTH",
"863.333 1276 OFFCURVE",
"991 1224 OFFCURVE",
"1079 1128 CURVE SMOOTH",
"1167 1032 OFFCURVE",
"1217 892 OFFCURVE",
"1217 716 CURVE SMOOTH"
);
}
);
userData = {
assembly = "NPUSHB[ ]\011/* 10 values pushed */
22 20 19 17 9 7 6 4 4 7 
CALL[ ]\011/* CallFunction */
MPPEM[ ]\011/* MeasurePixelPerEm */
PUSHB[ ]\011/* 1 value pushed */
95 
LT[ ]\011/* LessThan */
IF[ ]\011/* If */
NPUSHB[ ]\011/* 26 values pushed */
0 2 2 1 1 0 36 0 1 1 11 31 0 3 3 0 1 0 36 0 0 0 12 0 32 4 
ELSE[ ]\011/* Else */
MPPEM[ ]\011/* MeasurePixelPerEm */
PUSHB[ ]\011/* 1 value pushed */
108 
LT[ ]\011/* LessThan */
IF[ ]\011/* If */
NPUSHB[ ]\011/* 24 values pushed */
0 1 0 2 3 1 2 1 0 38 0 3 3 0 1 0 36 0 0 0 15 0 32 3 
ELSE[ ]\011/* Else */
NPUSHB[ ]\011/* 33 values pushed */
0 1 0 2 3 1 2 1 0 38 0 3 0 0 3 1 0 35 0 3 3 0 1 0 36 0 0 3 0 1 0 33 4 
EIF[ ]\011/* EndIf */
EIF[ ]\011/* EndIf */
PUSHB[ ]\011/* 1 value pushed */
56 
CALL[ ]\011/* CallFunction */";
};
width = 1506;
}
);
note = D;
unicode = 0044;
},
{
glyphname = Eth;
layers = (
{
layerId = "35A30917-2BE5-44A3-8659-B24E5BB0D762";
paths = (
{
closed = 1;
nodes = (
"50 666 LINE",
"247 666 LINE",
"247 0 LINE",
"782 0 LINE SMOOTH",
"992.667 0 OFFCURVE",
"1170 71.667 OFFCURVE",
"1294 197 CURVE SMOOTH",
"1418 322.333 OFFCURVE",
"1489 501.333 OFFCURVE",
"1489 716 CURVE SMOOTH",
"1489 930.667 OFFCURVE",
"1418 1109.5 OFFCURVE",
"1294 1235.5 CURVE SMOOTH",
"1170 1361.5 OFFCURVE",
"992.667 1433 OFFCURVE",
"782 1433 CURVE SMOOTH",
"247 1433 LINE",
"247 780 LINE",
"50 780 LINE"
);
},
{
closed = 1;
nodes = (
"1290 540 OFFCURVE",
"1240 399.833 OFFCURVE",
"1152 304.5 CURVE SMOOTH",
"1064 209.167 OFFCURVE",
"936.667 157 OFFCURVE",
"782 157 CURVE SMOOTH",
"441 157 LINE",
"441 666 LINE",
"822 666 LINE",
"822 780 LINE",
"441 780 LINE",
"441 1276 LINE",
"782 1276 LINE SMOOTH",
"936.667 1276 OFFCURVE",
"1064 1224 OFFCURVE",
"1152 1128 CURVE SMOOTH",
"1240 1032 OFFCURVE",
"1290 892 OFFCURVE",
"1290 716 CURVE SMOOTH"
);
}
);
userData = {
assembly = "NPUSHB[ ]\011/* 18 values pushed */
30 28 27 26 25 24 23 21 16 15 14 12 4 2 1 0 8 7 
CALL[ ]\011/* CallFunction */
MPPEM[ ]\011/* MeasurePixelPerEm */
PUSHB[ ]\011/* 1 value pushed */
95 
LT[ ]\011/* LessThan */
IF[ ]\011/* If */
NPUSHB[ ]\011/* 38 values pushed */
5 1 0 6 1 3 7 0 3 0 0 38 0 4 4 1 1 0 36 0 1 1 11 31 0 7 7 2 1 0 36 0 2 2 12 2 32 5 
ELSE[ ]\011/* Else */
MPPEM[ ]\011/* MeasurePixelPerEm */
PUSHB[ ]\011/* 1 value pushed */
108 
LT[ ]\011/* LessThan */
IF[ ]\011/* If */
NPUSHB[ ]\011/* 36 values pushed */
0 1 0 4 0 1 4 1 0 38 5 1 0 6 1 3 7 0 3 0 0 38 0 7 7 2 1 0 36 0 2 2 15 2 32 4 
ELSE[ ]\011/* Else */
MPPEM[ ]\011/* MeasurePixelPerEm */
PUSHB[ ]\011/* 1 value pushed */
232 
LT[ ]\011/* LessThan */
IF[ ]\011/* If */
NPUSHB[ ]\011/* 45 values pushed */
0 1 0 4 0 1 4 1 0 38 5 1 0 6 1 3 7 0 3 0 0 38 0 7 2 2 7 1 0 35 0 7 7 2 1 0 36 0 2 7 2 1 0 33 5 
ELSE[ ]\011/* Else */
NPUSHB[ ]\011/* 53 values pushed */
0 1 0 4 0 1 4 1 0 38 0 5 0 6 3 5 6 0 0 38 0 0 0 3 7 0 3 0 0 38 0 7 2 2 7 1 0 35 0 7 7 2 1 0 36 0 2 7 2 1 0 33 6 
EIF[ ]\011/* EndIf */
EIF[ ]\011/* EndIf */
EIF[ ]\011/* EndIf */
PUSHB[ ]\011/* 1 value pushed */
56 
CALL[ ]\011/* CallFunction */";
};
width = 1578;
}
);
note = Eth;
unicode = 00D0;
},
{
glyphname = E;
layers = (
{
layerId = "35A30917-2BE5-44A3-8659-B24E5BB0D762";
paths = (
{
closed = 1;
nodes = (
"174 1433 LINE",
"174 0 LINE",
"1057 0 LINE",
"1057 158 LINE",
"369 158 LINE",
"369 647 LINE",
"926 647 LINE",
"926 799 LINE",
"369 799 LINE",
"369 1275 LINE",
"1057 1275 LINE",
"1057 1433 LINE"
);
}
);
userData = {
assembly = "NPUSHB[ ]\011/* 18 values pushed */
0 0 0 11 0 11 10 9 8 7 6 5 4 3 2 1 7 7 
CALL[ ]\011/* CallFunction */
MPPEM[ ]\011/* MeasurePixelPerEm */
PUSHB[ ]\011/* 1 value pushed */
95 
LT[ ]\011/* LessThan */
IF[ ]\011/* If */
NPUSHB[ ]\011/* 37 values pushed */
0 1 0 2 3 1 2 0 0 38 0 0 0 5 0 0 36 6 1 5 5 11 31 0 3 3 4 0 0 36 0 4 4 12 4 32 5 
ELSE[ ]\011/* Else */
MPPEM[ ]\011/* MeasurePixelPerEm */
PUSHB[ ]\011/* 1 value pushed */
108 
LT[ ]\011/* LessThan */
IF[ ]\011/* If */
NPUSHB[ ]\011/* 35 values pushed */
6 1 5 0 0 1 5 0 0 0 38 0 1 0 2 3 1 2 0 0 38 0 3 3 4 0 0 36 0 4 4 15 4 32 4 
ELSE[ ]\011/* Else */
NPUSHB[ ]\011/* 44 values pushed */
6 1 5 0 0 1 5 0 0 0 38 0 1 0 2 3 1 2 0 0 38 0 3 4 4 3 0 0 35 0 3 3 4 0 0 36 0 4 3 4 0 0 33 5 
EIF[ ]\011/* EndIf */
EIF[ ]\011/* EndIf */
PUSHB[ ]\011/* 1 value pushed */
56 
CALL[ ]\011/* CallFunction */";
};
width = 1162;
}
);
note = E;
unicode = 0045;
},
{
glyphname = Eogonek;
layers = (
{
layerId = "35A30917-2BE5-44A3-8659-B24E5BB0D762";
paths = (
{
closed = 1;
nodes = (
"1019.525 -211 OFFCURVE",
"972.408 -235 OFFCURVE",
"939 -235 CURVE SMOOTH",
"883 -235 OFFCURVE",
"848 -204.667 OFFCURVE",
"848 -154 CURVE SMOOTH",
"848 -85.611 OFFCURVE",
"910.328 -30.62 OFFCURVE",
"966 0 CURVE",
"1057 0 LINE",
"1057 158 LINE",
"369 158 LINE",
"369 647 LINE",
"926 647 LINE",
"926 799 LINE",
"369 799 LINE",
"369 1275 LINE",
"1057 1275 LINE",
"1057 1433 LINE",
"174 1433 LINE",
"174 0 LINE",
"852 0 LINE",
"772 -50.667 OFFCURVE",
"713 -119.667 OFFCURVE",
"713 -197 CURVE SMOOTH",
"713 -285 OFFCURVE",
"784.667 -342 OFFCURVE",
"902 -342 CURVE SMOOTH",
"970 -342 OFFCURVE",
"1036 -320.667 OFFCURVE",
"1076 -290 CURVE",
"1048 -224 LINE SMOOTH",
"1045.333 -217.333 OFFCURVE",
"1039.333 -211 OFFCURVE",
"1030 -211 CURVE SMOOTH"
);
}
);
userData = {
assembly = "NPUSHB[ ]\011/* 26 values pushed */
1 0 35 33 26 25 24 23 22 21 20 19 18 17 16 15 14 13 8 6 0 38 1 38 11 7 
CALL[ ]\011/* CallFunction */
MPPEM[ ]\011/* MeasurePixelPerEm */
PUSHB[ ]\011/* 1 value pushed */
21 
LT[ ]\011/* LessThan */
IF[ ]\011/* If */
NPUSHB[ ]\011/* 57 values pushed */
4 1 1 0 1 30 0 5 0 6 7 5 6 0 0 38 0 4 4 3 0 0 36 0 3 3 11 31 0 7 7 2 0 0 36 8 1 2 2 12 31 9 10 2 0 0 1 1 0 36 0 1 1 16 1 32 8 
ELSE[ ]\011/* Else */
MPPEM[ ]\011/* MeasurePixelPerEm */
PUSHB[ ]\011/* 1 value pushed */
73 
LT[ ]\011/* LessThan */
IF[ ]\011/* If */
NPUSHB[ ]\011/* 64 values pushed */
4 1 1 9 1 30 10 1 0 2 9 2 0 9 50 0 5 0 6 7 5 6 0 0 38 0 4 4 3 0 0 36 0 3 3 11 31 0 7 7 2 0 0 36 8 1 2 2 12 31 0 9 9 1 1 0 36 0 1 1 16 1 32 9 
ELSE[ ]\011/* Else */
MPPEM[ ]\011/* MeasurePixelPerEm */
PUSHB[ ]\011/* 1 value pushed */
95 
LT[ ]\011/* LessThan */
IF[ ]\011/* If */
NPUSHB[ ]\011/* 61 values pushed */
4 1 1 9 1 30 10 1 0 2 9 2 0 9 50 0 5 0 6 7 5 6 0 0 38 0 9 0 1 9 1 1 0 37 0 4 4 3 0 0 36 0 3 3 11 31 0 7 7 2 0 0 36 8 1 2 2 12 2 32 8 
ELSE[ ]\011/* Else */
MPPEM[ ]\011/* MeasurePixelPerEm */
PUSHB[ ]\011/* 1 value pushed */
108 
LT[ ]\011/* LessThan */
IF[ ]\011/* If */
NPUSHB[ ]\011/* 59 values pushed */
4 1 1 9 1 30 10 1 0 2 9 2 0 9 50 0 3 0 4 5 3 4 0 0 38 0 5 0 6 7 5 6 0 0 38 0 9 0 1 9 1 1 0 37 0 7 7 2 0 0 36 8 1 2 2 15 2 32 7 
ELSE[ ]\011/* Else */
MPPEM[ ]\011/* MeasurePixelPerEm */
PUSHB[ ]\011/* 1 value pushed */
232 
LT[ ]\011/* LessThan */
IF[ ]\011/* If */
NPUSHB[ ]\011/* 69 values pushed */
4 1 1 9 1 30 10 1 0 2 9 2 0 9 50 0 3 0 4 5 3 4 0 0 38 0 5 0 6 7 5 6 0 0 38 0 7 8 1 2 0 7 2 0 0 38 0 9 1 1 9 1 0 35 0 9 9 1 1 0 36 0 1 9 1 1 0 33 8 
ELSE[ ]\011/* Else */
NPUSHB[ ]\011/* 75 values pushed */
4 1 1 9 1 30 0 8 7 2 2 8 42 10 1 0 2 9 2 0 9 50 0 3 0 4 5 3 4 0 0 38 0 5 0 6 7 5 6 0 0 38 0 7 0 2 0 7 2 0 0 38 0 9 1 1 9 1 0 35 0 9 9 1 1 0 36 0 1 9 1 1 0 33 9 
EIF[ ]\011/* EndIf */
EIF[ ]\011/* EndIf */
EIF[ ]\011/* EndIf */
EIF[ ]\011/* EndIf */
EIF[ ]\011/* EndIf */
PUSHB[ ]\011/* 1 value pushed */
56 
CALL[ ]\011/* CallFunction */";
};
width = 1188;
}
);
note = Eogonek;
unicode = 0118;
},
{
glyphname = F;
layers = (
{
layerId = "35A30917-2BE5-44A3-8659-B24E5BB0D762";
paths = (
{
closed = 1;
nodes = (
"174 1433 LINE",
"174 0 LINE",
"369 0 LINE",
"369 616 LINE",
"957 616 LINE",
"957 774 LINE",
"369 774 LINE",
"369 1275 LINE",
"1057 1275 LINE",
"1057 1433 LINE"
);
}
);
userData = {
assembly = "NPUSHB[ ]\011/* 16 values pushed */
0 0 0 9 0 9 8 7 6 5 4 3 2 1 6 7 
CALL[ ]\011/* CallFunction */
MPPEM[ ]\011/* MeasurePixelPerEm */
PUSHB[ ]\011/* 1 value pushed */
95 
LT[ ]\011/* LessThan */
IF[ ]\011/* If */
NPUSHB[ ]\011/* 30 values pushed */
0 1 0 2 3 1 2 0 0 38 0 0 0 4 0 0 36 5 1 4 4 11 31 0 3 3 12 3 32 4 
ELSE[ ]\011/* Else */
MPPEM[ ]\011/* MeasurePixelPerEm */
PUSHB[ ]\011/* 1 value pushed */
108 
LT[ ]\011/* LessThan */
IF[ ]\011/* If */
NPUSHB[ ]\011/* 28 values pushed */
5 1 4 0 0 1 4 0 0 0 38 0 1 0 2 3 1 2 0 0 38 0 3 3 15 3 32 3 
ELSE[ ]\011/* Else */
NPUSHB[ ]\011/* 39 values pushed */
0 3 2 3 53 5 1 4 0 0 1 4 0 0 0 38 0 1 2 2 1 0 0 35 0 1 1 2 0 0 36 0 2 1 2 0 0 33 5 
EIF[ ]\011/* EndIf */
EIF[ ]\011/* EndIf */
PUSHB[ ]\011/* 1 value pushed */
56 
CALL[ ]\011/* CallFunction */";
};
width = 1132;
}
);
note = F;
unicode = 0046;
},
{
glyphname = G;
layers = (
{
layerId = "35A30917-2BE5-44A3-8659-B24E5BB0D762";
paths = (
{
closed = 1;
nodes = (
"658.333 141 OFFCURVE",
"528.333 194.333 OFFCURVE",
"435 293 CURVE SMOOTH",
"341.667 391.667 OFFCURVE",
"288 534.667 OFFCURVE",
"288 716 CURVE SMOOTH",
"288 889.333 OFFCURVE",
"339 1030.5 OFFCURVE",
"431 1128.5 CURVE SMOOTH",
"523 1226.5 OFFCURVE",
"655.667 1281 OFFCURVE",
"817 1281 CURVE SMOOTH",
"927.667 1281 OFFCURVE",
"1006.167 1261.167 OFFCURVE",
"1065.5 1236.5 CURVE SMOOTH",
"1112.02 1217.16 OFFCURVE",
"1169.152 1179.595 OFFCURVE",
"1197 1164 CURVE SMOOTH",
"1209.667 1156.667 OFFCURVE",
"1221.333 1153 OFFCURVE",
"1232 1153 CURVE SMOOTH",
"1250 1153 OFFCURVE",
"1264.667 1162 OFFCURVE",
"1276 1180 CURVE SMOOTH",
"1331 1268 LINE",
"1269.667 1324 OFFCURVE",
"1199.833 1369.167 OFFCURVE",
"1116.5 1400.5 CURVE SMOOTH",
"1033.167 1431.833 OFFCURVE",
"936.333 1449 OFFCURVE",
"823 1449 CURVE SMOOTH",
"599 1449 OFFCURVE",
"415.833 1375.167 OFFCURVE",
"288.5 1246.5 CURVE SMOOTH",
"161.167 1117.833 OFFCURVE",
"90 934.667 OFFCURVE",
"90 716 CURVE SMOOTH",
"90 500 OFFCURVE",
"163.667 316.167 OFFCURVE",
"289 187.5 CURVE SMOOTH",
"414.333 58.833 OFFCURVE",
"591 -16 OFFCURVE",
"799 -16 CURVE SMOOTH",
"917.667 -16 OFFCURVE",
"1017.833 -3.5 OFFCURVE",
"1106.5 22.5 CURVE SMOOTH",
"1195.167 48.5 OFFCURVE",
"1272 87 OFFCURVE",
"1344 139 CURVE",
"1344 689 LINE",
"904 689 LINE",
"904 579 LINE SMOOTH",
"904 557.667 OFFCURVE",
"920.667 541 OFFCURVE",
"946 541 CURVE SMOOTH",
"1168 541 LINE",
"1168 225 LINE",
"1062.11 169.268 OFFCURVE",
"959.672 141 OFFCURVE",
"813 141 CURVE SMOOTH"
);
}
);
userData = {
assembly = "NPUSHB[ ]\011/* 20 values pushed */
1 0 44 42 37 35 29 27 19 17 12 11 8 6 0 52 1 52 8 7 
CALL[ ]\011/* CallFunction */
MPPEM[ ]\011/* MeasurePixelPerEm */
PUSHB[ ]\011/* 1 value pushed */
95 
LT[ ]\011/* LessThan */
IF[ ]\011/* If */
NPUSHB[ ]\011/* 59 values pushed */
33 1 5 6 5 1 0 1 13 1 3 0 3 30 0 5 6 2 6 5 2 50 0 2 0 1 0 2 1 1 0 38 0 6 6 4 1 0 36 0 4 4 17 31 7 1 0 0 3 1 0 36 0 3 3 18 3 32 7 
ELSE[ ]\011/* Else */
MPPEM[ ]\011/* MeasurePixelPerEm */
PUSHB[ ]\011/* 1 value pushed */
108 
LT[ ]\011/* LessThan */
IF[ ]\011/* If */
NPUSHB[ ]\011/* 57 values pushed */
33 1 5 6 5 1 0 1 13 1 3 0 3 30 0 5 6 2 6 5 2 50 0 4 0 6 5 4 6 1 0 38 0 2 0 1 0 2 1 1 0 38 7 1 0 0 3 1 0 36 0 3 3 21 3 32 6 
ELSE[ ]\011/* Else */
NPUSHB[ ]\011/* 67 values pushed */
33 1 5 6 5 1 0 1 13 1 3 0 3 30 0 5 6 2 6 5 2 50 0 4 0 6 5 4 6 1 0 38 0 2 0 1 0 2 1 1 0 38 7 1 0 3 3 0 1 0 35 7 1 0 0 3 1 0 36 0 3 0 3 1 0 33 7 
EIF[ ]\011/* EndIf */
EIF[ ]\011/* EndIf */
PUSHB[ ]\011/* 1 value pushed */
56 
CALL[ ]\011/* CallFunction */";
};
width = 1468;
}
);
note = G;
unicode = 0047;
},
{
glyphname = H;
layers = (
{
layerId = "35A30917-2BE5-44A3-8659-B24E5BB0D762";
paths = (
{
closed = 1;
nodes = (
"1336 1433 LINE",
"1141 1433 LINE",
"1141 794 LINE",
"369 794 LINE",
"369 1433 LINE",
"174 1433 LINE",
"174 0 LINE",
"369 0 LINE",
"369 652 LINE",
"1141 652 LINE",
"1141 0 LINE",
"1336 0 LINE"
);
}
);
userData = {
assembly = "NPUSHB[ ]\011/* 14 values pushed */
11 10 9 8 7 6 5 4 3 2 1 0 6 7 
CALL[ ]\011/* CallFunction */
MPPEM[ ]\011/* MeasurePixelPerEm */
PUSHB[ ]\011/* 1 value pushed */
95 
LT[ ]\011/* LessThan */
IF[ ]\011/* If */
NPUSHB[ ]\011/* 24 values pushed */
0 4 0 1 0 4 1 0 0 38 5 1 3 3 11 31 2 1 0 0 12 0 32 3 
ELSE[ ]\011/* Else */
MPPEM[ ]\011/* MeasurePixelPerEm */
PUSHB[ ]\011/* 1 value pushed */
108 
LT[ ]\011/* LessThan */
IF[ ]\011/* If */
NPUSHB[ ]\011/* 26 values pushed */
0 4 0 1 0 4 1 0 0 38 5 1 3 3 0 0 0 36 2 1 0 0 15 0 32 3 
ELSE[ ]\011/* Else */
MPPEM[ ]\011/* MeasurePixelPerEm */
PUSHB[ ]\011/* 1 value pushed */
232 
LT[ ]\011/* LessThan */
IF[ ]\011/* If */
NPUSHB[ ]\011/* 36 values pushed */
5 1 3 4 0 3 0 0 35 0 4 0 1 0 4 1 0 0 38 5 1 3 3 0 0 0 36 2 1 0 3 0 0 0 33 4 
ELSE[ ]\011/* Else */
NPUSHB[ ]\011/* 43 values pushed */
0 5 4 0 5 0 0 35 0 4 0 1 2 4 1 0 0 38 0 3 0 2 0 3 2 0 0 38 0 5 5 0 0 0 36 0 0 5 0 0 0 33 5 
EIF[ ]\011/* EndIf */
EIF[ ]\011/* EndIf */
EIF[ ]\011/* EndIf */
PUSHB[ ]\011/* 1 value pushed */
56 
CALL[ ]\011/* CallFunction */";
};
width = 1512;
}
);
note = H;
unicode = 0048;
},
{
glyphname = I;
layers = (
{
layerId = "35A30917-2BE5-44A3-8659-B24E5BB0D762";
paths = (
{
closed = 1;
nodes = (
"404 1433 LINE",
"210 1433 LINE",
"210 0 LINE",
"404 0 LINE"
);
}
);
userData = {
assembly = "NPUSHB[ ]\011/* 6 values pushed */
3 2 1 0 2 7 
CALL[ ]\011/* CallFunction */
MPPEM[ ]\011/* MeasurePixelPerEm */
PUSHB[ ]\011/* 1 value pushed */
95 
LT[ ]\011/* LessThan */
IF[ ]\011/* If */
NPUSHB[ ]\011/* 12 values pushed */
0 1 1 11 31 0 0 0 12 0 32 2 
ELSE[ ]\011/* Else */
MPPEM[ ]\011/* MeasurePixelPerEm */
PUSHB[ ]\011/* 1 value pushed */
108 
LT[ ]\011/* LessThan */
IF[ ]\011/* If */
NPUSHB[ ]\011/* 14 values pushed */
0 1 1 0 0 0 36 0 0 0 15 0 32 2 
ELSE[ ]\011/* Else */
NPUSHB[ ]\011/* 23 values pushed */
0 1 0 0 1 0 0 35 0 1 1 0 0 0 36 0 0 1 0 0 0 33 3 
EIF[ ]\011/* EndIf */
EIF[ ]\011/* EndIf */
PUSHB[ ]\011/* 1 value pushed */
56 
CALL[ ]\011/* CallFunction */";
};
width = 614;
}
);
note = I;
unicode = 0049;
},
{
glyphname = J;
layers = (
{
layerId = "35A30917-2BE5-44A3-8659-B24E5BB0D762";
paths = (
{
closed = 1;
nodes = (
"713 1433 LINE",
"520 1433 LINE",
"520 491 LINE SMOOTH",
"520 371 OFFCURVE",
"494.833 284 OFFCURVE",
"447.5 228 CURVE SMOOTH",
"400.167 172 OFFCURVE",
"331 146 OFFCURVE",
"243 146 CURVE SMOOTH",
"209.667 146 OFFCURVE",
"183 149 OFFCURVE",
"163 155 CURVE SMOOTH",
"143 161 OFFCURVE",
"127 164 OFFCURVE",
"115 164 CURVE SMOOTH",
"87 164 OFFCURVE",
"73.667 148.667 OFFCURVE",
"71 126 CURVE SMOOTH",
"67 88.667 OFFCURVE",
"62.667 50.667 OFFCURVE",
"60 12 CURVE",
"130 -6.667 OFFCURVE",
"197.333 -16 OFFCURVE",
"262 -16 CURVE SMOOTH",
"407.333 -16 OFFCURVE",
"519.833 32.167 OFFCURVE",
"596.5 119.5 CURVE SMOOTH",
"673.167 206.833 OFFCURVE",
"713 335 OFFCURVE",
"713 495 CURVE SMOOTH"
);
}
);
userData = {
assembly = "NPUSHB[ ]\011/* 10 values pushed */
23 22 17 15 14 12 6 4 4 7 
CALL[ ]\011/* CallFunction */
MPPEM[ ]\011/* MeasurePixelPerEm */
PUSHB[ ]\011/* 1 value pushed */
26 
LT[ ]\011/* LessThan */
IF[ ]\011/* If */
NPUSHB[ ]\011/* 26 values pushed */
7 1 0 1 1 30 0 3 3 11 31 2 1 1 1 0 1 0 36 0 0 0 18 0 32 4 
ELSE[ ]\011/* Else */
MPPEM[ ]\011/* MeasurePixelPerEm */
PUSHB[ ]\011/* 1 value pushed */
95 
LT[ ]\011/* LessThan */
IF[ ]\011/* If */
NPUSHB[ ]\011/* 33 values pushed */
7 1 0 2 1 30 0 1 3 2 3 1 2 50 0 3 3 11 31 0 2 2 0 1 0 36 0 0 0 18 0 32 5 
ELSE[ ]\011/* Else */
MPPEM[ ]\011/* MeasurePixelPerEm */
PUSHB[ ]\011/* 1 value pushed */
108 
LT[ ]\011/* LessThan */
IF[ ]\011/* If */
NPUSHB[ ]\011/* 30 values pushed */
7 1 0 2 1 30 0 3 1 3 52 0 1 2 1 52 0 2 2 0 1 0 36 0 0 0 21 0 32 5 
ELSE[ ]\011/* Else */
NPUSHB[ ]\011/* 39 values pushed */
7 1 0 2 1 30 0 3 1 3 52 0 1 2 1 52 0 2 0 0 2 1 0 35 0 2 2 0 1 0 36 0 0 2 0 1 0 33 6 
EIF[ ]\011/* EndIf */
EIF[ ]\011/* EndIf */
EIF[ ]\011/* EndIf */
PUSHB[ ]\011/* 1 value pushed */
56 
CALL[ ]\011/* CallFunction */";
};
width = 888;
}
);
note = J;
unicode = 004A;
},
{
glyphname = K;
layers = (
{
layerId = "35A30917-2BE5-44A3-8659-B24E5BB0D762";
paths = (
{
closed = 1;
nodes = (
"387 1433 LINE",
"194 1433 LINE",
"194 0 LINE",
"387 0 LINE",
"387 656 LINE",
"475 656 LINE SMOOTH",
"535.144 656 OFFCURVE",
"555.516 644.346 OFFCURVE",
"587 610 CURVE SMOOTH",
"1082 41 LINE SMOOTH",
"1106.137 13.846 OFFCURVE",
"1123.228 0 OFFCURVE",
"1170 0 CURVE SMOOTH",
"1338 0 LINE",
"768 679 LINE SMOOTH",
"737.333 715 OFFCURVE",
"712.333 739 OFFCURVE",
"675 751 CURVE",
"703 764.333 OFFCURVE",
"726 785.333 OFFCURVE",
"754 816 CURVE SMOOTH",
"1300 1433 LINE",
"1135 1433 LINE SMOOTH",
"1092.333 1433 OFFCURVE",
"1069.333 1420.333 OFFCURVE",
"1040 1387 CURVE SMOOTH",
"563 847 LINE SMOOTH",
"536.333 816.333 OFFCURVE",
"510.667 805 OFFCURVE",
"460 805 CURVE SMOOTH",
"387 805 LINE"
);
}
);
userData = {
assembly = "NPUSHB[ ]\011/* 14 values pushed */
34 33 32 31 30 28 19 17 9 7 2 0 6 7 
CALL[ ]\011/* CallFunction */
MPPEM[ ]\011/* MeasurePixelPerEm */
PUSHB[ ]\011/* 1 value pushed */
95 
LT[ ]\011/* LessThan */
IF[ ]\011/* If */
NPUSHB[ ]\011/* 30 values pushed */
13 1 3 0 1 30 0 0 0 3 2 0 3 1 0 38 5 1 1 1 11 31 4 1 2 2 12 2 32 4 
ELSE[ ]\011/* Else */
MPPEM[ ]\011/* MeasurePixelPerEm */
PUSHB[ ]\011/* 1 value pushed */
108 
LT[ ]\011/* LessThan */
IF[ ]\011/* If */
NPUSHB[ ]\011/* 32 values pushed */
13 1 3 0 1 30 0 0 0 3 2 0 3 1 0 38 5 1 1 1 2 1 0 36 4 1 2 2 15 2 32 4 
ELSE[ ]\011/* Else */
MPPEM[ ]\011/* MeasurePixelPerEm */
PUSHB[ ]\011/* 1 value pushed */
232 
LT[ ]\011/* LessThan */
IF[ ]\011/* If */
NPUSHB[ ]\011/* 42 values pushed */
13 1 3 0 1 30 5 1 1 0 2 1 1 0 35 0 0 0 3 2 0 3 1 0 38 5 1 1 1 2 1 0 36 4 1 2 1 2 1 0 33 5 
ELSE[ ]\011/* Else */
NPUSHB[ ]\011/* 49 values pushed */
13 1 3 0 1 30 0 1 5 2 1 1 0 35 0 0 0 3 4 0 3 1 0 38 0 5 0 4 2 5 4 0 0 38 0 1 1 2 1 0 36 0 2 1 2 1 0 33 6 
EIF[ ]\011/* EndIf */
EIF[ ]\011/* EndIf */
EIF[ ]\011/* EndIf */
PUSHB[ ]\011/* 1 value pushed */
56 
CALL[ ]\011/* CallFunction */";
};
width = 1362;
}
);
note = K;
unicode = 004B;
},
{
glyphname = L;
layers = (
{
layerId = "35A30917-2BE5-44A3-8659-B24E5BB0D762";
paths = (
{
closed = 1;
nodes = (
"368 1433 LINE",
"174 1433 LINE",
"174 0 LINE",
"988 0 LINE",
"988 163 LINE",
"368 163 LINE"
);
}
);
userData = {
assembly = "NPUSHB[ ]\011/* 8 values pushed */
5 4 3 2 1 0 3 7 
CALL[ ]\011/* CallFunction */
MPPEM[ ]\011/* MeasurePixelPerEm */
PUSHB[ ]\011/* 1 value pushed */
95 
LT[ ]\011/* LessThan */
IF[ ]\011/* If */
NPUSHB[ ]\011/* 19 values pushed */
0 2 2 11 31 0 0 0 1 0 2 36 0 1 1 12 1 32 3 
ELSE[ ]\011/* Else */
MPPEM[ ]\011/* MeasurePixelPerEm */
PUSHB[ ]\011/* 1 value pushed */
108 
LT[ ]\011/* LessThan */
IF[ ]\011/* If */
NPUSHB[ ]\011/* 19 values pushed */
0 2 0 2 52 0 0 0 1 0 2 36 0 1 1 15 1 32 3 
ELSE[ ]\011/* Else */
NPUSHB[ ]\011/* 28 values pushed */
0 2 0 2 52 0 0 1 1 0 0 0 35 0 0 0 1 0 2 36 0 1 0 1 0 2 33 4 
EIF[ ]\011/* EndIf */
EIF[ ]\011/* EndIf */
PUSHB[ ]\011/* 1 value pushed */
56 
CALL[ ]\011/* CallFunction */";
};
width = 1028;
}
);
note = L;
unicode = 004C;
},
{
glyphname = Lslash;
layers = (
{
layerId = "35A30917-2BE5-44A3-8659-B24E5BB0D762";
paths = (
{
closed = 1;
nodes = (
"425 1433 LINE",
"231 1433 LINE",
"231 717 LINE",
"69 631 LINE SMOOTH",
"52.333 622.333 OFFCURVE",
"44 609.333 OFFCURVE",
"44 592 CURVE SMOOTH",
"44 459 LINE",
"231 554 LINE",
"231 0 LINE",
"1045 0 LINE",
"1045 163 LINE",
"425 163 LINE",
"425 641 LINE",
"782 829 LINE SMOOTH",
"800 838.333 OFFCURVE",
"809 852.667 OFFCURVE",
"809 872 CURVE SMOOTH",
"809 1001 LINE",
"425 805 LINE"
);
}
);
userData = {
assembly = "NPUSHB[ ]\011/* 8 values pushed */
17 16 9 8 7 6 3 7 
CALL[ ]\011/* CallFunction */
MPPEM[ ]\011/* MeasurePixelPerEm */
PUSHB[ ]\011/* 1 value pushed */
95 
LT[ ]\011/* LessThan */
IF[ ]\011/* If */
NPUSHB[ ]\011/* 30 values pushed */
15 11 10 5 1 0 6 0 2 1 30 0 2 2 11 31 0 0 0 1 0 2 36 0 1 1 12 1 32 4 
ELSE[ ]\011/* Else */
MPPEM[ ]\011/* MeasurePixelPerEm */
PUSHB[ ]\011/* 1 value pushed */
108 
LT[ ]\011/* LessThan */
IF[ ]\011/* If */
NPUSHB[ ]\011/* 30 values pushed */
15 11 10 5 1 0 6 0 2 1 30 0 2 0 2 52 0 0 0 1 0 2 36 0 1 1 15 1 32 4 
ELSE[ ]\011/* Else */
NPUSHB[ ]\011/* 39 values pushed */
15 11 10 5 1 0 6 0 2 1 30 0 2 0 2 52 0 0 1 1 0 0 0 35 0 0 0 1 0 2 36 0 1 0 1 0 2 33 5 
EIF[ ]\011/* EndIf */
EIF[ ]\011/* EndIf */
PUSHB[ ]\011/* 1 value pushed */
56 
CALL[ ]\011/* CallFunction */";
};
width = 1086;
}
);
note = Lslash;
unicode = 0141;
},
{
glyphname = M;
layers = (
{
layerId = "35A30917-2BE5-44A3-8659-B24E5BB0D762";
paths = (
{
closed = 1;
nodes = (
"879 518 LINE",
"384 1400 LINE SMOOTH",
"366.667 1430.667 OFFCURVE",
"351.667 1433 OFFCURVE",
"317 1433 CURVE SMOOTH",
"174 1433 LINE",
"174 0 LINE",
"344 0 LINE",
"344 1053 LINE SMOOTH",
"344 1081 OFFCURVE",
"342 1115.333 OFFCURVE",
"338 1150 CURVE",
"840 251 LINE SMOOTH",
"856.667 221 OFFCURVE",
"880 206 OFFCURVE",
"910 206 CURVE SMOOTH",
"938 206 LINE SMOOTH",
"968 206 OFFCURVE",
"991.333 221 OFFCURVE",
"1008 251 CURVE SMOOTH",
"1499 1147 LINE",
"1496.333 1113.667 OFFCURVE",
"1495 1081 OFFCURVE",
"1495 1053 CURVE SMOOTH",
"1495 0 LINE",
"1665 0 LINE",
"1665 1433 LINE",
"1522 1433 LINE SMOOTH",
"1487.333 1433 OFFCURVE",
"1472.333 1430.667 OFFCURVE",
"1455 1400 CURVE SMOOTH",
"970 519 LINE SMOOTH",
"951.333 484.333 OFFCURVE",
"937.333 451.333 OFFCURVE",
"924 414 CURVE",
"910.667 450 OFFCURVE",
"897.667 486 OFFCURVE",
"879 518 CURVE"
);
}
);
userData = {
assembly = "NPUSHB[ ]\011/* 12 values pushed */
32 30 29 28 22 19 13 12 11 9 5 7 
CALL[ ]\011/* CallFunction */
MPPEM[ ]\011/* MeasurePixelPerEm */
PUSHB[ ]\011/* 1 value pushed */
95 
LT[ ]\011/* LessThan */
IF[ ]\011/* If */
NPUSHB[ ]\011/* 28 values pushed */
3 1 2 0 1 30 0 2 0 1 0 2 1 50 4 1 0 0 11 31 3 1 1 1 12 1 32 4 
ELSE[ ]\011/* Else */
MPPEM[ ]\011/* MeasurePixelPerEm */
PUSHB[ ]\011/* 1 value pushed */
108 
LT[ ]\011/* LessThan */
IF[ ]\011/* If */
NPUSHB[ ]\011/* 30 values pushed */
3 1 2 0 1 30 0 2 0 1 0 2 1 50 4 1 0 0 1 0 0 36 3 1 1 1 15 1 32 4 
ELSE[ ]\011/* Else */
MPPEM[ ]\011/* MeasurePixelPerEm */
PUSHB[ ]\011/* 1 value pushed */
232 
LT[ ]\011/* LessThan */
IF[ ]\011/* If */
NPUSHB[ ]\011/* 40 values pushed */
3 1 2 0 1 30 0 2 0 1 0 2 1 50 4 1 0 2 1 0 1 0 35 4 1 0 0 1 0 0 36 3 1 1 0 1 0 0 33 5 
ELSE[ ]\011/* Else */
NPUSHB[ ]\011/* 47 values pushed */
3 1 2 4 1 30 0 2 4 3 4 2 3 50 0 0 4 1 0 1 0 35 0 4 0 3 1 4 3 0 0 38 0 0 0 1 0 0 36 0 1 0 1 0 0 33 6 
EIF[ ]\011/* EndIf */
EIF[ ]\011/* EndIf */
EIF[ ]\011/* EndIf */
PUSHB[ ]\011/* 1 value pushed */
56 
CALL[ ]\011/* CallFunction */";
};
width = 1840;
}
);
note = M;
unicode = 004D;
},
{
glyphname = N;
layers = (
{
layerId = "35A30917-2BE5-44A3-8659-B24E5BB0D762";
paths = (
{
closed = 1;
nodes = (
"274 1433 LINE",
"174 1433 LINE",
"174 0 LINE",
"344 0 LINE",
"344 1021 LINE SMOOTH",
"344 1047.667 OFFCURVE",
"342.667 1080.667 OFFCURVE",
"340 1114 CURVE",
"1169 35 LINE SMOOTH",
"1189 9.667 OFFCURVE",
"1207.333 0 OFFCURVE",
"1238 0 CURVE SMOOTH",
"1336 0 LINE",
"1336 1433 LINE",
"1166 1433 LINE",
"1166 418 LINE SMOOTH",
"1166 387.333 OFFCURVE",
"1167 354.667 OFFCURVE",
"1171 320 CURVE",
"341 1400 LINE SMOOTH",
"319.667 1426.667 OFFCURVE",
"308.667 1433 OFFCURVE",
"274 1433 CURVE SMOOTH"
);
}
);
userData = {
assembly = "NPUSHB[ ]\011/* 12 values pushed */
22 21 20 19 12 10 9 8 1 0 5 7 
CALL[ ]\011/* CallFunction */
MPPEM[ ]\011/* MeasurePixelPerEm */
PUSHB[ ]\011/* 1 value pushed */
95 
LT[ ]\011/* LessThan */
IF[ ]\011/* If */
NPUSHB[ ]\011/* 15 values pushed */
4 1 2 0 0 11 31 3 1 2 2 12 2 32 2 
ELSE[ ]\011/* Else */
MPPEM[ ]\011/* MeasurePixelPerEm */
PUSHB[ ]\011/* 1 value pushed */
108 
LT[ ]\011/* LessThan */
IF[ ]\011/* If */
NPUSHB[ ]\011/* 17 values pushed */
4 1 2 0 0 2 1 0 36 3 1 2 2 15 2 32 2 
ELSE[ ]\011/* Else */
MPPEM[ ]\011/* MeasurePixelPerEm */
PUSHB[ ]\011/* 1 value pushed */
232 
LT[ ]\011/* LessThan */
IF[ ]\011/* If */
NPUSHB[ ]\011/* 28 values pushed */
4 1 2 0 2 2 0 0 0 35 4 1 2 0 0 2 1 0 36 3 1 2 0 2 1 0 33 3 
ELSE[ ]\011/* Else */
NPUSHB[ ]\011/* 39 values pushed */
0 0 1 4 0 40 0 1 4 2 1 0 0 35 0 4 0 3 2 4 3 0 2 38 0 1 1 2 1 0 36 0 2 1 2 1 0 33 5 
EIF[ ]\011/* EndIf */
EIF[ ]\011/* EndIf */
EIF[ ]\011/* EndIf */
PUSHB[ ]\011/* 1 value pushed */
56 
CALL[ ]\011/* CallFunction */";
};
width = 1512;
}
);
note = N;
unicode = 004E;
},
{
glyphname = O;
layers = (
{
layerId = "35A30917-2BE5-44A3-8659-B24E5BB0D762";
paths = (
{
closed = 1;
nodes = (
"1505 930.667 OFFCURVE",
"1434 1113.5 OFFCURVE",
"1310 1243.5 CURVE SMOOTH",
"1186 1373.5 OFFCURVE",
"1008.667 1449 OFFCURVE",
"798 1449 CURVE SMOOTH",
"587.333 1449 OFFCURVE",
"411 1373.5 OFFCURVE",
"287 1243.5 CURVE SMOOTH",
"163 1113.5 OFFCURVE",
"92 930.667 OFFCURVE",
"92 716 CURVE SMOOTH",
"92 501.333 OFFCURVE",
"163 318.333 OFFCURVE",
"287 189 CURVE SMOOTH",
"411 59.667 OFFCURVE",
"587.333 -15 OFFCURVE",
"798 -15 CURVE SMOOTH",
"1008.667 -15 OFFCURVE",
"1186 59.667 OFFCURVE",
"1310 189 CURVE SMOOTH",
"1434 318.333 OFFCURVE",
"1505 501.333 OFFCURVE",
"1505 716 CURVE SMOOTH"
);
},
{
closed = 1;
nodes = (
"1306 540 OFFCURVE",
"1256 399.167 OFFCURVE",
"1168 302.5 CURVE SMOOTH",
"1080 205.833 OFFCURVE",
"952.667 153 OFFCURVE",
"798 153 CURVE SMOOTH",
"644.667 153 OFFCURVE",
"517.167 205.833 OFFCURVE",
"428.5 302.5 CURVE SMOOTH",
"339.833 399.167 OFFCURVE",
"290 540 OFFCURVE",
"290 716 CURVE SMOOTH",
"290 892 OFFCURVE",
"339.833 1033.833 OFFCURVE",
"428.5 1130.5 CURVE SMOOTH",
"517.167 1227.167 OFFCURVE",
"644.667 1281 OFFCURVE",
"798 1281 CURVE SMOOTH",
"952.667 1281 OFFCURVE",
"1080 1227.167 OFFCURVE",
"1168 1130.5 CURVE SMOOTH",
"1256 1033.833 OFFCURVE",
"1306 892 OFFCURVE",
"1306 716 CURVE SMOOTH"
);
}
);
userData = {
assembly = "NPUSHB[ ]\011/* 10 values pushed */
36 34 26 24 16 14 6 4 4 7 
CALL[ ]\011/* CallFunction */
MPPEM[ ]\011/* MeasurePixelPerEm */
PUSHB[ ]\011/* 1 value pushed */
95 
LT[ ]\011/* LessThan */
IF[ ]\011/* If */
NPUSHB[ ]\011/* 26 values pushed */
0 2 2 1 1 0 36 0 1 1 17 31 0 3 3 0 1 0 36 0 0 0 18 0 32 4 
ELSE[ ]\011/* Else */
MPPEM[ ]\011/* MeasurePixelPerEm */
PUSHB[ ]\011/* 1 value pushed */
108 
LT[ ]\011/* LessThan */
IF[ ]\011/* If */
NPUSHB[ ]\011/* 24 values pushed */
0 1 0 2 3 1 2 1 0 38 0 3 3 0 1 0 36 0 0 0 21 0 32 3 
ELSE[ ]\011/* Else */
NPUSHB[ ]\011/* 33 values pushed */
0 1 0 2 3 1 2 1 0 38 0 3 0 0 3 1 0 35 0 3 3 0 1 0 36 0 0 3 0 1 0 33 4 
EIF[ ]\011/* EndIf */
EIF[ ]\011/* EndIf */
PUSHB[ ]\011/* 1 value pushed */
56 
CALL[ ]\011/* CallFunction */";
};
width = 1596;
}
);
note = O;
unicode = 004F;
},
{
glyphname = Oslash;
layers = (
{
layerId = "35A30917-2BE5-44A3-8659-B24E5BB0D762";
paths = (
{
closed = 1;
nodes = (
"1505 944 OFFCURVE",
"1427.333 1132.333 OFFCURVE",
"1290 1263 CURVE",
"1462 1498 LINE",
"1362 1498 LINE SMOOTH",
"1319.333 1498 OFFCURVE",
"1304.667 1484 OFFCURVE",
"1278 1448 CURVE SMOOTH",
"1196 1337 LINE",
"1085.333 1409 OFFCURVE",
"951.333 1449 OFFCURVE",
"798 1449 CURVE SMOOTH",
"587.333 1449 OFFCURVE",
"411 1373.5 OFFCURVE",
"287 1243.5 CURVE SMOOTH",
"163 1113.5 OFFCURVE",
"92 930.667 OFFCURVE",
"92 716 CURVE SMOOTH",
"92 477.333 OFFCURVE",
"177.667 281.667 OFFCURVE",
"327 151 CURVE",
"136 -109 LINE",
"214 -109 LINE SMOOTH",
"252.667 -109 OFFCURVE",
"293.667 -92.667 OFFCURVE",
"323 -54 CURVE SMOOTH",
"423 82 LINE",
"528.333 18 OFFCURVE",
"654 -15 OFFCURVE",
"798 -15 CURVE SMOOTH",
"1008.667 -15 OFFCURVE",
"1186 59.667 OFFCURVE",
"1310 189 CURVE SMOOTH",
"1434 318.333 OFFCURVE",
"1505 501.333 OFFCURVE",
"1505 716 CURVE SMOOTH"
);
},
{
closed = 1;
nodes = (
"290 892 OFFCURVE",
"339.833 1033.833 OFFCURVE",
"428.5 1130.5 CURVE SMOOTH",
"517.167 1227.167 OFFCURVE",
"644.667 1281 OFFCURVE",
"798 1281 CURVE SMOOTH",
"914 1281 OFFCURVE",
"1013 1252 OFFCURVE",
"1093 1196 CURVE",
"434 297 LINE",
"342 394.333 OFFCURVE",
"290 536 OFFCURVE",
"290 716 CURVE SMOOTH"
);
},
{
closed = 1;
nodes = (
"1306 540 OFFCURVE",
"1256 399.167 OFFCURVE",
"1168 302.5 CURVE SMOOTH",
"1080 205.833 OFFCURVE",
"952.667 153 OFFCURVE",
"798 153 CURVE SMOOTH",
"694 153 OFFCURVE",
"603.333 176.333 OFFCURVE",
"526 223 CURVE",
"1181 1115 LINE",
"1261 1019 OFFCURVE",
"1306 884 OFFCURVE",
"1306 716 CURVE SMOOTH"
);
}
);
userData = {
assembly = "NPUSHB[ ]\011/* 14 values pushed */
53 51 42 40 30 28 23 21 13 11 6 4 6 7 
CALL[ ]\011/* CallFunction */
MPPEM[ ]\011/* MeasurePixelPerEm */
PUSHB[ ]\011/* 1 value pushed */
30 
LT[ ]\011/* LessThan */
IF[ ]\011/* If */
NPUSHB[ ]\011/* 55 values pushed */
25 1 4 2 50 49 38 37 31 5 5 4 14 8 2 0 5 3 30 0 1 0 1 53 0 3 3 13 31 0 4 4 2 1 0 36 0 2 2 17 31 0 5 5 0 1 0 36 0 0 0 18 0 32 7 
ELSE[ ]\011/* Else */
MPPEM[ ]\011/* MeasurePixelPerEm */
PUSHB[ ]\011/* 1 value pushed */
95 
LT[ ]\011/* LessThan */
IF[ ]\011/* If */
NPUSHB[ ]\011/* 55 values pushed */
25 1 4 2 50 49 38 37 31 5 5 4 14 8 2 0 5 3 30 0 3 2 3 52 0 1 0 1 53 0 4 4 2 1 0 36 0 2 2 17 31 0 5 5 0 1 0 36 0 0 0 18 0 32 7 
ELSE[ ]\011/* Else */
MPPEM[ ]\011/* MeasurePixelPerEm */
PUSHB[ ]\011/* 1 value pushed */
108 
LT[ ]\011/* LessThan */
IF[ ]\011/* If */
NPUSHB[ ]\011/* 53 values pushed */
25 1 4 2 50 49 38 37 31 5 5 4 14 8 2 0 5 3 30 0 3 2 3 52 0 1 0 1 53 0 2 0 4 5 2 4 1 0 38 0 5 5 0 1 0 36 0 0 0 21 0 32 6 
ELSE[ ]\011/* Else */
NPUSHB[ ]\011/* 62 values pushed */
25 1 4 2 50 49 38 37 31 5 5 4 14 8 2 0 5 3 30 0 3 2 3 52 0 1 0 1 53 0 2 0 4 5 2 4 1 0 38 0 5 0 0 5 1 0 35 0 5 5 0 1 0 36 0 0 5 0 1 0 33 7 
EIF[ ]\011/* EndIf */
EIF[ ]\011/* EndIf */
EIF[ ]\011/* EndIf */
PUSHB[ ]\011/* 1 value pushed */
56 
CALL[ ]\011/* CallFunction */";
};
width = 1596;
}
);
note = Oslash;
unicode = 00D8;
},
{
glyphname = OE;
layers = (
{
layerId = "35A30917-2BE5-44A3-8659-B24E5BB0D762";
paths = (
{
closed = 1;
nodes = (
"1227 1433 LINE",
"1227 1193 LINE",
"1115 1354.333 OFFCURVE",
"942.667 1449 OFFCURVE",
"728 1449 CURVE SMOOTH",
"538.667 1449 OFFCURVE",
"380 1373.5 OFFCURVE",
"268 1243.5 CURVE SMOOTH",
"156 1113.5 OFFCURVE",
"92 930.667 OFFCURVE",
"92 716 CURVE SMOOTH",
"92 501.333 OFFCURVE",
"156 318.167 OFFCURVE",
"268 189.5 CURVE SMOOTH",
"380 60.833 OFFCURVE",
"538.667 -14 OFFCURVE",
"728 -14 CURVE SMOOTH",
"942.667 -14 OFFCURVE",
"1115 80 OFFCURVE",
"1227 240 CURVE",
"1227 0 LINE",
"2087 0 LINE",
"2087 158 LINE",
"1399 158 LINE",
"1399 647 LINE",
"1956 647 LINE",
"1956 799 LINE",
"1399 799 LINE",
"1399 1275 LINE",
"2087 1275 LINE",
"2087 1433 LINE"
);
},
{
closed = 1;
nodes = (
"1204 540 OFFCURVE",
"1159.833 397.5 OFFCURVE",
"1080.5 299.5 CURVE SMOOTH",
"1001.167 201.5 OFFCURVE",
"886.667 148 OFFCURVE",
"748 148 CURVE SMOOTH",
"609.333 148 OFFCURVE",
"495 201.5 OFFCURVE",
"415 299.5 CURVE SMOOTH",
"335 397.5 OFFCURVE",
"290 540 OFFCURVE",
"290 716 CURVE SMOOTH",
"290 892 OFFCURVE",
"335 1034.333 OFFCURVE",
"415 1133 CURVE SMOOTH",
"495 1231.667 OFFCURVE",
"609.333 1286 OFFCURVE",
"748 1286 CURVE SMOOTH",
"886.667 1286 OFFCURVE",
"1001.167 1231.667 OFFCURVE",
"1080.5 1133 CURVE SMOOTH",
"1159.833 1034.333 OFFCURVE",
"1204 892 OFFCURVE",
"1204 716 CURVE SMOOTH"
);
}
);
userData = {
assembly = "NPUSHB[ ]\011/* 26 values pushed */
0 0 45 43 35 33 0 28 0 28 25 23 15 13 10 9 8 7 6 5 4 3 2 1 11 7 
CALL[ ]\011/* CallFunction */
MPPEM[ ]\011/* MeasurePixelPerEm */
PUSHB[ ]\011/* 1 value pushed */
30 
LT[ ]\011/* LessThan */
IF[ ]\011/* If */
NPUSHB[ ]\011/* 51 values pushed */
27 1 1 0 11 1 3 2 2 30 0 1 0 2 3 1 2 0 0 38 8 1 0 0 6 1 0 36 10 7 2 6 6 17 31 9 1 3 3 4 1 0 36 5 1 4 4 12 4 32 6 
ELSE[ ]\011/* Else */
MPPEM[ ]\011/* MeasurePixelPerEm */
PUSHB[ ]\011/* 1 value pushed */
34 
LT[ ]\011/* LessThan */
IF[ ]\011/* If */
NPUSHB[ ]\011/* 63 values pushed */
27 1 1 0 11 1 3 2 2 30 0 1 0 2 3 1 2 0 0 38 8 1 0 0 6 1 0 36 0 6 6 17 31 8 1 0 0 7 0 0 36 10 1 7 7 11 31 9 1 3 3 4 1 0 36 5 1 4 4 12 4 32 8 
ELSE[ ]\011/* Else */
MPPEM[ ]\011/* MeasurePixelPerEm */
PUSHB[ ]\011/* 1 value pushed */
44 
LT[ ]\011/* LessThan */
IF[ ]\011/* If */
NPUSHB[ ]\011/* 75 values pushed */
27 1 1 0 11 1 3 2 2 30 0 1 0 2 3 1 2 0 0 38 8 1 0 0 6 1 0 36 0 6 6 17 31 8 1 0 0 7 0 0 36 10 1 7 7 11 31 9 1 3 3 4 0 0 36 0 4 4 12 31 9 1 3 3 5 1 0 36 0 5 5 21 5 32 10 
ELSE[ ]\011/* Else */
MPPEM[ ]\011/* MeasurePixelPerEm */
PUSHB[ ]\011/* 1 value pushed */
48 
LT[ ]\011/* LessThan */
IF[ ]\011/* If */
NPUSHB[ ]\011/* 73 values pushed */
27 1 1 0 11 1 3 2 2 30 0 1 0 2 3 1 2 0 0 38 0 8 8 6 1 0 36 0 6 6 17 31 0 0 0 7 0 0 36 10 1 7 7 11 31 9 1 3 3 4 0 0 36 0 4 4 12 31 9 1 3 3 5 1 0 36 0 5 5 21 5 32 10 
ELSE[ ]\011/* Else */
MPPEM[ ]\011/* MeasurePixelPerEm */
PUSHB[ ]\011/* 1 value pushed */
95 
LT[ ]\011/* LessThan */
IF[ ]\011/* If */
NPUSHB[ ]\011/* 71 values pushed */
27 1 1 0 11 1 3 2 2 30 0 1 0 2 3 1 2 0 0 38 0 8 8 6 1 0 36 0 6 6 17 31 0 0 0 7 0 0 36 10 1 7 7 11 31 0 3 3 4 0 0 36 0 4 4 12 31 0 9 9 5 1 0 36 0 5 5 21 5 32 10 
ELSE[ ]\011/* Else */
MPPEM[ ]\011/* MeasurePixelPerEm */
PUSHB[ ]\011/* 1 value pushed */
108 
LT[ ]\011/* LessThan */
IF[ ]\011/* If */
NPUSHB[ ]\011/* 67 values pushed */
27 1 1 0 11 1 3 2 2 30 0 6 0 8 0 6 8 1 0 38 10 1 7 0 0 1 7 0 0 0 38 0 1 0 2 3 1 2 0 0 38 0 3 3 4 0 0 36 0 4 4 15 31 0 9 9 5 1 0 36 0 5 5 21 5 32 8 
ELSE[ ]\011/* Else */
NPUSHB[ ]\011/* 74 values pushed */
27 1 1 0 11 1 3 2 2 30 0 6 0 8 0 6 8 1 0 38 10 1 7 0 0 1 7 0 0 0 38 0 1 0 2 3 1 2 0 0 38 0 9 4 5 9 1 0 35 0 3 0 4 5 3 4 0 0 38 0 9 9 5 1 0 36 0 5 9 5 1 0 33 8 
EIF[ ]\011/* EndIf */
EIF[ ]\011/* EndIf */
EIF[ ]\011/* EndIf */
EIF[ ]\011/* EndIf */
EIF[ ]\011/* EndIf */
EIF[ ]\011/* EndIf */
PUSHB[ ]\011/* 1 value pushed */
56 
CALL[ ]\011/* CallFunction */";
};
width = 2192;
}
);
note = OE;
unicode = 0152;
},
{
glyphname = P;
layers = (
{
layerId = "35A30917-2BE5-44A3-8659-B24E5BB0D762";
paths = (
{
closed = 1;
nodes = (
"617 536 LINE SMOOTH",
"789 536 OFFCURVE",
"923.5 583 OFFCURVE",
"1013.5 663 CURVE SMOOTH",
"1103.5 743 OFFCURVE",
"1151 855.667 OFFCURVE",
"1151 989 CURVE SMOOTH",
"1151 1123.667 OFFCURVE",
"1108 1234.667 OFFCURVE",
"1020 1312 CURVE SMOOTH",
"932 1389.333 OFFCURVE",
"798.333 1433 OFFCURVE",
"617 1433 CURVE SMOOTH",
"194 1433 LINE",
"194 0 LINE",
"387 0 LINE",
"387 536 LINE"
);
},
{
closed = 1;
nodes = (
"387 1280 LINE",
"617 1280 LINE SMOOTH",
"845 1280 OFFCURVE",
"957 1171.667 OFFCURVE",
"957 989 CURVE SMOOTH",
"957 901 OFFCURVE",
"927.333 826.167 OFFCURVE",
"870 773.5 CURVE SMOOTH",
"812.667 720.833 OFFCURVE",
"727.667 690 OFFCURVE",
"617 690 CURVE SMOOTH",
"387 690 LINE"
);
}
);
userData = {
assembly = "NPUSHB[ ]\011/* 16 values pushed */
0 0 25 23 17 15 0 14 0 13 5 3 2 1 6 7 
CALL[ ]\011/* CallFunction */
MPPEM[ ]\011/* MeasurePixelPerEm */
PUSHB[ ]\011/* 1 value pushed */
95 
LT[ ]\011/* LessThan */
IF[ ]\011/* If */
NPUSHB[ ]\011/* 30 values pushed */
0 3 5 1 2 0 3 2 1 0 38 0 4 4 1 1 0 36 0 1 1 11 31 0 0 0 12 0 32 4 
ELSE[ ]\011/* Else */
MPPEM[ ]\011/* MeasurePixelPerEm */
PUSHB[ ]\011/* 1 value pushed */
108 
LT[ ]\011/* LessThan */
IF[ ]\011/* If */
NPUSHB[ ]\011/* 28 values pushed */
0 1 0 4 3 1 4 1 0 38 0 3 5 1 2 0 3 2 1 0 38 0 0 0 15 0 32 3 
ELSE[ ]\011/* Else */
NPUSHB[ ]\011/* 39 values pushed */
0 0 2 0 53 0 1 0 4 3 1 4 1 0 38 0 3 2 2 3 1 0 35 0 3 3 2 1 0 36 5 1 2 3 2 1 0 33 5 
EIF[ ]\011/* EndIf */
EIF[ ]\011/* EndIf */
PUSHB[ ]\011/* 1 value pushed */
56 
CALL[ ]\011/* CallFunction */";
};
width = 1222;
}
);
note = P;
unicode = 0050;
},
{
glyphname = Thorn;
layers = (
{
layerId = "35A30917-2BE5-44A3-8659-B24E5BB0D762";
paths = (
{
closed = 1;
nodes = (
"617 272 LINE SMOOTH",
"789 272 OFFCURVE",
"923.5 319 OFFCURVE",
"1013.5 399 CURVE SMOOTH",
"1103.5 479 OFFCURVE",
"1151 591.667 OFFCURVE",
"1151 725 CURVE SMOOTH",
"1151 859.667 OFFCURVE",
"1108 970.667 OFFCURVE",
"1020 1048 CURVE SMOOTH",
"932 1125.333 OFFCURVE",
"798.333 1169 OFFCURVE",
"617 1169 CURVE SMOOTH",
"387 1169 LINE",
"387 1433 LINE",
"194 1433 LINE",
"194 0 LINE",
"387 0 LINE",
"387 272 LINE"
);
},
{
closed = 1;
nodes = (
"387 1016 LINE",
"617 1016 LINE SMOOTH",
"845 1016 OFFCURVE",
"957 907.667 OFFCURVE",
"957 725 CURVE SMOOTH",
"957 637 OFFCURVE",
"927.333 562.167 OFFCURVE",
"870 509.5 CURVE SMOOTH",
"812.667 456.833 OFFCURVE",
"727.667 426 OFFCURVE",
"617 426 CURVE SMOOTH",
"387 426 LINE"
);
}
);
userData = {
assembly = "NPUSHB[ ]\011/* 18 values pushed */
0 0 27 25 19 17 0 16 0 15 7 5 4 3 2 1 7 7 
CALL[ ]\011/* CallFunction */
MPPEM[ ]\011/* MeasurePixelPerEm */
PUSHB[ ]\011/* 1 value pushed */
95 
LT[ ]\011/* LessThan */
IF[ ]\011/* If */
NPUSHB[ ]\011/* 33 values pushed */
0 2 0 5 4 2 5 1 0 38 0 4 6 1 3 0 4 3 1 0 38 0 1 1 11 31 0 0 0 12 0 32 4 
ELSE[ ]\011/* Else */
MPPEM[ ]\011/* MeasurePixelPerEm */
PUSHB[ ]\011/* 1 value pushed */
108 
LT[ ]\011/* LessThan */
IF[ ]\011/* If */
NPUSHB[ ]\011/* 35 values pushed */
0 2 0 5 4 2 5 1 0 38 0 4 6 1 3 0 4 3 1 0 38 0 1 1 0 0 0 36 0 0 0 15 0 32 4 
ELSE[ ]\011/* Else */
NPUSHB[ ]\011/* 44 values pushed */
0 1 2 0 1 0 0 35 0 2 0 5 4 2 5 1 0 38 0 4 6 1 3 0 4 3 1 0 38 0 1 1 0 0 0 36 0 0 1 0 0 0 33 5 
EIF[ ]\011/* EndIf */
EIF[ ]\011/* EndIf */
PUSHB[ ]\011/* 1 value pushed */
56 
CALL[ ]\011/* CallFunction */";
};
width = 1222;
}
);
note = Thorn;
unicode = 00DE;
},
{
glyphname = Q;
layers = (
{
layerId = "35A30917-2BE5-44A3-8659-B24E5BB0D762";
paths = (
{
closed = 1;
nodes = (
"1505 930.667 OFFCURVE",
"1434 1113.5 OFFCURVE",
"1310 1243.5 CURVE SMOOTH",
"1186 1373.5 OFFCURVE",
"1008.667 1449 OFFCURVE",
"798 1449 CURVE SMOOTH",
"587.333 1449 OFFCURVE",
"411 1373.5 OFFCURVE",
"287 1243.5 CURVE SMOOTH",
"163 1113.5 OFFCURVE",
"92 930.667 OFFCURVE",
"92 716 CURVE SMOOTH",
"92 501.333 OFFCURVE",
"163 318.333 OFFCURVE",
"287 189 CURVE SMOOTH",
"411 59.667 OFFCURVE",
"587.333 -15 OFFCURVE",
"798 -15 CURVE SMOOTH",
"887.333 -15 OFFCURVE",
"969 -1 OFFCURVE",
"1045 23 CURVE",
"1297 -251 LINE SMOOTH",
"1327.667 -284.333 OFFCURVE",
"1364 -296 OFFCURVE",
"1412 -296 CURVE SMOOTH",
"1572 -296 LINE",
"1204 101 LINE",
"1297.333 163.667 OFFCURVE",
"1373 249.833 OFFCURVE",
"1425 354.5 CURVE SMOOTH",
"1477 459.167 OFFCURVE",
"1505 581.333 OFFCURVE",
"1505 716 CURVE SMOOTH"
);
},
{
closed = 1;
nodes = (
"1306 540 OFFCURVE",
"1256 399.167 OFFCURVE",
"1168 302.5 CURVE SMOOTH",
"1080 205.833 OFFCURVE",
"952.667 153 OFFCURVE",
"798 153 CURVE SMOOTH",
"644.667 153 OFFCURVE",
"517.167 205.833 OFFCURVE",
"428.5 302.5 CURVE SMOOTH",
"339.833 399.167 OFFCURVE",
"290 540 OFFCURVE",
"290 716 CURVE SMOOTH",
"290 892 OFFCURVE",
"339.833 1033.833 OFFCURVE",
"428.5 1130.5 CURVE SMOOTH",
"517.167 1227.167 OFFCURVE",
"644.667 1281 OFFCURVE",
"798 1281 CURVE SMOOTH",
"952.667 1281 OFFCURVE",
"1080 1227.167 OFFCURVE",
"1168 1130.5 CURVE SMOOTH",
"1256 1033.833 OFFCURVE",
"1306 892 OFFCURVE",
"1306 716 CURVE SMOOTH"
);
}
);
userData = {
assembly = "NPUSHB[ ]\011/* 12 values pushed */
45 43 35 33 25 23 15 13 8 6 5 7 
CALL[ ]\011/* CallFunction */
MPPEM[ ]\011/* MeasurePixelPerEm */
PUSHB[ ]\011/* 1 value pushed */
9 
LT[ ]\011/* LessThan */
IF[ ]\011/* If */
NPUSHB[ ]\011/* 38 values pushed */
11 5 2 1 4 1 30 0 0 1 0 53 0 3 3 2 1 0 36 0 2 2 17 31 0 4 4 1 1 0 36 0 1 1 18 1 32 6 
ELSE[ ]\011/* Else */
MPPEM[ ]\011/* MeasurePixelPerEm */
PUSHB[ ]\011/* 1 value pushed */
21 
LT[ ]\011/* LessThan */
IF[ ]\011/* If */
NPUSHB[ ]\011/* 38 values pushed */
11 5 2 1 4 1 30 0 3 3 2 1 0 36 0 2 2 17 31 0 4 4 1 1 0 36 0 1 1 18 31 0 0 0 16 0 32 6 
ELSE[ ]\011/* Else */
MPPEM[ ]\011/* MeasurePixelPerEm */
PUSHB[ ]\011/* 1 value pushed */
95 
LT[ ]\011/* LessThan */
IF[ ]\011/* If */
NPUSHB[ ]\011/* 38 values pushed */
11 5 2 1 4 1 30 0 0 1 0 53 0 3 3 2 1 0 36 0 2 2 17 31 0 4 4 1 1 0 36 0 1 1 18 1 32 6 
ELSE[ ]\011/* Else */
MPPEM[ ]\011/* MeasurePixelPerEm */
PUSHB[ ]\011/* 1 value pushed */
108 
LT[ ]\011/* LessThan */
IF[ ]\011/* If */
NPUSHB[ ]\011/* 36 values pushed */
11 5 2 1 4 1 30 0 0 1 0 53 0 2 0 3 4 2 3 1 0 38 0 4 4 1 1 0 36 0 1 1 21 1 32 5 
ELSE[ ]\011/* Else */
NPUSHB[ ]\011/* 45 values pushed */
11 5 2 1 4 1 30 0 0 1 0 53 0 2 0 3 4 2 3 1 0 38 0 4 1 1 4 1 0 35 0 4 4 1 1 0 36 0 1 4 1 1 0 33 6 
EIF[ ]\011/* EndIf */
EIF[ ]\011/* EndIf */
EIF[ ]\011/* EndIf */
EIF[ ]\011/* EndIf */
PUSHB[ ]\011/* 1 value pushed */
56 
CALL[ ]\011/* CallFunction */";
};
width = 1596;
}
);
note = Q;
unicode = 0051;
},
{
glyphname = R;
layers = (
{
layerId = "35A30917-2BE5-44A3-8659-B24E5BB0D762";
paths = (
{
closed = 1;
nodes = (
"534 598 LINE SMOOTH",
"587.333 598 OFFCURVE",
"608.333 585 OFFCURVE",
"631 553 CURVE SMOOTH",
"1003 41 LINE",
"1019.667 13.667 OFFCURVE",
"1045.667 0 OFFCURVE",
"1081 0 CURVE SMOOTH",
"1253 0 LINE",
"835 569 LINE SMOOTH",
"816.333 595.667 OFFCURVE",
"795 616 OFFCURVE",
"771 630 CURVE",
"881.667 655.333 OFFCURVE",
"969.833 705.5 OFFCURVE",
"1030.5 775.5 CURVE SMOOTH",
"1091.167 845.5 OFFCURVE",
"1124 934.667 OFFCURVE",
"1124 1036 CURVE SMOOTH",
"1124 1157.333 OFFCURVE",
"1083.5 1256.667 OFFCURVE",
"997.5 1326 CURVE SMOOTH",
"911.5 1395.333 OFFCURVE",
"780.333 1433 OFFCURVE",
"599 1433 CURVE SMOOTH",
"194 1433 LINE",
"194 0 LINE",
"387 0 LINE",
"387 598 LINE"
);
},
{
closed = 1;
nodes = (
"387 1280 LINE",
"599 1280 LINE SMOOTH",
"821.667 1280 OFFCURVE",
"935 1192.667 OFFCURVE",
"935 1022 CURVE SMOOTH",
"935 938 OFFCURVE",
"905.5 867.5 OFFCURVE",
"847.5 817.5 CURVE SMOOTH",
"789.5 767.5 OFFCURVE",
"703.333 739 OFFCURVE",
"590 739 CURVE SMOOTH",
"387 739 LINE"
);
}
);
userData = {
assembly = "NPUSHB[ ]\011/* 18 values pushed */
0 0 35 33 27 25 0 24 0 23 19 17 5 3 2 1 7 7 
CALL[ ]\011/* CallFunction */
MPPEM[ ]\011/* MeasurePixelPerEm */
PUSHB[ ]\011/* 1 value pushed */
95 
LT[ ]\011/* LessThan */
IF[ ]\011/* If */
NPUSHB[ ]\011/* 37 values pushed */
14 1 3 4 1 30 0 4 6 1 3 0 4 3 1 0 38 0 5 5 1 1 0 36 0 1 1 11 31 2 1 0 0 12 0 32 5 
ELSE[ ]\011/* Else */
MPPEM[ ]\011/* MeasurePixelPerEm */
PUSHB[ ]\011/* 1 value pushed */
108 
LT[ ]\011/* LessThan */
IF[ ]\011/* If */
NPUSHB[ ]\011/* 35 values pushed */
14 1 3 4 1 30 0 1 0 5 4 1 5 1 0 38 0 4 6 1 3 0 4 3 1 0 38 2 1 0 0 15 0 32 4 
ELSE[ ]\011/* Else */
MPPEM[ ]\011/* MeasurePixelPerEm */
PUSHB[ ]\011/* 1 value pushed */
232 
LT[ ]\011/* LessThan */
IF[ ]\011/* If */
NPUSHB[ ]\011/* 46 values pushed */
14 1 3 4 1 30 2 1 0 3 0 53 0 1 0 5 4 1 5 1 0 38 0 4 3 3 4 1 0 35 0 4 4 3 1 0 36 6 1 3 4 3 1 0 33 6 
ELSE[ ]\011/* Else */
NPUSHB[ ]\011/* 52 values pushed */
14 1 3 4 1 30 0 2 3 0 3 2 0 50 0 0 0 51 0 1 0 5 4 1 5 1 0 38 0 4 3 3 4 1 0 35 0 4 4 3 1 0 36 6 1 3 4 3 1 0 33 7 
EIF[ ]\011/* EndIf */
EIF[ ]\011/* EndIf */
EIF[ ]\011/* EndIf */
PUSHB[ ]\011/* 1 value pushed */
56 
CALL[ ]\011/* CallFunction */";
};
width = 1288;
}
);
note = R;
unicode = 0052;
},
{
glyphname = S;
layers = (
{
layerId = "35A30917-2BE5-44A3-8659-B24E5BB0D762";
paths = (
{
closed = 1;
nodes = (
"955 1301 LINE",
"856.333 1397 OFFCURVE",
"723 1449 OFFCURVE",
"563 1449 CURVE SMOOTH",
"420.333 1449 OFFCURVE",
"309.667 1401.333 OFFCURVE",
"235 1328 CURVE SMOOTH",
"160.333 1254.667 OFFCURVE",
"120 1156.333 OFFCURVE",
"120 1055 CURVE SMOOTH",
"120 928.333 OFFCURVE",
"163 845.333 OFFCURVE",
"227 788 CURVE SMOOTH",
"291 730.667 OFFCURVE",
"376.5 697.833 OFFCURVE",
"462.5 670.5 CURVE SMOOTH",
"537.218 646.752 OFFCURVE",
"640.073 616.791 OFFCURVE",
"698 583 CURVE SMOOTH",
"762 545.667 OFFCURVE",
"805 493.667 OFFCURVE",
"805 407 CURVE SMOOTH",
"805 328.333 OFFCURVE",
"777.5 263.5 OFFCURVE",
"727.5 217.5 CURVE SMOOTH",
"677.5 171.5 OFFCURVE",
"605 145 OFFCURVE",
"513 145 CURVE SMOOTH",
"402.333 145 OFFCURVE",
"328.5 181 OFFCURVE",
"274.5 217 CURVE SMOOTH",
"232.356 245.096 OFFCURVE",
"184.779 289 OFFCURVE",
"159 289 CURVE SMOOTH",
"140.333 289 OFFCURVE",
"124.667 277.667 OFFCURVE",
"114 263 CURVE",
"58 171 LINE",
"166 56.333 OFFCURVE",
"321.667 -16 OFFCURVE",
"507 -16 CURVE SMOOTH",
"659 -16 OFFCURVE",
"779.5 33.667 OFFCURVE",
"861.5 115 CURVE SMOOTH",
"943.5 196.333 OFFCURVE",
"987 309.667 OFFCURVE",
"987 435 CURVE SMOOTH",
"987 553.667 OFFCURVE",
"944.167 632 OFFCURVE",
"879.5 688 CURVE SMOOTH",
"814.833 744 OFFCURVE",
"729.5 777.667 OFFCURVE",
"643.5 807 CURVE SMOOTH",
"569.983 832.076 OFFCURVE",
"464.984 864.813 OFFCURVE",
"407.5 898 CURVE SMOOTH",
"342.833 935.333 OFFCURVE",
"300 985 OFFCURVE",
"300 1065 CURVE SMOOTH",
"300 1197.331 OFFCURVE",
"401.753 1288 OFFCURVE",
"566 1288 CURVE SMOOTH",
"658 1288 OFFCURVE",
"720.5 1260.833 OFFCURVE",
"766.5 1233.5 CURVE SMOOTH",
"801.764 1212.546 OFFCURVE",
"842.348 1179 OFFCURVE",
"863 1179 CURVE SMOOTH",
"884.333 1179 OFFCURVE",
"896 1189 OFFCURVE",
"908 1209 CURVE"
);
}
);
userData = {
assembly = "NPUSHB[ ]\011/* 14 values pushed */
59 57 40 38 35 33 28 26 9 7 4 2 6 7 
CALL[ ]\011/* CallFunction */
MPPEM[ ]\011/* MeasurePixelPerEm */
PUSHB[ ]\011/* 1 value pushed */
95 
LT[ ]\011/* LessThan */
IF[ ]\011/* If */
NPUSHB[ ]\011/* 51 values pushed */
61 1 1 5 30 1 4 3 2 30 0 0 1 3 1 0 3 50 0 3 4 1 3 4 48 0 1 1 5 1 0 36 0 5 5 17 31 0 4 4 2 1 0 36 0 2 2 18 2 32 7 
ELSE[ ]\011/* Else */
MPPEM[ ]\011/* MeasurePixelPerEm */
PUSHB[ ]\011/* 1 value pushed */
108 
LT[ ]\011/* LessThan */
IF[ ]\011/* If */
NPUSHB[ ]\011/* 49 values pushed */
61 1 1 5 30 1 4 3 2 30 0 0 1 3 1 0 3 50 0 3 4 1 3 4 48 0 5 0 1 0 5 1 1 0 38 0 4 4 2 1 0 36 0 2 2 21 2 32 6 
ELSE[ ]\011/* Else */
NPUSHB[ ]\011/* 58 values pushed */
61 1 1 5 30 1 4 3 2 30 0 0 1 3 1 0 3 50 0 3 4 1 3 4 48 0 5 0 1 0 5 1 1 0 38 0 4 2 2 4 1 0 35 0 4 4 2 1 0 36 0 2 4 2 1 0 33 7 
EIF[ ]\011/* EndIf */
EIF[ ]\011/* EndIf */
PUSHB[ ]\011/* 1 value pushed */
56 
CALL[ ]\011/* CallFunction */";
};
width = 1060;
}
);
note = S;
unicode = 0053;
},
{
glyphname = T;
layers = (
{
layerId = "35A30917-2BE5-44A3-8659-B24E5BB0D762";
paths = (
{
closed = 1;
nodes = (
"28 1433 LINE",
"28 1270 LINE",
"493 1270 LINE",
"493 0 LINE",
"687 0 LINE",
"687 1270 LINE",
"1150 1270 LINE",
"1150 1433 LINE"
);
}
);
userData = {
assembly = "NPUSHB[ ]\011/* 14 values pushed */
0 0 0 7 0 7 6 5 4 3 2 1 5 7 
CALL[ ]\011/* CallFunction */
MPPEM[ ]\011/* MeasurePixelPerEm */
PUSHB[ ]\011/* 1 value pushed */
95 
LT[ ]\011/* LessThan */
IF[ ]\011/* If */
NPUSHB[ ]\011/* 21 values pushed */
2 1 0 0 3 0 0 36 4 1 3 3 11 31 0 1 1 12 1 32 3 
ELSE[ ]\011/* Else */
MPPEM[ ]\011/* MeasurePixelPerEm */
PUSHB[ ]\011/* 1 value pushed */
108 
LT[ ]\011/* LessThan */
IF[ ]\011/* If */
NPUSHB[ ]\011/* 19 values pushed */
4 1 3 2 1 0 1 3 0 0 0 38 0 1 1 15 1 32 2 
ELSE[ ]\011/* Else */
MPPEM[ ]\011/* MeasurePixelPerEm */
PUSHB[ ]\011/* 1 value pushed */
232 
LT[ ]\011/* LessThan */
IF[ ]\011/* If */
NPUSHB[ ]\011/* 31 values pushed */
0 1 0 1 53 4 1 3 0 0 3 0 0 35 4 1 3 3 0 0 0 36 2 1 0 3 0 0 0 33 4 
ELSE[ ]\011/* Else */
NPUSHB[ ]\011/* 37 values pushed */
0 2 3 0 0 2 42 0 1 0 1 53 4 1 3 2 0 3 0 2 35 4 1 3 3 0 0 0 36 0 0 3 0 0 0 33 5 
EIF[ ]\011/* EndIf */
EIF[ ]\011/* EndIf */
EIF[ ]\011/* EndIf */
PUSHB[ ]\011/* 1 value pushed */
56 
CALL[ ]\011/* CallFunction */";
};
width = 1180;
}
);
note = T;
unicode = 0054;
},
{
glyphname = U;
layers = (
{
layerId = "35A30917-2BE5-44A3-8659-B24E5BB0D762";
paths = (
{
closed = 1;
nodes = (
"612.333 154 OFFCURVE",
"517.167 197 OFFCURVE",
"452.5 269 CURVE SMOOTH",
"387.833 341 OFFCURVE",
"353 443 OFFCURVE",
"353 563 CURVE SMOOTH",
"353 1433 LINE",
"160 1433 LINE",
"160 562 LINE SMOOTH",
"160 396.667 OFFCURVE",
"214.333 251.833 OFFCURVE",
"313 148.5 CURVE SMOOTH",
"411.667 45.167 OFFCURVE",
"555 -17 OFFCURVE",
"731 -17 CURVE SMOOTH",
"907 -17 OFFCURVE",
"1050.5 45.167 OFFCURVE",
"1148.5 148.5 CURVE SMOOTH",
"1246.5 251.833 OFFCURVE",
"1301 396.667 OFFCURVE",
"1301 562 CURVE SMOOTH",
"1301 1433 LINE",
"1108 1433 LINE",
"1108 562 LINE SMOOTH",
"1108 442 OFFCURVE",
"1073.167 340 OFFCURVE",
"1008.5 268 CURVE SMOOTH",
"943.833 196 OFFCURVE",
"849.667 154 OFFCURVE",
"731 154 CURVE SMOOTH"
);
}
);
userData = {
assembly = "NPUSHB[ ]\011/* 14 values pushed */
1 0 20 19 14 12 7 6 0 25 1 25 5 7 
CALL[ ]\011/* CallFunction */
MPPEM[ ]\011/* MeasurePixelPerEm */
PUSHB[ ]\011/* 1 value pushed */
95 
LT[ ]\011/* LessThan */
IF[ ]\011/* If */
NPUSHB[ ]\011/* 21 values pushed */
3 1 1 1 11 31 4 1 0 0 2 1 0 36 0 2 2 18 2 32 3 
ELSE[ ]\011/* Else */
MPPEM[ ]\011/* MeasurePixelPerEm */
PUSHB[ ]\011/* 1 value pushed */
108 
LT[ ]\011/* LessThan */
IF[ ]\011/* If */
NPUSHB[ ]\011/* 21 values pushed */
3 1 1 0 1 52 4 1 0 0 2 1 0 36 0 2 2 21 2 32 3 
ELSE[ ]\011/* Else */
MPPEM[ ]\011/* MeasurePixelPerEm */
PUSHB[ ]\011/* 1 value pushed */
232 
LT[ ]\011/* LessThan */
IF[ ]\011/* If */
NPUSHB[ ]\011/* 31 values pushed */
3 1 1 0 1 52 4 1 0 2 2 0 1 0 35 4 1 0 0 2 1 0 36 0 2 0 2 1 0 33 4 
ELSE[ ]\011/* Else */
NPUSHB[ ]\011/* 35 values pushed */
0 1 3 1 52 0 3 0 3 52 4 1 0 2 2 0 1 0 35 4 1 0 0 2 1 0 36 0 2 0 2 1 0 33 5 
EIF[ ]\011/* EndIf */
EIF[ ]\011/* EndIf */
EIF[ ]\011/* EndIf */
PUSHB[ ]\011/* 1 value pushed */
56 
CALL[ ]\011/* CallFunction */";
};
width = 1460;
}
);
note = U;
unicode = 0055;
},
{
glyphname = V;
layers = (
{
layerId = "35A30917-2BE5-44A3-8659-B24E5BB0D762";
paths = (
{
closed = 1;
nodes = (
"592 0 LINE",
"767 0 LINE",
"1351 1433 LINE",
"1195 1433 LINE SMOOTH",
"1161.667 1433 OFFCURVE",
"1138.333 1409.667 OFFCURVE",
"1129 1387 CURVE SMOOTH",
"726 376 LINE SMOOTH",
"707.333 330.667 OFFCURVE",
"694 276.333 OFFCURVE",
"682 219 CURVE",
"667.333 276.333 OFFCURVE",
"652.667 330.667 OFFCURVE",
"634 376 CURVE SMOOTH",
"229 1387 LINE SMOOTH",
"218.333 1413.667 OFFCURVE",
"197.667 1433 OFFCURVE",
"163 1433 CURVE SMOOTH",
"8 1433 LINE"
);
}
);
userData = {
assembly = "NPUSHB[ ]\011/* 8 values pushed */
18 17 16 14 2 0 3 7 
CALL[ ]\011/* CallFunction */
MPPEM[ ]\011/* MeasurePixelPerEm */
PUSHB[ ]\011/* 1 value pushed */
95 
LT[ ]\011/* LessThan */
IF[ ]\011/* If */
NPUSHB[ ]\011/* 19 values pushed */
8 1 2 0 1 30 1 1 0 0 11 31 0 2 2 12 2 32 3 
ELSE[ ]\011/* Else */
MPPEM[ ]\011/* MeasurePixelPerEm */
PUSHB[ ]\011/* 1 value pushed */
108 
LT[ ]\011/* LessThan */
IF[ ]\011/* If */
NPUSHB[ ]\011/* 19 values pushed */
8 1 2 0 1 30 1 1 0 2 0 52 0 2 2 15 2 32 3 
ELSE[ ]\011/* Else */
MPPEM[ ]\011/* MeasurePixelPerEm */
PUSHB[ ]\011/* 1 value pushed */
232 
LT[ ]\011/* LessThan */
IF[ ]\011/* If */
NPUSHB[ ]\011/* 17 values pushed */
8 1 2 0 1 30 1 1 0 2 0 52 0 2 2 43 3 
ELSE[ ]\011/* Else */
NPUSHB[ ]\011/* 21 values pushed */
8 1 2 1 1 30 0 0 1 0 52 0 1 2 1 52 0 2 2 43 4 
EIF[ ]\011/* EndIf */
EIF[ ]\011/* EndIf */
EIF[ ]\011/* EndIf */
PUSHB[ ]\011/* 1 value pushed */
56 
CALL[ ]\011/* CallFunction */";
};
width = 1360;
}
);
note = V;
unicode = 0056;
},
{
glyphname = W;
layers = (
{
layerId = "35A30917-2BE5-44A3-8659-B24E5BB0D762";
paths = (
{
closed = 1;
nodes = (
"461 0 LINE",
"635 0 LINE",
"1000 1093 LINE SMOOTH",
"1003.333 1103 OFFCURVE",
"1006.5 1114.167 OFFCURVE",
"1009.5 1126.5 CURVE SMOOTH",
"1012.5 1138.833 OFFCURVE",
"1015.667 1151.667 OFFCURVE",
"1019 1165 CURVE",
"1025 1137.667 OFFCURVE",
"1031.667 1113.667 OFFCURVE",
"1039 1093 CURVE SMOOTH",
"1402 0 LINE",
"1576 0 LINE",
"2023 1433 LINE",
"1872 1433 LINE SMOOTH",
"1838.667 1433 OFFCURVE",
"1813.667 1411 OFFCURVE",
"1807 1387 CURVE SMOOTH",
"1510 391 LINE SMOOTH",
"1504.667 373.667 OFFCURVE",
"1500.333 355 OFFCURVE",
"1497 335 CURVE SMOOTH",
"1493.667 315 OFFCURVE",
"1490 294 OFFCURVE",
"1486 272 CURVE",
"1476.667 316.667 OFFCURVE",
"1466 356.333 OFFCURVE",
"1454 391 CURVE SMOOTH",
"1119 1387 LINE SMOOTH",
"1109.667 1413.667 OFFCURVE",
"1087.667 1433 OFFCURVE",
"1053 1433 CURVE SMOOTH",
"997 1433 LINE SMOOTH",
"963.667 1433 OFFCURVE",
"939 1409.667 OFFCURVE",
"931 1387 CURVE SMOOTH",
"594 391 LINE SMOOTH",
"582 356.333 OFFCURVE",
"573.333 313.333 OFFCURVE",
"564 268 CURVE",
"556 313.333 OFFCURVE",
"547.667 355 OFFCURVE",
"537 391 CURVE SMOOTH",
"241 1387 LINE SMOOTH",
"233 1413.667 OFFCURVE",
"209.667 1433 OFFCURVE",
"175 1433 CURVE SMOOTH",
"14 1433 LINE"
);
}
);
userData = {
assembly = "NPUSHB[ ]\011/* 12 values pushed */
40 39 32 31 30 28 17 14 2 0 5 7 
CALL[ ]\011/* CallFunction */
MPPEM[ ]\011/* MeasurePixelPerEm */
PUSHB[ ]\011/* 1 value pushed */
95 
LT[ ]\011/* LessThan */
IF[ ]\011/* If */
NPUSHB[ ]\011/* 23 values pushed */
35 22 8 3 3 0 1 30 2 1 2 0 0 11 31 4 1 3 3 12 3 32 3 
ELSE[ ]\011/* Else */
MPPEM[ ]\011/* MeasurePixelPerEm */
PUSHB[ ]\011/* 1 value pushed */
108 
LT[ ]\011/* LessThan */
IF[ ]\011/* If */
NPUSHB[ ]\011/* 23 values pushed */
35 22 8 3 3 0 1 30 2 1 2 0 3 0 52 4 1 3 3 15 3 32 3 
ELSE[ ]\011/* Else */
MPPEM[ ]\011/* MeasurePixelPerEm */
PUSHB[ ]\011/* 1 value pushed */
232 
LT[ ]\011/* LessThan */
IF[ ]\011/* If */
NPUSHB[ ]\011/* 21 values pushed */
35 22 8 3 3 0 1 30 2 1 2 0 3 0 52 4 1 3 3 43 3 
ELSE[ ]\011/* Else */
NPUSHB[ ]\011/* 33 values pushed */
35 22 8 3 4 2 1 30 0 0 1 0 52 0 1 2 1 52 0 2 4 2 52 0 4 3 4 52 0 3 3 43 6 
EIF[ ]\011/* EndIf */
EIF[ ]\011/* EndIf */
EIF[ ]\011/* EndIf */
PUSHB[ ]\011/* 1 value pushed */
56 
CALL[ ]\011/* CallFunction */";
};
width = 2038;
}
);
note = W;
unicode = 0057;
},
{
glyphname = X;
layers = (
{
layerId = "35A30917-2BE5-44A3-8659-B24E5BB0D762";
paths = (
{
closed = 1;
nodes = (
"14 0 LINE",
"194 0 LINE SMOOTH",
"222 0 OFFCURVE",
"235 18.333 OFFCURVE",
"247 37 CURVE SMOOTH",
"621 598 LINE",
"628.333 610.667 OFFCURVE",
"634.333 624 OFFCURVE",
"639 638 CURVE",
"1023 37 LINE",
"1033.667 18.333 OFFCURVE",
"1048.667 0 OFFCURVE",
"1078 0 CURVE SMOOTH",
"1270 0 LINE",
"779 745 LINE",
"1254 1433 LINE",
"1069 1433 LINE SMOOTH",
"1049 1433 OFFCURVE",
"1036 1420.667 OFFCURVE",
"1024 1402 CURVE SMOOTH",
"671 878 LINE",
"661.667 861.333 OFFCURVE",
"654.667 846 OFFCURVE",
"650 832 CURVE",
"276 1406 LINE SMOOTH",
"265.333 1423.333 OFFCURVE",
"255 1433 OFFCURVE",
"227 1433 CURVE SMOOTH",
"34 1433 LINE",
"507 736 LINE"
);
}
);
userData = {
assembly = "NPUSHB[ ]\011/* 10 values pushed */
27 25 17 15 13 11 3 1 4 7 
CALL[ ]\011/* CallFunction */
MPPEM[ ]\011/* MeasurePixelPerEm */
PUSHB[ ]\011/* 1 value pushed */
95 
LT[ ]\011/* LessThan */
IF[ ]\011/* If */
NPUSHB[ ]\011/* 21 values pushed */
14 0 2 2 0 1 30 1 1 0 0 11 31 3 1 2 2 12 2 32 3 
ELSE[ ]\011/* Else */
MPPEM[ ]\011/* MeasurePixelPerEm */
PUSHB[ ]\011/* 1 value pushed */
108 
LT[ ]\011/* LessThan */
IF[ ]\011/* If */
NPUSHB[ ]\011/* 23 values pushed */
14 0 2 2 0 1 30 1 1 0 0 2 1 0 36 3 1 2 2 15 2 32 3 
ELSE[ ]\011/* Else */
MPPEM[ ]\011/* MeasurePixelPerEm */
PUSHB[ ]\011/* 1 value pushed */
232 
LT[ ]\011/* LessThan */
IF[ ]\011/* If */
NPUSHB[ ]\011/* 33 values pushed */
14 0 2 2 0 1 30 1 1 0 2 2 0 1 0 35 1 1 0 0 2 1 0 36 3 1 2 0 2 1 0 33 4 
ELSE[ ]\011/* Else */
NPUSHB[ ]\011/* 40 values pushed */
14 0 2 3 1 1 30 0 1 3 2 1 1 0 35 0 0 0 3 2 0 3 1 0 38 0 1 1 2 1 0 36 0 2 1 2 1 0 33 5 
EIF[ ]\011/* EndIf */
EIF[ ]\011/* EndIf */
EIF[ ]\011/* EndIf */
PUSHB[ ]\011/* 1 value pushed */
56 
CALL[ ]\011/* CallFunction */";
};
width = 1286;
}
);
note = X;
unicode = 0058;
},
{
glyphname = Y;
layers = (
{
layerId = "35A30917-2BE5-44A3-8659-B24E5BB0D762";
paths = (
{
closed = 1;
nodes = (
"1252 1433 LINE",
"1080 1433 LINE SMOOTH",
"1046.667 1433 OFFCURVE",
"1027 1409.333 OFFCURVE",
"1015 1388 CURVE SMOOTH",
"688 831 LINE SMOOTH",
"661.333 785.667 OFFCURVE",
"645.667 745.333 OFFCURVE",
"631 704 CURVE",
"616.333 744 OFFCURVE",
"599.667 784.333 OFFCURVE",
"573 831 CURVE SMOOTH",
"245 1388 LINE SMOOTH",
"230.333 1413.333 OFFCURVE",
"212.667 1433 OFFCURVE",
"178 1433 CURVE SMOOTH",
"8 1433 LINE",
"533 570 LINE",
"533 0 LINE",
"726 0 LINE",
"726 570 LINE"
);
}
);
userData = {
assembly = "NPUSHB[ ]\011/* 8 values pushed */
20 18 6 4 2 1 3 7 
CALL[ ]\011/* CallFunction */
MPPEM[ ]\011/* MeasurePixelPerEm */
PUSHB[ ]\011/* 1 value pushed */
95 
LT[ ]\011/* LessThan */
IF[ ]\011/* If */
NPUSHB[ ]\011/* 21 values pushed */
12 3 0 3 0 1 1 30 2 1 1 1 11 31 0 0 0 12 0 32 3 
ELSE[ ]\011/* Else */
MPPEM[ ]\011/* MeasurePixelPerEm */
PUSHB[ ]\011/* 1 value pushed */
108 
LT[ ]\011/* LessThan */
IF[ ]\011/* If */
NPUSHB[ ]\011/* 21 values pushed */
12 3 0 3 0 1 1 30 2 1 1 0 1 52 0 0 0 15 0 32 3 
ELSE[ ]\011/* Else */
MPPEM[ ]\011/* MeasurePixelPerEm */
PUSHB[ ]\011/* 1 value pushed */
232 
LT[ ]\011/* LessThan */
IF[ ]\011/* If */
NPUSHB[ ]\011/* 19 values pushed */
12 3 0 3 0 1 1 30 2 1 1 0 1 52 0 0 0 43 3 
ELSE[ ]\011/* Else */
NPUSHB[ ]\011/* 23 values pushed */
12 3 0 3 0 2 1 30 0 1 2 1 52 0 2 0 2 52 0 0 0 43 4 
EIF[ ]\011/* EndIf */
EIF[ ]\011/* EndIf */
EIF[ ]\011/* EndIf */
PUSHB[ ]\011/* 1 value pushed */
56 
CALL[ ]\011/* CallFunction */";
};
width = 1258;
}
);
note = Y;
unicode = 0059;
},
{
glyphname = Z;
layers = (
{
layerId = "35A30917-2BE5-44A3-8659-B24E5BB0D762";
paths = (
{
closed = 1;
nodes = (
"124 1433 LINE",
"124 1275 LINE",
"917 1275 LINE",
"105 133 LINE SMOOTH",
"92.333 115 OFFCURVE",
"86 96 OFFCURVE",
"86 76 CURVE SMOOTH",
"86 0 LINE",
"1158 0 LINE",
"1158 158 LINE",
"340 158 LINE",
"1151 1297 LINE SMOOTH",
"1165 1317 OFFCURVE",
"1172 1338.333 OFFCURVE",
"1172 1361 CURVE SMOOTH",
"1172 1433 LINE"
);
}
);
userData = {
assembly = "NPUSHB[ ]\011/* 14 values pushed */
0 0 0 13 0 13 12 11 7 6 5 4 5 7 
CALL[ ]\011/* CallFunction */
MPPEM[ ]\011/* MeasurePixelPerEm */
PUSHB[ ]\011/* 1 value pushed */
95 
LT[ ]\011/* LessThan */
IF[ ]\011/* If */
NPUSHB[ ]\011/* 27 values pushed */
0 2 2 3 0 0 36 4 1 3 3 11 31 0 0 0 1 0 0 36 0 1 1 12 1 32 4 
ELSE[ ]\011/* Else */
MPPEM[ ]\011/* MeasurePixelPerEm */
PUSHB[ ]\011/* 1 value pushed */
108 
LT[ ]\011/* LessThan */
IF[ ]\011/* If */
NPUSHB[ ]\011/* 25 values pushed */
4 1 3 0 2 0 3 2 0 0 38 0 0 0 1 0 0 36 0 1 1 15 1 32 3 
ELSE[ ]\011/* Else */
NPUSHB[ ]\011/* 34 values pushed */
4 1 3 0 2 0 3 2 0 0 38 0 0 1 1 0 0 0 35 0 0 0 1 0 0 36 0 1 0 1 0 0 33 4 
EIF[ ]\011/* EndIf */
EIF[ ]\011/* EndIf */
PUSHB[ ]\011/* 1 value pushed */
56 
CALL[ ]\011/* CallFunction */";
};
width = 1248;
}
);
note = Z;
unicode = 005A;
},
{
glyphname = a;
lastChange = "2020-02-16 18:56:30 +0000";
layers = (
{
layerId = "35A30917-2BE5-44A3-8659-B24E5BB0D762";
paths = (
{
closed = 1;
nodes = (
"890 648 LINE SMOOTH",
"890 761.333 OFFCURVE",
"859 858.333 OFFCURVE",
"799 925 CURVE SMOOTH",
"739 991.667 OFFCURVE",
"650.333 1031 OFFCURVE",
"537 1031 CURVE SMOOTH",
"379.667 1031 OFFCURVE",
"253 978 OFFCURVE",
"141 870 CURVE",
"173 813 LINE SMOOTH",
"183.667 794.333 OFFCURVE",
"202 780 OFFCURVE",
"226 780 CURVE SMOOTH",
"254.338 780 OFFCURVE",
"291.691 810.282 OFFCURVE",
"328.5 833.5 CURVE SMOOTH",
"371.833 860.833 OFFCURVE",
"428.333 887 OFFCURVE",
"515 887 CURVE SMOOTH",
"647 887 OFFCURVE",
"715 805.333 OFFCURVE",
"715 648 CURVE SMOOTH",
"715 569 LINE",
"485.667 563.667 OFFCURVE",
"329.5 524.333 OFFCURVE",
"231.5 467 CURVE SMOOTH",
"133.5 409.667 OFFCURVE",
"92 333 OFFCURVE",
"92 253 CURVE SMOOTH",
"92 161 OFFCURVE",
"124.333 94 OFFCURVE",
"175 50 CURVE SMOOTH",
"225.667 6 OFFCURVE",
"296.333 -16 OFFCURVE",
"375 -16 CURVE SMOOTH",
"529.518 -16 OFFCURVE",
"618.422 37.38 OFFCURVE",
"728 136 CURVE",
"748 42 LINE SMOOTH",
"754.667 7.333 OFFCURVE",
"776.333 0 OFFCURVE",
"811 0 CURVE SMOOTH",
"890 0 LINE"
);
},
{
closed = 1;
nodes = (
"332 109 OFFCURVE",
"263 156.349 OFFCURVE",
"263 261 CURVE SMOOTH",
"263 317 OFFCURVE",
"294 362.667 OFFCURVE",
"366 396 CURVE SMOOTH",
"438 429.333 OFFCURVE",
"551 450.667 OFFCURVE",
"715 456 CURVE",
"715 245 LINE",
"635.434 160.13 OFFCURVE",
"547.413 109 OFFCURVE",
"428 109 CURVE SMOOTH"
);
}
);
userData = {
assembly = "NPUSHB[ ]\011/* 22 values pushed */
43 42 49 48 42 57 43 57 37 35 30 28 25 23 20 19 11 9 2 0 9 7 
CALL[ ]\011/* CallFunction */
MPPEM[ ]\011/* MeasurePixelPerEm */
PUSHB[ ]\011/* 1 value pushed */
30 
LT[ ]\011/* LessThan */
IF[ ]\011/* If */
NPUSHB[ ]\011/* 57 values pushed */
33 1 4 3 47 5 2 6 7 2 30 0 4 3 2 3 4 2 50 0 2 0 7 6 2 7 1 0 38 0 3 3 5 1 0 36 0 5 5 20 31 8 1 6 6 0 1 0 36 1 1 0 0 12 0 32 7 
ELSE[ ]\011/* Else */
MPPEM[ ]\011/* MeasurePixelPerEm */
PUSHB[ ]\011/* 1 value pushed */
95 
LT[ ]\011/* LessThan */
IF[ ]\011/* If */
NPUSHB[ ]\011/* 61 values pushed */
33 1 4 3 47 5 2 6 7 2 30 0 4 3 2 3 4 2 50 0 2 0 7 6 2 7 1 0 38 0 3 3 5 1 0 36 0 5 5 20 31 0 0 0 12 31 8 1 6 6 1 1 0 36 0 1 1 18 1 32 8 
ELSE[ ]\011/* Else */
MPPEM[ ]\011/* MeasurePixelPerEm */
PUSHB[ ]\011/* 1 value pushed */
108 
LT[ ]\011/* LessThan */
IF[ ]\011/* If */
NPUSHB[ ]\011/* 59 values pushed */
33 1 4 3 47 5 2 6 7 2 30 0 4 3 2 3 4 2 50 0 5 0 3 4 5 3 1 0 38 0 2 0 7 6 2 7 1 0 38 0 0 0 15 31 8 1 6 6 1 1 0 36 0 1 1 21 1 32 7 
ELSE[ ]\011/* Else */
NPUSHB[ ]\011/* 72 values pushed */
33 1 4 3 47 5 2 6 7 2 30 0 4 3 2 3 4 2 50 0 0 6 1 6 0 1 50 0 5 0 3 4 5 3 1 0 38 0 2 0 7 6 2 7 1 0 38 8 1 6 0 1 6 1 0 35 8 1 6 6 1 1 0 36 0 1 6 1 1 0 33 8 
EIF[ ]\011/* EndIf */
EIF[ ]\011/* EndIf */
EIF[ ]\011/* EndIf */
PUSHB[ ]\011/* 1 value pushed */
56 
CALL[ ]\011/* CallFunction */";
};
width = 1014;
}
);
note = a;
unicode = 0061;
},
{
glyphname = aogonek;
layers = (
{
layerId = "35A30917-2BE5-44A3-8659-B24E5BB0D762";
paths = (
{
closed = 1;
nodes = (
"890 648 LINE SMOOTH",
"890 761.333 OFFCURVE",
"859 858.333 OFFCURVE",
"799 925 CURVE SMOOTH",
"739 991.667 OFFCURVE",
"650.333 1031 OFFCURVE",
"537 1031 CURVE SMOOTH",
"379.667 1031 OFFCURVE",
"253 978 OFFCURVE",
"141 870 CURVE",
"173 813 LINE",
"185 794.333 OFFCURVE",
"202 780 OFFCURVE",
"226 780 CURVE SMOOTH",
"254.338 780 OFFCURVE",
"291.691 810.282 OFFCURVE",
"328.5 833.5 CURVE SMOOTH",
"371.833 860.833 OFFCURVE",
"428.333 887 OFFCURVE",
"515 887 CURVE SMOOTH",
"647 887 OFFCURVE",
"715 805.333 OFFCURVE",
"715 648 CURVE SMOOTH",
"715 569 LINE",
"485.667 563.667 OFFCURVE",
"329.5 524.333 OFFCURVE",
"231.5 467 CURVE SMOOTH",
"133.5 409.667 OFFCURVE",
"92 333 OFFCURVE",
"92 253 CURVE SMOOTH",
"92 161 OFFCURVE",
"124.333 94 OFFCURVE",
"175 50 CURVE SMOOTH",
"225.667 6 OFFCURVE",
"296.333 -16 OFFCURVE",
"375 -16 CURVE SMOOTH",
"529.518 -16 OFFCURVE",
"618.422 37.38 OFFCURVE",
"728 136 CURVE",
"748 42 LINE",
"754.667 20.667 OFFCURVE",
"766 7.667 OFFCURVE",
"782 3 CURVE",
"702.664 -45.625 OFFCURVE",
"637 -117.097 OFFCURVE",
"637 -197 CURVE SMOOTH",
"637 -285 OFFCURVE",
"708.667 -342 OFFCURVE",
"826 -342 CURVE SMOOTH",
"894 -342 OFFCURVE",
"960 -320.667 OFFCURVE",
"1000 -290 CURVE",
"972 -224 LINE SMOOTH",
"969.333 -217.333 OFFCURVE",
"963.333 -211 OFFCURVE",
"954 -211 CURVE SMOOTH",
"943.525 -211 OFFCURVE",
"896.408 -235 OFFCURVE",
"863 -235 CURVE SMOOTH",
"807 -235 OFFCURVE",
"772 -204.667 OFFCURVE",
"772 -154 CURVE SMOOTH",
"772 -85.611 OFFCURVE",
"834.328 -30.62 OFFCURVE",
"890 0 CURVE"
);
},
{
closed = 1;
nodes = (
"332 109 OFFCURVE",
"263 156.349 OFFCURVE",
"263 261 CURVE SMOOTH",
"263 317 OFFCURVE",
"294 362.667 OFFCURVE",
"366 396 CURVE SMOOTH",
"438 429.333 OFFCURVE",
"551 450.667 OFFCURVE",
"715 456 CURVE",
"715 245 LINE",
"635.434 160.13 OFFCURVE",
"547.413 109 OFFCURVE",
"428 109 CURVE SMOOTH"
);
}
);
userData = {
assembly = "NPUSHB[ ]\011/* 26 values pushed */
69 68 75 74 68 83 69 83 63 61 56 54 51 49 46 45 37 35 21 19 14 12 9 7 11 7 
CALL[ ]\011/* CallFunction */
MPPEM[ ]\011/* MeasurePixelPerEm */
PUSHB[ ]\011/* 1 value pushed */
21 
LT[ ]\011/* LessThan */
IF[ ]\011/* If */
NPUSHB[ ]\011/* 78 values pushed */
59 1 6 5 73 31 2 8 9 28 0 2 3 8 17 1 2 0 4 30 0 6 5 4 5 6 4 50 0 4 0 9 8 4 9 1 0 38 0 5 5 7 1 0 36 0 7 7 20 31 10 1 8 8 3 1 0 36 0 3 3 18 31 1 1 0 0 2 1 0 36 0 2 2 16 2 32 9 
ELSE[ ]\011/* Else */
MPPEM[ ]\011/* MeasurePixelPerEm */
PUSHB[ ]\011/* 1 value pushed */
73 
LT[ ]\011/* LessThan */
IF[ ]\011/* If */
NPUSHB[ ]\011/* 85 values pushed */
59 1 6 5 73 31 2 8 9 28 0 2 3 8 17 1 2 0 4 30 0 6 5 4 5 6 4 50 0 1 3 0 3 1 0 50 0 4 0 9 8 4 9 1 0 38 0 5 5 7 1 0 36 0 7 7 20 31 10 1 8 8 3 1 0 36 0 3 3 18 31 0 0 0 2 1 0 36 0 2 2 16 2 32 10 
ELSE[ ]\011/* Else */
MPPEM[ ]\011/* MeasurePixelPerEm */
PUSHB[ ]\011/* 1 value pushed */
95 
LT[ ]\011/* LessThan */
IF[ ]\011/* If */
NPUSHB[ ]\011/* 82 values pushed */
59 1 6 5 73 31 2 8 9 28 0 2 3 8 17 1 2 0 4 30 0 6 5 4 5 6 4 50 0 1 3 0 3 1 0 50 0 4 0 9 8 4 9 1 0 38 0 0 0 2 0 2 1 0 37 0 5 5 7 1 0 36 0 7 7 20 31 10 1 8 8 3 1 0 36 0 3 3 18 3 32 9 
ELSE[ ]\011/* Else */
MPPEM[ ]\011/* MeasurePixelPerEm */
PUSHB[ ]\011/* 1 value pushed */
108 
LT[ ]\011/* LessThan */
IF[ ]\011/* If */
NPUSHB[ ]\011/* 80 values pushed */
59 1 6 5 73 31 2 8 9 28 0 2 3 8 17 1 2 0 4 30 0 6 5 4 5 6 4 50 0 1 3 0 3 1 0 50 0 7 0 5 6 7 5 1 0 38 0 4 0 9 8 4 9 1 0 38 0 0 0 2 0 2 1 0 37 10 1 8 8 3 1 0 36 0 3 3 21 3 32 8 
ELSE[ ]\011/* Else */
NPUSHB[ ]\011/* 90 values pushed */
59 1 6 5 73 31 2 8 9 28 0 2 3 8 17 1 2 0 4 30 0 6 5 4 5 6 4 50 0 1 3 0 3 1 0 50 0 7 0 5 6 7 5 1 0 38 0 4 0 9 8 4 9 1 0 38 10 1 8 0 3 1 8 3 1 0 38 0 0 2 2 0 1 0 35 0 0 0 2 1 0 36 0 2 0 2 1 0 33 9 
EIF[ ]\011/* EndIf */
EIF[ ]\011/* EndIf */
EIF[ ]\011/* EndIf */
EIF[ ]\011/* EndIf */
PUSHB[ ]\011/* 1 value pushed */
56 
CALL[ ]\011/* CallFunction */";
};
width = 1014;
}
);
note = aogonek;
unicode = 0105;
},
{
glyphname = ae;
layers = (
{
layerId = "35A30917-2BE5-44A3-8659-B24E5BB0D762";
paths = (
{
closed = 1;
nodes = (
"1004.667 1029 OFFCURVE",
"890 955.333 OFFCURVE",
"818 838 CURVE",
"774 959.333 OFFCURVE",
"679 1031 OFFCURVE",
"519 1031 CURVE SMOOTH",
"368.333 1031 OFFCURVE",
"253 978 OFFCURVE",
"141 870 CURVE",
"173 813 LINE SMOOTH",
"183.667 794.333 OFFCURVE",
"202 780 OFFCURVE",
"226 780 CURVE SMOOTH",
"254.315 780 OFFCURVE",
"291.671 812.203 OFFCURVE",
"328.5 836 CURVE SMOOTH",
"371.833 864 OFFCURVE",
"428.333 892 OFFCURVE",
"515 892 CURVE SMOOTH",
"647 892 OFFCURVE",
"715 805.333 OFFCURVE",
"715 648 CURVE SMOOTH",
"715 598 LINE",
"485.667 592.667 OFFCURVE",
"329.5 550.333 OFFCURVE",
"231.5 489 CURVE SMOOTH",
"133.5 427.667 OFFCURVE",
"92 347 OFFCURVE",
"92 267 CURVE SMOOTH",
"92 171 OFFCURVE",
"123.167 100.667 OFFCURVE",
"178.5 54 CURVE SMOOTH",
"233.833 7.333 OFFCURVE",
"311 -16 OFFCURVE",
"403 -16 CURVE SMOOTH",
"481.667 -16 OFFCURVE",
"563.333 -0.333 OFFCURVE",
"634 37 CURVE SMOOTH",
"704.667 74.333 OFFCURVE",
"765 132.333 OFFCURVE",
"801 215 CURVE",
"874.333 60.333 OFFCURVE",
"1008 -14 OFFCURVE",
"1164 -14 CURVE SMOOTH",
"1302.605 -14 OFFCURVE",
"1453.886 36.407 OFFCURVE",
"1541 142 CURVE",
"1494 203 LINE SMOOTH",
"1486 213.667 OFFCURVE",
"1474.667 220 OFFCURVE",
"1456 220 CURVE SMOOTH",
"1437.708 220 OFFCURVE",
"1401.901 190.942 OFFCURVE",
"1371.5 173 CURVE SMOOTH",
"1330.833 149 OFFCURVE",
"1272 126 OFFCURVE",
"1180 126 CURVE SMOOTH",
"1093.333 126 OFFCURVE",
"1022.833 155 OFFCURVE",
"971.5 215 CURVE SMOOTH",
"920.167 275 OFFCURVE",
"888.333 364.667 OFFCURVE",
"883 486 CURVE",
"1510 486 LINE SMOOTH",
"1543.333 486 OFFCURVE",
"1551 501.333 OFFCURVE",
"1551 556 CURVE SMOOTH",
"1551 705.333 OFFCURVE",
"1509.167 822.667 OFFCURVE",
"1440.5 904 CURVE SMOOTH",
"1371.833 985.333 OFFCURVE",
"1275.333 1029 OFFCURVE",
"1166 1029 CURVE SMOOTH"
);
},
{
closed = 1;
nodes = (
"715 403 LINE SMOOTH",
"715 304.333 OFFCURVE",
"685.167 231.333 OFFCURVE",
"636.5 182 CURVE SMOOTH",
"587.833 132.667 OFFCURVE",
"520 109 OFFCURVE",
"444 109 CURVE SMOOTH",
"336 109 OFFCURVE",
"263 160 OFFCURVE",
"263 276 CURVE SMOOTH",
"263 332 OFFCURVE",
"294 380.667 OFFCURVE",
"366 418 CURVE SMOOTH",
"438 455.333 OFFCURVE",
"551 479.333 OFFCURVE",
"715 486 CURVE"
);
},
{
closed = 1;
nodes = (
"1311.227 898 OFFCURVE",
"1393 767.554 OFFCURVE",
"1393 597 CURVE",
"885 597 LINE",
"894.333 690.333 OFFCURVE",
"921.5 766 OFFCURVE",
"967.5 818 CURVE SMOOTH",
"1013.5 870 OFFCURVE",
"1077.667 898 OFFCURVE",
"1159 898 CURVE SMOOTH"
);
}
);
userData = {
assembly = "NPUSHB[ ]\011/* 38 values pushed */
83 82 1 0 88 87 82 92 83 92 77 75 69 68 63 61 56 54 51 49 46 45 37 35 29 27 20 18 15 13 9 7 0 67 1 67 16 7 
CALL[ ]\011/* CallFunction */
MPPEM[ ]\011/* MeasurePixelPerEm */
PUSHB[ ]\011/* 1 value pushed */
9 
LT[ ]\011/* LessThan */
IF[ ]\011/* If */
NPUSHB[ ]\011/* 72 values pushed */
65 59 2 8 7 31 23 2 2 3 2 30 0 8 7 6 7 8 6 50 0 3 1 2 1 3 2 50 13 1 6 10 1 1 3 6 1 1 0 38 15 12 2 7 7 0 1 0 36 9 14 2 0 0 20 31 11 1 2 2 4 1 0 36 5 1 4 4 18 4 32 8 
ELSE[ ]\011/* Else */
MPPEM[ ]\011/* MeasurePixelPerEm */
PUSHB[ ]\011/* 1 value pushed */
28 
LT[ ]\011/* LessThan */
IF[ ]\011/* If */
NPUSHB[ ]\011/* 72 values pushed */
65 59 2 8 7 31 23 2 2 3 2 30 0 8 7 6 7 8 6 50 0 3 1 2 1 3 2 50 13 1 6 10 1 1 3 6 1 1 0 38 15 12 2 7 7 0 1 0 36 9 14 2 0 0 20 31 11 1 2 2 4 1 0 36 5 1 4 4 21 4 32 8 
ELSE[ ]\011/* Else */
MPPEM[ ]\011/* MeasurePixelPerEm */
PUSHB[ ]\011/* 1 value pushed */
77 
LT[ ]\011/* LessThan */
IF[ ]\011/* If */
NPUSHB[ ]\011/* 84 values pushed */
65 59 2 8 7 31 23 2 2 3 2 30 0 8 7 6 7 8 6 50 0 3 1 2 1 3 2 50 13 1 6 10 1 1 3 6 1 1 0 38 15 12 2 7 7 0 1 0 36 9 14 2 0 0 20 31 0 2 2 4 1 0 36 5 1 4 4 21 31 0 11 11 4 1 0 36 5 1 4 4 21 4 32 10 
ELSE[ ]\011/* Else */
MPPEM[ ]\011/* MeasurePixelPerEm */
PUSHB[ ]\011/* 1 value pushed */
95 
LT[ ]\011/* LessThan */
IF[ ]\011/* If */
NPUSHB[ ]\011/* 97 values pushed */
65 59 2 8 7 31 23 2 2 3 2 30 0 8 7 6 7 8 6 50 0 3 1 2 1 3 2 50 13 1 6 10 1 1 3 6 1 1 0 38 15 1 12 12 0 1 0 36 9 14 2 0 0 20 31 0 7 7 0 1 0 36 9 14 2 0 0 20 31 0 2 2 4 1 0 36 5 1 4 4 21 31 0 11 11 4 1 0 36 5 1 4 4 21 4 32 12 
ELSE[ ]\011/* Else */
MPPEM[ ]\011/* MeasurePixelPerEm */
PUSHB[ ]\011/* 1 value pushed */
108 
LT[ ]\011/* LessThan */
IF[ ]\011/* If */
NPUSHB[ ]\011/* 89 values pushed */
65 59 2 8 7 31 23 2 2 3 2 30 0 8 7 6 7 8 6 50 0 3 1 2 1 3 2 50 15 1 12 7 0 12 1 0 35 9 14 2 0 0 7 8 0 7 1 0 38 13 1 6 10 1 1 3 6 1 1 0 38 0 2 2 4 1 0 36 5 1 4 4 21 31 0 11 11 4 1 0 36 5 1 4 4 21 4 32 10 
ELSE[ ]\011/* Else */
MPPEM[ ]\011/* MeasurePixelPerEm */
PUSHB[ ]\011/* 1 value pushed */
143 
LT[ ]\011/* LessThan */
IF[ ]\011/* If */
NPUSHB[ ]\011/* 93 values pushed */
65 59 2 8 7 31 23 2 2 3 2 30 0 8 7 6 7 8 6 50 0 3 1 2 1 3 2 50 15 1 12 7 0 12 1 0 35 9 14 2 0 0 7 8 0 7 1 0 38 13 1 6 10 1 1 3 6 1 1 0 38 0 2 11 4 2 1 0 35 0 11 4 4 11 1 0 35 0 11 11 4 1 0 36 5 1 4 11 4 1 0 33 10 
ELSE[ ]\011/* Else */
MPPEM[ ]\011/* MeasurePixelPerEm */
PUSHB[ ]\011/* 1 value pushed */
199 
LT[ ]\011/* LessThan */
IF[ ]\011/* If */
NPUSHB[ ]\011/* 100 values pushed */
65 59 2 8 7 31 23 2 2 3 2 30 0 8 7 6 7 8 6 50 0 3 10 2 10 3 2 50 15 1 12 7 0 12 1 0 35 9 14 2 0 0 7 8 0 7 1 0 38 0 1 10 6 1 1 0 35 13 1 6 0 10 3 6 10 1 0 38 0 2 11 4 2 1 0 35 0 11 4 4 11 1 0 35 0 11 11 4 1 0 36 5 1 4 11 4 1 0 33 11 
ELSE[ ]\011/* Else */
MPPEM[ ]\011/* MeasurePixelPerEm */
PUSHB[ ]\011/* 1 value pushed */
78 
LT[ ]\011/* LessThan */
IF[ ]\011/* If */
NPUSHB[ ]\011/* 102 values pushed */
65 59 2 8 7 31 23 2 2 3 2 30 0 8 7 6 7 8 6 50 0 3 10 2 10 3 2 50 14 1 0 15 1 12 7 0 12 1 0 38 0 9 0 7 8 9 7 1 0 38 0 1 10 6 1 1 0 35 13 1 6 0 10 3 6 10 1 0 38 0 11 4 5 11 1 0 35 0 2 0 4 5 2 4 1 0 38 0 11 11 5 1 0 36 0 5 11 5 1 0 33 11 
ELSE[ ]\011/* Else */
NPUSHB[ ]\011/* 103 values pushed */
65 59 2 8 7 31 23 2 2 3 2 30 0 8 7 13 7 8 13 50 0 3 10 2 10 3 2 50 14 1 0 15 1 12 7 0 12 1 0 38 0 9 0 7 8 9 7 1 0 38 0 13 0 1 10 13 1 1 0 38 0 6 0 10 3 6 10 1 0 38 0 11 4 5 11 1 0 35 0 2 0 4 5 2 4 1 0 38 0 11 11 5 1 0 36 0 5 11 5 1 0 33 11 
EIF[ ]\011/* EndIf */
EIF[ ]\011/* EndIf */
EIF[ ]\011/* EndIf */
EIF[ ]\011/* EndIf */
EIF[ ]\011/* EndIf */
EIF[ ]\011/* EndIf */
EIF[ ]\011/* EndIf */
EIF[ ]\011/* EndIf */
PUSHB[ ]\011/* 1 value pushed */
56 
CALL[ ]\011/* CallFunction */";
};
width = 1632;
}
);
note = ae;
unicode = 00E6;
},
{
glyphname = b;
layers = (
{
layerId = "35A30917-2BE5-44A3-8659-B24E5BB0D762";
paths = (
{
closed = 1;
nodes = (
"267 0 LINE SMOOTH",
"292.333 0 OFFCURVE",
"307.667 12.667 OFFCURVE",
"313 38 CURVE",
"322 130 LINE",
"390 39.333 OFFCURVE",
"477.333 -14 OFFCURVE",
"608 -14 CURVE SMOOTH",
"744 -14 OFFCURVE",
"854.167 43.5 OFFCURVE",
"929.5 137.5 CURVE SMOOTH",
"1004.833 231.5 OFFCURVE",
"1046 363.667 OFFCURVE",
"1046 513 CURVE SMOOTH",
"1046 681 OFFCURVE",
"1008.667 810.167 OFFCURVE",
"942 897.5 CURVE SMOOTH",
"875.333 984.833 OFFCURVE",
"779.333 1029 OFFCURVE",
"662 1029 CURVE SMOOTH",
"522 1029 OFFCURVE",
"415 964.333 OFFCURVE",
"331 867 CURVE",
"331 1473 LINE",
"152 1473 LINE",
"152 0 LINE"
);
},
{
closed = 1;
nodes = (
"685.333 887 OFFCURVE",
"750 860.167 OFFCURVE",
"794 799.5 CURVE SMOOTH",
"838 738.833 OFFCURVE",
"862 645 OFFCURVE",
"862 513 CURVE SMOOTH",
"862 263.667 OFFCURVE",
"757.333 124 OFFCURVE",
"568 124 CURVE SMOOTH",
"472 124 OFFCURVE",
"395 156 OFFCURVE",
"331 244 CURVE",
"331 734 LINE",
"404.333 831.333 OFFCURVE",
"488 887 OFFCURVE",
"604 887 CURVE SMOOTH"
);
}
);
userData = {
assembly = "NPUSHB[ ]\011/* 22 values pushed */
24 23 0 0 31 29 23 37 24 37 0 22 0 21 17 15 7 5 2 1 8 7 
CALL[ ]\011/* CallFunction */
MPPEM[ ]\011/* MeasurePixelPerEm */
PUSHB[ ]\011/* 1 value pushed */
9 
LT[ ]\011/* LessThan */
IF[ ]\011/* If */
NPUSHB[ ]\011/* 43 values pushed */
27 26 19 3 4 5 4 1 30 0 0 0 13 31 7 1 4 4 1 1 0 36 0 1 1 20 31 0 5 5 2 1 0 36 6 3 2 2 2 18 2 32 6 
ELSE[ ]\011/* Else */
MPPEM[ ]\011/* MeasurePixelPerEm */
PUSHB[ ]\011/* 1 value pushed */
34 
LT[ ]\011/* LessThan */
IF[ ]\011/* If */
NPUSHB[ ]\011/* 43 values pushed */
27 26 19 3 4 5 4 1 30 0 0 0 13 31 7 1 4 4 1 1 0 36 0 1 1 20 31 0 5 5 2 1 0 36 6 3 2 2 2 21 2 32 6 
ELSE[ ]\011/* Else */
MPPEM[ ]\011/* MeasurePixelPerEm */
PUSHB[ ]\011/* 1 value pushed */
95 
LT[ ]\011/* LessThan */
IF[ ]\011/* If */
NPUSHB[ ]\011/* 47 values pushed */
27 26 19 3 4 5 4 1 30 0 0 0 13 31 7 1 4 4 1 1 0 36 0 1 1 20 31 6 1 3 3 12 31 0 5 5 2 1 0 36 0 2 2 21 2 32 7 
ELSE[ ]\011/* Else */
MPPEM[ ]\011/* MeasurePixelPerEm */
PUSHB[ ]\011/* 1 value pushed */
108 
LT[ ]\011/* LessThan */
IF[ ]\011/* If */
NPUSHB[ ]\011/* 45 values pushed */
27 26 19 3 4 5 4 1 30 0 1 7 1 4 5 1 4 1 0 38 0 0 0 13 31 6 1 3 3 15 31 0 5 5 2 1 0 36 0 2 2 21 2 32 6 
ELSE[ ]\011/* Else */
MPPEM[ ]\011/* MeasurePixelPerEm */
PUSHB[ ]\011/* 1 value pushed */
141 
LT[ ]\011/* LessThan */
IF[ ]\011/* If */
NPUSHB[ ]\011/* 44 values pushed */
27 26 19 3 4 5 4 1 30 0 1 7 1 4 5 1 4 1 0 38 0 5 0 2 5 2 1 0 37 6 1 3 3 0 0 0 36 0 0 0 13 3 32 5 
ELSE[ ]\011/* Else */
NPUSHB[ ]\011/* 54 values pushed */
27 26 19 3 4 5 4 1 30 0 1 7 1 4 5 1 4 1 0 38 0 5 3 2 5 1 0 35 0 0 6 1 3 2 0 3 1 0 38 0 5 5 2 1 0 36 0 2 5 2 1 0 33 6 
EIF[ ]\011/* EndIf */
EIF[ ]\011/* EndIf */
EIF[ ]\011/* EndIf */
EIF[ ]\011/* EndIf */
EIF[ ]\011/* EndIf */
PUSHB[ ]\011/* 1 value pushed */
56 
CALL[ ]\011/* CallFunction */";
};
width = 1118;
}
);
note = b;
unicode = 0062;
},
{
glyphname = c;
layers = (
{
layerId = "35A30917-2BE5-44A3-8659-B24E5BB0D762";
paths = (
{
closed = 1;
nodes = (
"884 897 LINE",
"800 981 OFFCURVE",
"692.333 1029 OFFCURVE",
"551 1029 CURVE SMOOTH",
"397.667 1029 OFFCURVE",
"278.167 974.167 OFFCURVE",
"197.5 881.5 CURVE SMOOTH",
"116.833 788.833 OFFCURVE",
"74 657.667 OFFCURVE",
"74 507 CURVE SMOOTH",
"74 341.667 OFFCURVE",
"123 211.167 OFFCURVE",
"203 122.5 CURVE SMOOTH",
"283 33.833 OFFCURVE",
"394.333 -14 OFFCURVE",
"521 -14 CURVE SMOOTH",
"667.667 -14 OFFCURVE",
"807 34 OFFCURVE",
"895 142 CURVE",
"845 207 LINE",
"837.667 218.333 OFFCURVE",
"826.333 224 OFFCURVE",
"811 224 CURVE SMOOTH",
"789.777 224 OFFCURVE",
"758.312 193.89 OFFCURVE",
"729 174 CURVE SMOOTH",
"691.667 148.667 OFFCURVE",
"638.667 124 OFFCURVE",
"552 124 CURVE SMOOTH",
"461.333 124 OFFCURVE",
"387.667 158.833 OFFCURVE",
"337 223.5 CURVE SMOOTH",
"286.333 288.167 OFFCURVE",
"257 384.333 OFFCURVE",
"257 507 CURVE SMOOTH",
"257 624.333 OFFCURVE",
"283.167 720.333 OFFCURVE",
"334.5 787 CURVE SMOOTH",
"385.833 853.667 OFFCURVE",
"462.333 890 OFFCURVE",
"561 890 CURVE SMOOTH",
"635.667 890 OFFCURVE",
"685 870 OFFCURVE",
"721 850 CURVE SMOOTH",
"747.992 835.004 OFFCURVE",
"780.857 810 OFFCURVE",
"798 810 CURVE SMOOTH",
"818 810 OFFCURVE",
"826.333 818.333 OFFCURVE",
"837 833 CURVE SMOOTH"
);
}
);
userData = {
assembly = "NPUSHB[ ]\011/* 14 values pushed */
40 38 30 28 24 22 19 17 9 7 4 2 6 7 
CALL[ ]\011/* CallFunction */
MPPEM[ ]\011/* MeasurePixelPerEm */
PUSHB[ ]\011/* 1 value pushed */
9 
LT[ ]\011/* LessThan */
IF[ ]\011/* If */
NPUSHB[ ]\011/* 51 values pushed */
42 1 1 5 26 1 2 3 2 30 0 0 1 3 1 0 3 50 0 3 2 1 3 2 48 0 1 1 5 1 0 36 0 5 5 20 31 0 2 2 4 1 0 36 0 4 4 18 4 32 7 
ELSE[ ]\011/* Else */
MPPEM[ ]\011/* MeasurePixelPerEm */
PUSHB[ ]\011/* 1 value pushed */
95 
LT[ ]\011/* LessThan */
IF[ ]\011/* If */
NPUSHB[ ]\011/* 51 values pushed */
42 1 1 5 26 1 2 3 2 30 0 0 1 3 1 0 3 50 0 3 2 1 3 2 48 0 1 1 5 1 0 36 0 5 5 20 31 0 2 2 4 1 0 36 0 4 4 21 4 32 7 
ELSE[ ]\011/* Else */
MPPEM[ ]\011/* MeasurePixelPerEm */
PUSHB[ ]\011/* 1 value pushed */
108 
LT[ ]\011/* LessThan */
IF[ ]\011/* If */
NPUSHB[ ]\011/* 49 values pushed */
42 1 1 5 26 1 2 3 2 30 0 0 1 3 1 0 3 50 0 3 2 1 3 2 48 0 5 0 1 0 5 1 1 0 38 0 2 2 4 1 0 36 0 4 4 21 4 32 6 
ELSE[ ]\011/* Else */
NPUSHB[ ]\011/* 58 values pushed */
42 1 1 5 26 1 2 3 2 30 0 0 1 3 1 0 3 50 0 3 2 1 3 2 48 0 5 0 1 0 5 1 1 0 38 0 2 4 4 2 1 0 35 0 2 2 4 1 0 36 0 4 2 4 1 0 33 7 
EIF[ ]\011/* EndIf */
EIF[ ]\011/* EndIf */
EIF[ ]\011/* EndIf */
PUSHB[ ]\011/* 1 value pushed */
56 
CALL[ ]\011/* CallFunction */";
};
width = 934;
}
);
note = c;
unicode = 0063;
},
{
glyphname = ccedilla;
layers = (
{
layerId = "35A30917-2BE5-44A3-8659-B24E5BB0D762";
paths = (
{
closed = 1;
nodes = (
"388.667 -247 OFFCURVE",
"381 -253 OFFCURVE",
"377 -265 CURVE SMOOTH",
"360 -320 LINE",
"401.333 -338.667 OFFCURVE",
"451.333 -351 OFFCURVE",
"506 -351 CURVE SMOOTH",
"625.58 -351 OFFCURVE",
"723 -303.305 OFFCURVE",
"723 -213 CURVE SMOOTH",
"723 -141 OFFCURVE",
"672 -96.667 OFFCURVE",
"552 -70 CURVE",
"569 -12 LINE",
"698.333 -1.333 OFFCURVE",
"816.333 46 OFFCURVE",
"895 142 CURVE",
"845 207 LINE SMOOTH",
"837 217.667 OFFCURVE",
"825.667 224 OFFCURVE",
"811 224 CURVE SMOOTH",
"789.777 224 OFFCURVE",
"758.312 193.89 OFFCURVE",
"729 174 CURVE SMOOTH",
"691.667 148.667 OFFCURVE",
"638.667 124 OFFCURVE",
"552 124 CURVE SMOOTH",
"461.333 124 OFFCURVE",
"387.667 158.833 OFFCURVE",
"337 223.5 CURVE SMOOTH",
"286.333 288.167 OFFCURVE",
"257 384.333 OFFCURVE",
"257 507 CURVE SMOOTH",
"257 624.333 OFFCURVE",
"283.167 720.333 OFFCURVE",
"334.5 787 CURVE SMOOTH",
"385.833 853.667 OFFCURVE",
"462.333 890 OFFCURVE",
"561 890 CURVE SMOOTH",
"635.667 890 OFFCURVE",
"685 870 OFFCURVE",
"721 850 CURVE SMOOTH",
"747.992 835.004 OFFCURVE",
"780.857 810 OFFCURVE",
"798 810 CURVE SMOOTH",
"818 810 OFFCURVE",
"826.333 818.333 OFFCURVE",
"837 833 CURVE SMOOTH",
"884 897 LINE",
"800 981 OFFCURVE",
"692.333 1029 OFFCURVE",
"551 1029 CURVE SMOOTH",
"397.667 1029 OFFCURVE",
"278.167 974.167 OFFCURVE",
"197.5 881.5 CURVE SMOOTH",
"116.833 788.833 OFFCURVE",
"74 657.667 OFFCURVE",
"74 507 CURVE SMOOTH",
"74 356.333 OFFCURVE",
"115 234 OFFCURVE",
"183 146 CURVE SMOOTH",
"251 58 OFFCURVE",
"347.333 4.667 OFFCURVE",
"458 -10 CURVE",
"421 -131 LINE",
"510.328 -142.754 OFFCURVE",
"582 -157.177 OFFCURVE",
"582 -211 CURVE SMOOTH",
"582 -245.667 OFFCURVE",
"553 -270 OFFCURVE",
"497 -270 CURVE SMOOTH",
"464.037 -270 OFFCURVE",
"412.748 -247 OFFCURVE",
"400 -247 CURVE SMOOTH"
);
}
);
userData = {
assembly = "NPUSHB[ ]\011/* 22 values pushed */
1 0 68 66 52 50 47 45 37 35 32 30 25 23 6 4 0 72 1 72 9 7 
CALL[ ]\011/* CallFunction */
MPPEM[ ]\011/* MeasurePixelPerEm */
PUSHB[ ]\011/* 1 value pushed */
21 
LT[ ]\011/* LessThan */
IF[ ]\011/* If */
NPUSHB[ ]\011/* 70 values pushed */
27 1 4 2 55 1 5 6 59 14 13 3 0 5 70 1 7 0 4 30 0 3 4 6 4 3 6 50 0 6 5 4 6 5 48 0 5 0 4 5 0 48 0 4 4 2 1 0 36 0 2 2 20 31 1 8 2 0 0 7 1 2 36 0 7 7 16 7 32 8 
ELSE[ ]\011/* Else */
MPPEM[ ]\011/* MeasurePixelPerEm */
PUSHB[ ]\011/* 1 value pushed */
73 
LT[ ]\011/* LessThan */
IF[ ]\011/* If */
NPUSHB[ ]\011/* 76 values pushed */
27 1 4 2 55 1 5 6 59 14 13 3 0 5 70 1 7 1 4 30 0 3 4 6 4 3 6 50 0 6 5 4 6 5 48 0 5 0 4 5 0 48 8 1 0 1 4 0 1 48 0 4 4 2 1 0 36 0 2 2 20 31 0 1 1 7 1 2 36 0 7 7 16 7 32 9 
ELSE[ ]\011/* Else */
MPPEM[ ]\011/* MeasurePixelPerEm */
PUSHB[ ]\011/* 1 value pushed */
95 
LT[ ]\011/* LessThan */
IF[ ]\011/* If */
NPUSHB[ ]\011/* 73 values pushed */
27 1 4 2 55 1 5 6 59 14 13 3 0 5 70 1 7 1 4 30 0 3 4 6 4 3 6 50 0 6 5 4 6 5 48 0 5 0 4 5 0 48 8 1 0 1 4 0 1 48 0 1 0 7 1 7 1 2 37 0 4 4 2 1 0 36 0 2 2 20 4 32 8 
ELSE[ ]\011/* Else */
NPUSHB[ ]\011/* 83 values pushed */
27 1 4 2 55 1 5 6 59 14 13 3 0 5 70 1 7 1 4 30 0 3 4 6 4 3 6 50 0 6 5 4 6 5 48 0 5 0 4 5 0 48 8 1 0 1 4 0 1 48 0 2 0 4 3 2 4 1 0 38 0 1 7 7 1 1 0 35 0 1 1 7 1 2 36 0 7 1 7 1 2 33 9 
EIF[ ]\011/* EndIf */
EIF[ ]\011/* EndIf */
EIF[ ]\011/* EndIf */
PUSHB[ ]\011/* 1 value pushed */
56 
CALL[ ]\011/* CallFunction */";
};
width = 934;
}
);
note = ccedilla;
unicode = 00E7;
},
{
glyphname = d;
layers = (
{
layerId = "35A30917-2BE5-44A3-8659-B24E5BB0D762";
paths = (
{
closed = 1;
nodes = (
"965 0 LINE",
"965 1473 LINE",
"787 1473 LINE",
"787 911 LINE",
"717.667 987 OFFCURVE",
"634 1031 OFFCURVE",
"510 1031 CURVE SMOOTH",
"372.667 1031 OFFCURVE",
"263.833 973.667 OFFCURVE",
"188.5 879 CURVE SMOOTH",
"113.167 784.333 OFFCURVE",
"72 652.333 OFFCURVE",
"72 503 CURVE SMOOTH",
"72 335 OFFCURVE",
"109.333 204.667 OFFCURVE",
"176 118 CURVE SMOOTH",
"242.667 31.333 OFFCURVE",
"339 -14 OFFCURVE",
"455 -14 CURVE SMOOTH",
"599 -14 OFFCURVE",
"708.333 54.667 OFFCURVE",
"795 160 CURVE",
"811 37 LINE",
"817.667 12.333 OFFCURVE",
"833.667 0 OFFCURVE",
"859 0 CURVE SMOOTH"
);
},
{
closed = 1;
nodes = (
"431.333 130 OFFCURVE",
"367 156.833 OFFCURVE",
"323 217.5 CURVE SMOOTH",
"279 278.167 OFFCURVE",
"256 371 OFFCURVE",
"256 503 CURVE SMOOTH",
"256 752.333 OFFCURVE",
"360.667 892 OFFCURVE",
"550 892 CURVE SMOOTH",
"644.667 892 OFFCURVE",
"721.667 861 OFFCURVE",
"787 773 CURVE",
"787 283 LINE",
"713.667 185.667 OFFCURVE",
"630 130 OFFCURVE",
"514 130 CURVE SMOOTH"
);
}
);
userData = {
assembly = "NPUSHB[ ]\011/* 22 values pushed */
24 23 1 0 31 29 23 37 24 37 21 20 17 15 7 5 0 22 1 22 8 7 
CALL[ ]\011/* CallFunction */
MPPEM[ ]\011/* MeasurePixelPerEm */
PUSHB[ ]\011/* 1 value pushed */
34 
LT[ ]\011/* LessThan */
IF[ ]\011/* If */
NPUSHB[ ]\011/* 46 values pushed */
19 1 5 2 27 26 3 3 4 5 2 30 0 3 3 13 31 0 5 5 2 1 0 36 0 2 2 20 31 7 1 4 4 0 1 0 36 1 6 2 0 0 12 0 32 6 
ELSE[ ]\011/* Else */
MPPEM[ ]\011/* MeasurePixelPerEm */
PUSHB[ ]\011/* 1 value pushed */
95 
LT[ ]\011/* LessThan */
IF[ ]\011/* If */
NPUSHB[ ]\011/* 50 values pushed */
19 1 5 2 27 26 3 3 4 5 2 30 0 3 3 13 31 0 5 5 2 1 0 36 0 2 2 20 31 6 1 0 0 12 31 7 1 4 4 1 1 0 36 0 1 1 21 1 32 7 
ELSE[ ]\011/* Else */
MPPEM[ ]\011/* MeasurePixelPerEm */
PUSHB[ ]\011/* 1 value pushed */
108 
LT[ ]\011/* LessThan */
IF[ ]\011/* If */
NPUSHB[ ]\011/* 48 values pushed */
19 1 5 2 27 26 3 3 4 5 2 30 0 2 0 5 4 2 5 1 0 38 0 3 3 13 31 6 1 0 0 15 31 7 1 4 4 1 1 0 36 0 1 1 21 1 32 6 
ELSE[ ]\011/* Else */
MPPEM[ ]\011/* MeasurePixelPerEm */
PUSHB[ ]\011/* 1 value pushed */
141 
LT[ ]\011/* LessThan */
IF[ ]\011/* If */
NPUSHB[ ]\011/* 47 values pushed */
19 1 5 2 27 26 3 3 4 5 2 30 0 2 0 5 4 2 5 1 0 38 7 1 4 0 1 4 1 1 0 37 6 1 0 0 3 0 0 36 0 3 3 13 0 32 5 
ELSE[ ]\011/* Else */
NPUSHB[ ]\011/* 58 values pushed */
19 1 5 2 27 26 3 3 4 5 2 30 0 2 0 5 4 2 5 1 0 38 7 1 4 0 1 4 1 0 35 0 3 6 1 0 1 3 0 1 0 38 7 1 4 4 1 1 0 36 0 1 4 1 1 0 33 6 
EIF[ ]\011/* EndIf */
EIF[ ]\011/* EndIf */
EIF[ ]\011/* EndIf */
EIF[ ]\011/* EndIf */
PUSHB[ ]\011/* 1 value pushed */
56 
CALL[ ]\011/* CallFunction */";
};
width = 1118;
}
);
note = d;
unicode = 0064;
},
{
glyphname = eth;
layers = (
{
layerId = "35A30917-2BE5-44A3-8659-B24E5BB0D762";
paths = (
{
closed = 1;
nodes = (
"450 1009 LINE",
"634 1144 LINE",
"759.333 1058.667 OFFCURVE",
"838.333 935.333 OFFCURVE",
"865 754 CURVE",
"778.333 870 OFFCURVE",
"656.333 927 OFFCURVE",
"523 927 CURVE SMOOTH",
"384.333 927 OFFCURVE",
"273.333 874 OFFCURVE",
"196 790 CURVE SMOOTH",
"118.667 706 OFFCURVE",
"76 591.333 OFFCURVE",
"76 466 CURVE SMOOTH",
"76 316.667 OFFCURVE",
"127.167 196.5 OFFCURVE",
"210.5 114.5 CURVE SMOOTH",
"293.833 32.5 OFFCURVE",
"410.333 -13 OFFCURVE",
"541 -13 CURVE SMOOTH",
"701 -13 OFFCURVE",
"823.5 46.333 OFFCURVE",
"905.5 153 CURVE SMOOTH",
"987.5 259.667 OFFCURVE",
"1029 413.333 OFFCURVE",
"1029 604 CURVE SMOOTH",
"1029 750.667 OFFCURVE",
"1001.667 873.167 OFFCURVE",
"955 976.5 CURVE SMOOTH",
"908.333 1079.833 OFFCURVE",
"841 1161.667 OFFCURVE",
"761 1227 CURVE",
"858 1294 LINE SMOOTH",
"872.667 1304.667 OFFCURVE",
"880 1317 OFFCURVE",
"880 1331 CURVE SMOOTH",
"880 1338.333 OFFCURVE",
"877.333 1346.333 OFFCURVE",
"872 1355 CURVE SMOOTH",
"837 1412 LINE",
"670 1290 LINE",
"562 1354 OFFCURVE",
"441 1392.667 OFFCURVE",
"313 1414 CURVE",
"293 1352 LINE SMOOTH",
"289.667 1342.667 OFFCURVE",
"288 1333 OFFCURVE",
"288 1323 CURVE SMOOTH",
"288 1292.333 OFFCURVE",
"307 1274.667 OFFCURVE",
"331 1268 CURVE SMOOTH",
"407 1249.333 OFFCURVE",
"474 1226.667 OFFCURVE",
"534 1200 CURVE",
"431 1128 LINE SMOOTH",
"415.667 1118 OFFCURVE",
"408 1105.667 OFFCURVE",
"408 1091 CURVE SMOOTH",
"408 1083 OFFCURVE",
"411.667 1074.333 OFFCURVE",
"417 1065 CURVE SMOOTH"
);
},
{
closed = 1;
nodes = (
"465 125 OFFCURVE",
"393.333 155.667 OFFCURVE",
"340 213 CURVE SMOOTH",
"286.667 270.333 OFFCURVE",
"254 356 OFFCURVE",
"254 464 CURVE SMOOTH",
"254 554.667 OFFCURVE",
"280.333 636.5 OFFCURVE",
"331 694.5 CURVE SMOOTH",
"381.667 752.5 OFFCURVE",
"457 788 OFFCURVE",
"557 788 CURVE SMOOTH",
"715.442 788 OFFCURVE",
"814.442 689.125 OFFCURVE",
"861 564 CURVE",
"857 416 OFFCURVE",
"825.5 306.167 OFFCURVE",
"771.5 233.5 CURVE SMOOTH",
"717.5 160.833 OFFCURVE",
"639.667 125 OFFCURVE",
"545 125 CURVE SMOOTH"
);
}
);
userData = {
assembly = "NPUSHB[ ]\011/* 14 values pushed */
54 53 64 62 53 72 54 72 46 44 36 34 5 7 
CALL[ ]\011/* CallFunction */
MPPEM[ ]\011/* MeasurePixelPerEm */
PUSHB[ ]\011/* 1 value pushed */
108 
LT[ ]\011/* LessThan */
IF[ ]\011/* If */
NPUSHB[ ]\011/* 42 values pushed */
58 48 2 2 3 1 30 52 51 25 19 18 15 6 7 1 28 0 1 0 3 2 1 3 1 0 38 4 1 2 2 0 1 0 36 0 0 0 21 0 32 5 
ELSE[ ]\011/* Else */
NPUSHB[ ]\011/* 52 values pushed */
58 48 2 2 3 1 30 52 51 25 19 18 15 6 7 1 28 0 1 0 3 2 1 3 1 0 38 4 1 2 0 0 2 1 0 35 4 1 2 2 0 1 0 36 0 0 2 0 1 0 33 6 
EIF[ ]\011/* EndIf */
PUSHB[ ]\011/* 1 value pushed */
56 
CALL[ ]\011/* CallFunction */";
};
width = 1106;
}
);
note = eth;
unicode = 00F0;
},
{
glyphname = e;
layers = (
{
layerId = "35A30917-2BE5-44A3-8659-B24E5BB0D762";
paths = (
{
closed = 1;
nodes = (
"400.333 1029 OFFCURVE",
"281.333 974.5 OFFCURVE",
"200 884.5 CURVE SMOOTH",
"118.667 794.5 OFFCURVE",
"74 668.333 OFFCURVE",
"74 527 CURVE SMOOTH",
"74 352.333 OFFCURVE",
"124.5 216.833 OFFCURVE",
"210.5 125.5 CURVE SMOOTH",
"296.5 34.167 OFFCURVE",
"417 -14 OFFCURVE",
"557 -14 CURVE SMOOTH",
"699.733 -14 OFFCURVE",
"866.367 35.779 OFFCURVE",
"954 142 CURVE",
"904 207 LINE",
"896 218.333 OFFCURVE",
"884.667 224 OFFCURVE",
"870 224 CURVE SMOOTH",
"849.195 224 OFFCURVE",
"806.836 193.43 OFFCURVE",
"771 175 CURVE SMOOTH",
"724.333 151 OFFCURVE",
"661.333 126 OFFCURVE",
"572 126 CURVE SMOOTH",
"476 126 OFFCURVE",
"398 157.167 OFFCURVE",
"342 220.5 CURVE SMOOTH",
"286 283.833 OFFCURVE",
"252.667 378 OFFCURVE",
"250 506 CURVE",
"924 506 LINE SMOOTH",
"957.333 506 OFFCURVE",
"967 520 OFFCURVE",
"967 576 CURVE SMOOTH",
"967 720 OFFCURVE",
"922.667 833.833 OFFCURVE",
"848 910.5 CURVE SMOOTH",
"773.333 987.167 OFFCURVE",
"668.333 1029 OFFCURVE",
"547 1029 CURVE SMOOTH"
);
},
{
closed = 1;
nodes = (
"713.412 898 OFFCURVE",
"807 782.743 OFFCURVE",
"807 617 CURVE",
"256 617 LINE",
"280 793 OFFCURVE",
"379 898 OFFCURVE",
"551 898 CURVE SMOOTH"
);
}
);
userData = {
assembly = "NPUSHB[ ]\011/* 24 values pushed */
38 37 1 0 41 40 37 45 38 45 28 26 20 18 15 13 9 7 0 36 1 36 9 7 
CALL[ ]\011/* CallFunction */
MPPEM[ ]\011/* MeasurePixelPerEm */
PUSHB[ ]\011/* 1 value pushed */
9 
LT[ ]\011/* LessThan */
IF[ ]\011/* If */
NPUSHB[ ]\011/* 52 values pushed */
22 1 2 3 1 30 0 3 1 2 1 3 2 50 0 6 0 1 3 6 1 1 0 38 8 1 5 5 0 1 0 36 7 1 0 0 20 31 0 2 2 4 1 0 36 0 4 4 18 4 32 7 
ELSE[ ]\011/* Else */
MPPEM[ ]\011/* MeasurePixelPerEm */
PUSHB[ ]\011/* 1 value pushed */
95 
LT[ ]\011/* LessThan */
IF[ ]\011/* If */
NPUSHB[ ]\011/* 52 values pushed */
22 1 2 3 1 30 0 3 1 2 1 3 2 50 0 6 0 1 3 6 1 1 0 38 8 1 5 5 0 1 0 36 7 1 0 0 20 31 0 2 2 4 1 0 36 0 4 4 21 4 32 7 
ELSE[ ]\011/* Else */
MPPEM[ ]\011/* MeasurePixelPerEm */
PUSHB[ ]\011/* 1 value pushed */
108 
LT[ ]\011/* LessThan */
IF[ ]\011/* If */
NPUSHB[ ]\011/* 50 values pushed */
22 1 2 3 1 30 0 3 1 2 1 3 2 50 7 1 0 8 1 5 6 0 5 1 0 38 0 6 0 1 3 6 1 1 0 38 0 2 2 4 1 0 36 0 4 4 21 4 32 6 
ELSE[ ]\011/* Else */
NPUSHB[ ]\011/* 59 values pushed */
22 1 2 3 1 30 0 3 1 2 1 3 2 50 7 1 0 8 1 5 6 0 5 1 0 38 0 6 0 1 3 6 1 1 0 38 0 2 4 4 2 1 0 35 0 2 2 4 1 0 36 0 4 2 4 1 0 33 7 
EIF[ ]\011/* EndIf */
EIF[ ]\011/* EndIf */
EIF[ ]\011/* EndIf */
PUSHB[ ]\011/* 1 value pushed */
56 
CALL[ ]\011/* CallFunction */";
};
width = 1048;
}
);
note = e;
unicode = 0065;
},
{
glyphname = eogonek;
layers = (
{
layerId = "35A30917-2BE5-44A3-8659-B24E5BB0D762";
paths = (
{
closed = 1;
nodes = (
"734.525 -211 OFFCURVE",
"687.408 -235 OFFCURVE",
"654 -235 CURVE SMOOTH",
"598 -235 OFFCURVE",
"563 -204.667 OFFCURVE",
"563 -154 CURVE SMOOTH",
"563 -88.784 OFFCURVE",
"620.296 -33.087 OFFCURVE",
"675 -3 CURVE",
"784.333 15.667 OFFCURVE",
"887.333 62 OFFCURVE",
"954 142 CURVE",
"904 207 LINE",
"896 218.333 OFFCURVE",
"884.667 224 OFFCURVE",
"870 224 CURVE SMOOTH",
"849.195 224 OFFCURVE",
"806.836 193.43 OFFCURVE",
"771 175 CURVE SMOOTH",
"724.333 151 OFFCURVE",
"661.333 126 OFFCURVE",
"572 126 CURVE SMOOTH",
"476 126 OFFCURVE",
"398 157.167 OFFCURVE",
"342 220.5 CURVE SMOOTH",
"286 283.833 OFFCURVE",
"252.667 378 OFFCURVE",
"250 506 CURVE",
"924 506 LINE SMOOTH",
"957.333 506 OFFCURVE",
"967 520 OFFCURVE",
"967 576 CURVE SMOOTH",
"967 720 OFFCURVE",
"922.667 833.833 OFFCURVE",
"848 910.5 CURVE SMOOTH",
"773.333 987.167 OFFCURVE",
"668.333 1029 OFFCURVE",
"547 1029 CURVE SMOOTH",
"400.333 1029 OFFCURVE",
"281.333 974.5 OFFCURVE",
"200 884.5 CURVE SMOOTH",
"118.667 794.5 OFFCURVE",
"74 668.333 OFFCURVE",
"74 527 CURVE SMOOTH",
"74 355 OFFCURVE",
"123 221 OFFCURVE",
"207 129 CURVE SMOOTH",
"291 37 OFFCURVE",
"408.667 -11.333 OFFCURVE",
"546 -14 CURVE",
"476.667 -63.333 OFFCURVE",
"428 -126.333 OFFCURVE",
"428 -197 CURVE SMOOTH",
"428 -285 OFFCURVE",
"499.667 -342 OFFCURVE",
"617 -342 CURVE SMOOTH",
"685 -342 OFFCURVE",
"751 -320.667 OFFCURVE",
"791 -290 CURVE",
"763 -224 LINE SMOOTH",
"760.333 -217.333 OFFCURVE",
"754.333 -211 OFFCURVE",
"745 -211 CURVE SMOOTH"
);
},
{
closed = 1;
nodes = (
"713.412 898 OFFCURVE",
"807 782.743 OFFCURVE",
"807 617 CURVE",
"256 617 LINE",
"280 793 OFFCURVE",
"379 898 OFFCURVE",
"551 898 CURVE SMOOTH"
);
}
);
userData = {
assembly = "NPUSHB[ ]\011/* 30 values pushed */
62 61 1 0 65 64 61 69 62 69 57 55 43 41 38 36 32 30 24 22 14 13 8 6 0 60 1 60 12 7 
CALL[ ]\011/* CallFunction */
MPPEM[ ]\011/* MeasurePixelPerEm */
PUSHB[ ]\011/* 1 value pushed */
21 
LT[ ]\011/* LessThan */
IF[ ]\011/* If */
NPUSHB[ ]\011/* 69 values pushed */
45 1 5 6 4 1 1 0 2 30 0 6 4 5 4 6 5 50 0 9 0 4 6 9 4 1 0 38 11 1 8 8 3 1 0 36 0 3 3 20 31 0 5 5 2 1 0 36 0 2 2 21 31 7 10 2 0 0 1 1 0 36 0 1 1 16 1 32 9 
ELSE[ ]\011/* Else */
MPPEM[ ]\011/* MeasurePixelPerEm */
PUSHB[ ]\011/* 1 value pushed */
73 
LT[ ]\011/* LessThan */
IF[ ]\011/* If */
NPUSHB[ ]\011/* 76 values pushed */
45 1 5 6 4 1 1 7 2 30 0 6 4 5 4 6 5 50 10 1 0 2 7 2 0 7 50 0 9 0 4 6 9 4 1 0 38 11 1 8 8 3 1 0 36 0 3 3 20 31 0 5 5 2 1 0 36 0 2 2 21 31 0 7 7 1 1 0 36 0 1 1 16 1 32 10 
ELSE[ ]\011/* Else */
MPPEM[ ]\011/* MeasurePixelPerEm */
PUSHB[ ]\011/* 1 value pushed */
95 
LT[ ]\011/* LessThan */
IF[ ]\011/* If */
NPUSHB[ ]\011/* 73 values pushed */
45 1 5 6 4 1 1 7 2 30 0 6 4 5 4 6 5 50 10 1 0 2 7 2 0 7 50 0 9 0 4 6 9 4 1 0 38 0 7 0 1 7 1 1 0 37 11 1 8 8 3 1 0 36 0 3 3 20 31 0 5 5 2 1 0 36 0 2 2 21 2 32 9 
ELSE[ ]\011/* Else */
MPPEM[ ]\011/* MeasurePixelPerEm */
PUSHB[ ]\011/* 1 value pushed */
108 
LT[ ]\011/* LessThan */
IF[ ]\011/* If */
NPUSHB[ ]\011/* 71 values pushed */
45 1 5 6 4 1 1 7 2 30 0 6 4 5 4 6 5 50 10 1 0 2 7 2 0 7 50 0 3 11 1 8 9 3 8 1 0 38 0 9 0 4 6 9 4 1 0 38 0 7 0 1 7 1 1 0 37 0 5 5 2 1 0 36 0 2 2 21 2 32 8 
ELSE[ ]\011/* Else */
NPUSHB[ ]\011/* 81 values pushed */
45 1 5 6 4 1 1 7 2 30 0 6 4 5 4 6 5 50 10 1 0 2 7 2 0 7 50 0 3 11 1 8 9 3 8 1 0 38 0 9 0 4 6 9 4 1 0 38 0 5 0 2 0 5 2 1 0 38 0 7 1 1 7 1 0 35 0 7 7 1 1 0 36 0 1 7 1 1 0 33 9 
EIF[ ]\011/* EndIf */
EIF[ ]\011/* EndIf */
EIF[ ]\011/* EndIf */
EIF[ ]\011/* EndIf */
PUSHB[ ]\011/* 1 value pushed */
56 
CALL[ ]\011/* CallFunction */";
};
width = 1048;
}
);
note = eogonek;
unicode = 0119;
},
{
glyphname = f;
layers = (
{
layerId = "35A30917-2BE5-44A3-8659-B24E5BB0D762";
paths = (
{
closed = 1;
nodes = (
"365 0 LINE",
"365 864 LINE",
"652 864 LINE",
"652 993 LINE",
"359 993 LINE",
"359 1086 LINE SMOOTH",
"359 1247.816 OFFCURVE",
"430.467 1317 OFFCURVE",
"563 1317 CURVE SMOOTH",
"594 1317 LINE SMOOTH",
"632.667 1317 OFFCURVE",
"654.667 1318.333 OFFCURVE",
"656 1345 CURVE SMOOTH",
"660 1434 LINE",
"621.333 1447.333 OFFCURVE",
"579.333 1454 OFFCURVE",
"534 1454 CURVE SMOOTH",
"427.333 1454 OFFCURVE",
"341.167 1421.5 OFFCURVE",
"280.5 1359.5 CURVE SMOOTH",
"219.833 1297.5 OFFCURVE",
"186 1207 OFFCURVE",
"186 1091 CURVE SMOOTH",
"186 993 LINE",
"26 993 LINE",
"26 920 LINE SMOOTH",
"26 893.333 OFFCURVE",
"46 880.667 OFFCURVE",
"74 874 CURVE",
"186 861 LINE",
"186 0 LINE"
);
}
);
userData = {
assembly = "NPUSHB[ ]\011/* 18 values pushed */
0 0 0 30 0 30 29 28 27 26 21 18 14 12 7 6 7 7 
CALL[ ]\011/* CallFunction */
MPPEM[ ]\011/* MeasurePixelPerEm */
PUSHB[ ]\011/* 1 value pushed */
50 
LT[ ]\011/* LessThan */
IF[ ]\011/* If */
NPUSHB[ ]\011/* 43 values pushed */
15 1 2 1 1 1 5 4 2 30 0 2 2 1 1 0 36 0 1 1 17 31 0 4 4 0 0 0 36 3 1 0 0 14 31 6 1 5 5 12 5 32 6 
ELSE[ ]\011/* Else */
MPPEM[ ]\011/* MeasurePixelPerEm */
PUSHB[ ]\011/* 1 value pushed */
95 
LT[ ]\011/* LessThan */
IF[ ]\011/* If */
NPUSHB[ ]\011/* 41 values pushed */
15 1 2 1 1 1 5 4 2 30 3 1 0 0 4 5 0 4 0 0 38 0 2 2 1 1 0 36 0 1 1 17 31 6 1 5 5 12 5 32 5 
ELSE[ ]\011/* Else */
MPPEM[ ]\011/* MeasurePixelPerEm */
PUSHB[ ]\011/* 1 value pushed */
108 
LT[ ]\011/* LessThan */
IF[ ]\011/* If */
NPUSHB[ ]\011/* 39 values pushed */
15 1 2 1 1 1 5 4 2 30 0 1 0 2 0 1 2 1 0 38 3 1 0 0 4 5 0 4 0 0 38 6 1 5 5 15 5 32 4 
ELSE[ ]\011/* Else */
MPPEM[ ]\011/* MeasurePixelPerEm */
PUSHB[ ]\011/* 1 value pushed */
232 
LT[ ]\011/* LessThan */
IF[ ]\011/* If */
NPUSHB[ ]\011/* 51 values pushed */
15 1 2 1 1 1 5 4 2 30 6 1 5 4 5 53 0 1 0 2 0 1 2 1 0 38 3 1 0 4 4 0 0 0 35 3 1 0 0 4 0 0 36 0 4 0 4 0 0 33 6 
ELSE[ ]\011/* Else */
NPUSHB[ ]\011/* 57 values pushed */
15 1 2 1 1 1 5 4 2 30 0 0 2 3 2 0 3 50 6 1 5 4 5 53 0 1 0 2 0 1 2 1 0 38 0 3 4 4 3 0 0 35 0 3 3 4 0 0 36 0 4 3 4 0 0 33 7 
EIF[ ]\011/* EndIf */
EIF[ ]\011/* EndIf */
EIF[ ]\011/* EndIf */
EIF[ ]\011/* EndIf */
PUSHB[ ]\011/* 1 value pushed */
56 
CALL[ ]\011/* CallFunction */";
};
width = 674;
}
);
note = f;
unicode = 0066;
},
{
glyphname = g;
layers = (
{
layerId = "35A30917-2BE5-44A3-8659-B24E5BB0D762";
paths = (
{
closed = 1;
nodes = (
"375 1030 OFFCURVE",
"279 998.167 OFFCURVE",
"211 941.5 CURVE SMOOTH",
"143 884.833 OFFCURVE",
"103 802.667 OFFCURVE",
"103 704 CURVE SMOOTH",
"103 580 OFFCURVE",
"163 486 OFFCURVE",
"263 430 CURVE",
"184.136 390.568 OFFCURVE",
"134 319.609 OFFCURVE",
"134 257 CURVE SMOOTH",
"134 182.333 OFFCURVE",
"170.667 140.667 OFFCURVE",
"228 114 CURVE",
"117.333 72.667 OFFCURVE",
"50 3 OFFCURVE",
"50 -97 CURVE SMOOTH",
"50 -167.667 OFFCURVE",
"86.667 -234.667 OFFCURVE",
"160 -284 CURVE SMOOTH",
"233.333 -333.333 OFFCURVE",
"345 -365 OFFCURVE",
"493 -365 CURVE SMOOTH",
"641 -365 OFFCURVE",
"759.667 -323.833 OFFCURVE",
"841 -260.5 CURVE SMOOTH",
"922.333 -197.167 OFFCURVE",
"967 -112.667 OFFCURVE",
"967 -26 CURVE SMOOTH",
"967 155.554 OFFCURVE",
"808.472 195.675 OFFCURVE",
"627.5 208.5 CURVE SMOOTH",
"477.1 219.158 OFFCURVE",
"288 205.863 OFFCURVE",
"288 306 CURVE SMOOTH",
"288 335.333 OFFCURVE",
"310.333 367.333 OFFCURVE",
"353 394 CURVE",
"395 382.667 OFFCURVE",
"439.667 377 OFFCURVE",
"487 377 CURVE SMOOTH",
"597.667 377 OFFCURVE",
"692.167 408.667 OFFCURVE",
"759.5 466 CURVE SMOOTH",
"826.833 523.333 OFFCURVE",
"867 605.333 OFFCURVE",
"867 704 CURVE SMOOTH",
"867 757.333 OFFCURVE",
"855.667 805.667 OFFCURVE",
"833 849 CURVE",
"948 865 LINE",
"976 871 OFFCURVE",
"990 885 OFFCURVE",
"990 907 CURVE SMOOTH",
"990 973 LINE",
"715 973 LINE",
"652.333 1010.333 OFFCURVE",
"575 1030 OFFCURVE",
"487 1030 CURVE SMOOTH"
);
},
{
closed = 1;
nodes = (
"803 -108.333 OFFCURVE",
"774.167 -153 OFFCURVE",
"721.5 -185 CURVE SMOOTH",
"668.833 -217 OFFCURVE",
"592 -235 OFFCURVE",
"496 -235 CURVE SMOOTH",
"397.333 -235 OFFCURVE",
"325 -217.167 OFFCURVE",
"277 -188.5 CURVE SMOOTH",
"229 -159.833 OFFCURVE",
"206 -119.333 OFFCURVE",
"206 -74 CURVE SMOOTH",
"206 -2 OFFCURVE",
"258 49 OFFCURVE",
"334 85 CURVE",
"366.667 79.667 OFFCURVE",
"401 76 OFFCURVE",
"437 74 CURVE SMOOTH",
"495.65 70.742 OFFCURVE",
"589.745 66.671 OFFCURVE",
"642 60 CURVE SMOOTH",
"709.605 51.37 OFFCURVE",
"803 4.833 OFFCURVE",
"803 -55 CURVE SMOOTH"
);
},
{
closed = 1;
nodes = (
"349.876 495 OFFCURVE",
"267 575.268 OFFCURVE",
"267 699 CURVE SMOOTH",
"267 823 OFFCURVE",
"344.333 902 OFFCURVE",
"487 902 CURVE SMOOTH",
"631 902 OFFCURVE",
"708 823 OFFCURVE",
"708 699 CURVE SMOOTH",
"708 574.512 OFFCURVE",
"627.355 495 OFFCURVE",
"487 495 CURVE SMOOTH"
);
}
);
userData = {
assembly = "NPUSHB[ ]\011/* 28 values pushed */
79 78 1 0 87 85 78 93 79 93 74 72 64 62 35 33 25 23 16 14 4 3 0 57 1 57 11 7 
CALL[ ]\011/* CallFunction */
MPPEM[ ]\011/* MeasurePixelPerEm */
PUSHB[ ]\011/* 1 value pushed */
25 
LT[ ]\011/* LessThan */
IF[ ]\011/* If */
NPUSHB[ ]\011/* 69 values pushed */
8 1 7 8 50 17 2 2 7 65 42 2 5 3 3 30 10 1 7 0 2 3 7 2 1 0 38 0 3 0 5 6 3 5 1 0 38 0 1 1 14 31 0 8 8 0 1 0 36 9 1 0 0 20 31 0 6 6 4 1 0 36 0 4 4 22 4 32 8 
ELSE[ ]\011/* Else */
MPPEM[ ]\011/* MeasurePixelPerEm */
PUSHB[ ]\011/* 1 value pushed */
73 
LT[ ]\011/* LessThan */
IF[ ]\011/* If */
NPUSHB[ ]\011/* 72 values pushed */
8 1 7 8 50 17 2 2 7 65 42 2 5 3 3 30 0 1 0 8 0 1 8 50 10 1 7 0 2 3 7 2 1 0 38 0 3 0 5 6 3 5 1 0 38 0 8 8 0 1 0 36 9 1 0 0 20 31 0 6 6 4 1 0 36 0 4 4 22 4 32 8 
ELSE[ ]\011/* Else */
MPPEM[ ]\011/* MeasurePixelPerEm */
PUSHB[ ]\011/* 1 value pushed */
95 
LT[ ]\011/* LessThan */
IF[ ]\011/* If */
NPUSHB[ ]\011/* 69 values pushed */
8 1 7 8 50 17 2 2 7 65 42 2 5 3 3 30 0 1 0 8 0 1 8 50 10 1 7 0 2 3 7 2 1 0 38 0 3 0 5 6 3 5 1 0 38 0 6 0 4 6 4 1 0 37 0 8 8 0 1 0 36 9 1 0 0 20 8 32 7 
ELSE[ ]\011/* Else */
NPUSHB[ ]\011/* 79 values pushed */
8 1 7 8 50 17 2 2 7 65 42 2 5 3 3 30 0 1 0 8 0 1 8 50 9 1 0 0 8 7 0 8 1 0 38 10 1 7 0 2 3 7 2 1 0 38 0 3 0 5 6 3 5 1 0 38 0 6 4 4 6 1 0 35 0 6 6 4 1 0 36 0 4 6 4 1 0 33 8 
EIF[ ]\011/* EndIf */
EIF[ ]\011/* EndIf */
EIF[ ]\011/* EndIf */
PUSHB[ ]\011/* 1 value pushed */
56 
CALL[ ]\011/* CallFunction */";
};
width = 1022;
}
);
note = g;
unicode = 0067;
},
{
glyphname = h;
layers = (
{
layerId = "35A30917-2BE5-44A3-8659-B24E5BB0D762";
paths = (
{
closed = 1;
nodes = (
"324 0 LINE",
"324 746 LINE",
"401.333 832.667 OFFCURVE",
"492.667 887 OFFCURVE",
"598 887 CURVE SMOOTH",
"742 887 OFFCURVE",
"811 798.333 OFFCURVE",
"811 645 CURVE SMOOTH",
"811 0 LINE",
"989 0 LINE",
"989 645 LINE SMOOTH",
"989 759.667 OFFCURVE",
"959.167 856.167 OFFCURVE",
"902.5 923.5 CURVE SMOOTH",
"845.833 990.833 OFFCURVE",
"760.667 1029 OFFCURVE",
"650 1029 CURVE SMOOTH",
"512.667 1029 OFFCURVE",
"410.667 969 OFFCURVE",
"324 877 CURVE",
"324 1473 LINE",
"146 1473 LINE",
"146 0 LINE"
);
}
);
userData = {
assembly = "NPUSHB[ ]\011/* 16 values pushed */
0 0 0 21 0 21 18 16 13 12 7 5 2 1 6 7 
CALL[ ]\011/* CallFunction */
MPPEM[ ]\011/* MeasurePixelPerEm */
PUSHB[ ]\011/* 1 value pushed */
95 
LT[ ]\011/* LessThan */
IF[ ]\011/* If */
NPUSHB[ ]\011/* 33 values pushed */
20 3 2 2 3 1 30 0 0 0 13 31 0 3 3 1 1 0 36 0 1 1 20 31 5 4 2 2 2 12 2 32 5 
ELSE[ ]\011/* Else */
MPPEM[ ]\011/* MeasurePixelPerEm */
PUSHB[ ]\011/* 1 value pushed */
108 
LT[ ]\011/* LessThan */
IF[ ]\011/* If */
NPUSHB[ ]\011/* 31 values pushed */
20 3 2 2 3 1 30 0 1 0 3 2 1 3 1 0 38 0 0 0 13 31 5 4 2 2 2 15 2 32 4 
ELSE[ ]\011/* Else */
MPPEM[ ]\011/* MeasurePixelPerEm */
PUSHB[ ]\011/* 1 value pushed */
141 
LT[ ]\011/* LessThan */
IF[ ]\011/* If */
NPUSHB[ ]\011/* 33 values pushed */
20 3 2 2 3 1 30 0 1 0 3 2 1 3 1 0 38 5 4 2 2 2 0 0 0 36 0 0 0 13 2 32 4 
ELSE[ ]\011/* Else */
MPPEM[ ]\011/* MeasurePixelPerEm */
PUSHB[ ]\011/* 1 value pushed */
232 
LT[ ]\011/* LessThan */
IF[ ]\011/* If */
NPUSHB[ ]\011/* 42 values pushed */
20 3 2 2 3 1 30 0 0 1 2 0 0 0 35 0 1 0 3 2 1 3 1 0 38 0 0 0 2 0 0 36 5 4 2 2 0 2 0 0 33 5 
ELSE[ ]\011/* Else */
NPUSHB[ ]\011/* 46 values pushed */
20 3 2 4 3 1 30 0 2 4 2 53 0 0 1 4 0 0 0 35 0 1 0 3 4 1 3 1 0 38 0 0 0 4 0 0 36 5 1 4 0 4 0 0 33 6 
EIF[ ]\011/* EndIf */
EIF[ ]\011/* EndIf */
EIF[ ]\011/* EndIf */
EIF[ ]\011/* EndIf */
PUSHB[ ]\011/* 1 value pushed */
56 
CALL[ ]\011/* CallFunction */";
};
width = 1112;
}
);
note = h;
unicode = 0068;
},
{
glyphname = i;
layers = (
{
layerId = "35A30917-2BE5-44A3-8659-B24E5BB0D762";
paths = (
{
closed = 1;
nodes = (
"166 1013 LINE",
"166 0 LINE",
"344 0 LINE",
"344 1013 LINE"
);
},
{
closed = 1;
nodes = (
"384 1400.842 OFFCURVE",
"324.327 1459 OFFCURVE",
"256 1459 CURVE SMOOTH",
"187.36 1459 OFFCURVE",
"130 1400.452 OFFCURVE",
"130 1331 CURVE SMOOTH",
"130 1262.765 OFFCURVE",
"187.765 1205 OFFCURVE",
"256 1205 CURVE SMOOTH",
"323.535 1205 OFFCURVE",
"384 1262.798 OFFCURVE",
"384 1331 CURVE SMOOTH"
);
}
);
userData = {
assembly = "NPUSHB[ ]\011/* 14 values pushed */
0 0 20 18 10 8 0 3 0 3 2 1 5 7 
CALL[ ]\011/* CallFunction */
MPPEM[ ]\011/* MeasurePixelPerEm */
PUSHB[ ]\011/* 1 value pushed */
9 
LT[ ]\011/* LessThan */
IF[ ]\011/* If */
NPUSHB[ ]\011/* 25 values pushed */
0 2 2 3 1 0 36 0 3 3 17 31 4 1 1 1 14 31 0 0 0 12 0 32 4 
ELSE[ ]\011/* Else */
MPPEM[ ]\011/* MeasurePixelPerEm */
PUSHB[ ]\011/* 1 value pushed */
95 
LT[ ]\011/* LessThan */
IF[ ]\011/* If */
NPUSHB[ ]\011/* 25 values pushed */
0 2 2 3 1 0 36 0 3 3 13 31 4 1 1 1 14 31 0 0 0 12 0 32 4 
ELSE[ ]\011/* Else */
MPPEM[ ]\011/* MeasurePixelPerEm */
PUSHB[ ]\011/* 1 value pushed */
108 
LT[ ]\011/* LessThan */
IF[ ]\011/* If */
NPUSHB[ ]\011/* 27 values pushed */
0 2 2 3 1 0 36 0 3 3 13 31 4 1 1 1 0 0 0 36 0 0 0 15 0 32 4 
ELSE[ ]\011/* Else */
MPPEM[ ]\011/* MeasurePixelPerEm */
PUSHB[ ]\011/* 1 value pushed */
141 
LT[ ]\011/* LessThan */
IF[ ]\011/* If */
NPUSHB[ ]\011/* 24 values pushed */
4 1 1 0 0 1 0 0 0 37 0 2 2 3 1 0 36 0 3 3 13 2 32 3 
ELSE[ ]\011/* Else */
NPUSHB[ ]\011/* 35 values pushed */
0 3 0 2 1 3 2 1 0 38 4 1 1 0 0 1 0 0 35 4 1 1 1 0 0 0 36 0 0 1 0 0 0 33 4 
EIF[ ]\011/* EndIf */
EIF[ ]\011/* EndIf */
EIF[ ]\011/* EndIf */
EIF[ ]\011/* EndIf */
PUSHB[ ]\011/* 1 value pushed */
56 
CALL[ ]\011/* CallFunction */";
};
width = 512;
}
);
note = i;
unicode = 0069;
},
{
glyphname = idotless;
layers = (
{
layerId = "35A30917-2BE5-44A3-8659-B24E5BB0D762";
paths = (
{
closed = 1;
nodes = (
"166 1013 LINE",
"166 0 LINE",
"344 0 LINE",
"344 1013 LINE"
);
}
);
userData = {
assembly = "NPUSHB[ ]\011/* 10 values pushed */
0 0 0 3 0 3 2 1 3 7 
CALL[ ]\011/* CallFunction */
MPPEM[ ]\011/* MeasurePixelPerEm */
PUSHB[ ]\011/* 1 value pushed */
95 
LT[ ]\011/* LessThan */
IF[ ]\011/* If */
NPUSHB[ ]\011/* 13 values pushed */
2 1 1 1 14 31 0 0 0 12 0 32 2 
ELSE[ ]\011/* Else */
MPPEM[ ]\011/* MeasurePixelPerEm */
PUSHB[ ]\011/* 1 value pushed */
108 
LT[ ]\011/* LessThan */
IF[ ]\011/* If */
NPUSHB[ ]\011/* 15 values pushed */
2 1 1 1 0 0 0 36 0 0 0 15 0 32 2 
ELSE[ ]\011/* Else */
NPUSHB[ ]\011/* 25 values pushed */
2 1 1 0 0 1 0 0 35 2 1 1 1 0 0 0 36 0 0 1 0 0 0 33 3 
EIF[ ]\011/* EndIf */
EIF[ ]\011/* EndIf */
PUSHB[ ]\011/* 1 value pushed */
56 
CALL[ ]\011/* CallFunction */";
};
width = 512;
}
);
note = dotlessi;
unicode = 0131;
},
{
glyphname = j;
layers = (
{
layerId = "35A30917-2BE5-44A3-8659-B24E5BB0D762";
paths = (
{
closed = 1;
nodes = (
"166 1013 LINE",
"166 -75 LINE SMOOTH",
"166 -183 OFFCURVE",
"126 -229 OFFCURVE",
"22 -229 CURVE SMOOTH",
"13.333 -229 OFFCURVE",
"6 -228.833 OFFCURVE",
"0 -228.5 CURVE SMOOTH",
"-6 -228.167 OFFCURVE",
"-11.667 -228 OFFCURVE",
"-17 -228 CURVE SMOOTH",
"-37 -228 OFFCURVE",
"-45.333 -230.667 OFFCURVE",
"-48 -248 CURVE",
"-56 -344 LINE",
"-20 -357.333 OFFCURVE",
"14 -364 OFFCURVE",
"58 -364 CURVE SMOOTH",
"159.333 -364 OFFCURVE",
"231.5 -332 OFFCURVE",
"277.5 -280 CURVE SMOOTH",
"323.5 -228 OFFCURVE",
"344 -156.333 OFFCURVE",
"344 -75 CURVE SMOOTH",
"344 1013 LINE"
);
},
{
closed = 1;
nodes = (
"384 1400.842 OFFCURVE",
"324.327 1459 OFFCURVE",
"256 1459 CURVE SMOOTH",
"187.36 1459 OFFCURVE",
"130 1400.452 OFFCURVE",
"130 1331 CURVE SMOOTH",
"130 1262.765 OFFCURVE",
"187.765 1205 OFFCURVE",
"256 1205 CURVE SMOOTH",
"323.535 1205 OFFCURVE",
"384 1262.798 OFFCURVE",
"384 1331 CURVE SMOOTH"
);
}
);
userData = {
assembly = "NPUSHB[ ]\011/* 16 values pushed */
0 0 37 35 27 25 0 20 0 20 17 12 7 5 6 7 
CALL[ ]\011/* CallFunction */
MPPEM[ ]\011/* MeasurePixelPerEm */
PUSHB[ ]\011/* 1 value pushed */
9 
LT[ ]\011/* LessThan */
IF[ ]\011/* If */
NPUSHB[ ]\011/* 38 values pushed */
9 1 0 1 1 30 0 3 3 4 1 0 36 0 4 4 17 31 5 1 2 2 14 31 0 1 1 0 1 0 36 0 0 0 22 0 32 6 
ELSE[ ]\011/* Else */
MPPEM[ ]\011/* MeasurePixelPerEm */
PUSHB[ ]\011/* 1 value pushed */
73 
LT[ ]\011/* LessThan */
IF[ ]\011/* If */
NPUSHB[ ]\011/* 38 values pushed */
9 1 0 1 1 30 0 3 3 4 1 0 36 0 4 4 13 31 5 1 2 2 14 31 0 1 1 0 1 0 36 0 0 0 22 0 32 6 
ELSE[ ]\011/* Else */
MPPEM[ ]\011/* MeasurePixelPerEm */
PUSHB[ ]\011/* 1 value pushed */
95 
LT[ ]\011/* LessThan */
IF[ ]\011/* If */
NPUSHB[ ]\011/* 35 values pushed */
9 1 0 1 1 30 0 1 0 0 1 0 1 0 37 0 3 3 4 1 0 36 0 4 4 13 31 5 1 2 2 14 2 32 5 
ELSE[ ]\011/* Else */
MPPEM[ ]\011/* MeasurePixelPerEm */
PUSHB[ ]\011/* 1 value pushed */
141 
LT[ ]\011/* LessThan */
IF[ ]\011/* If */
NPUSHB[ ]\011/* 38 values pushed */
9 1 0 1 1 30 5 1 2 3 1 3 2 1 50 0 1 0 0 1 0 1 0 37 0 3 3 4 1 0 36 0 4 4 13 3 32 5 
ELSE[ ]\011/* Else */
NPUSHB[ ]\011/* 48 values pushed */
9 1 0 1 1 30 5 1 2 3 1 3 2 1 50 0 4 0 3 2 4 3 1 0 38 0 1 0 0 1 1 0 35 0 1 1 0 1 0 36 0 0 1 0 1 0 33 6 
EIF[ ]\011/* EndIf */
EIF[ ]\011/* EndIf */
EIF[ ]\011/* EndIf */
EIF[ ]\011/* EndIf */
PUSHB[ ]\011/* 1 value pushed */
56 
CALL[ ]\011/* CallFunction */";
};
width = 508;
}
);
note = j;
unicode = 006A;
},
{
glyphname = k;
layers = (
{
layerId = "35A30917-2BE5-44A3-8659-B24E5BB0D762";
paths = (
{
closed = 1;
nodes = (
"152 1473 LINE",
"152 0 LINE",
"331 0 LINE",
"331 484 LINE",
"381 484 LINE SMOOTH",
"421 484 OFFCURVE",
"436 478 OFFCURVE",
"456 450 CURVE",
"789 35 LINE SMOOTH",
"807.667 11 OFFCURVE",
"826.667 0 OFFCURVE",
"856 0 CURVE SMOOTH",
"1016 0 LINE",
"620 500 LINE",
"602.667 526.667 OFFCURVE",
"584 547 OFFCURVE",
"560 563 CURVE",
"582.667 576.333 OFFCURVE",
"599.333 593.333 OFFCURVE",
"618 616 CURVE",
"991 1013 LINE",
"829 1013 LINE SMOOTH",
"795.667 1013 OFFCURVE",
"779 998.333 OFFCURVE",
"759 977 CURVE SMOOTH",
"439 634 LINE SMOOTH",
"417.667 611.333 OFFCURVE",
"403.667 606 OFFCURVE",
"377 606 CURVE SMOOTH",
"331 606 LINE",
"331 1473 LINE"
);
}
);
userData = {
assembly = "NPUSHB[ ]\011/* 18 values pushed */
0 0 0 30 0 30 29 28 27 25 20 18 10 8 3 1 7 7 
CALL[ ]\011/* CallFunction */
MPPEM[ ]\011/* MeasurePixelPerEm */
PUSHB[ ]\011/* 1 value pushed */
95 
LT[ ]\011/* LessThan */
IF[ ]\011/* If */
NPUSHB[ ]\011/* 35 values pushed */
14 1 3 0 1 30 0 0 0 3 2 0 3 1 0 38 6 1 5 5 13 31 0 1 1 14 31 4 1 2 2 12 2 32 5 
ELSE[ ]\011/* Else */
MPPEM[ ]\011/* MeasurePixelPerEm */
PUSHB[ ]\011/* 1 value pushed */
108 
LT[ ]\011/* LessThan */
IF[ ]\011/* If */
NPUSHB[ ]\011/* 37 values pushed */
14 1 3 0 1 30 0 0 0 3 2 0 3 1 0 38 6 1 5 5 13 31 0 1 1 2 1 0 36 4 1 2 2 15 2 32 5 
ELSE[ ]\011/* Else */
MPPEM[ ]\011/* MeasurePixelPerEm */
PUSHB[ ]\011/* 1 value pushed */
141 
LT[ ]\011/* LessThan */
IF[ ]\011/* If */
NPUSHB[ ]\011/* 40 values pushed */
14 1 3 0 1 30 0 1 0 2 1 1 0 35 0 0 0 3 2 0 3 1 0 38 4 1 2 2 5 0 0 36 6 1 5 5 13 5 32 5 
ELSE[ ]\011/* Else */
MPPEM[ ]\011/* MeasurePixelPerEm */
PUSHB[ ]\011/* 1 value pushed */
232 
LT[ ]\011/* LessThan */
IF[ ]\011/* If */
NPUSHB[ ]\011/* 49 values pushed */
14 1 3 0 1 30 6 1 5 1 2 5 0 0 35 0 1 0 2 1 1 0 35 0 0 0 3 2 0 3 1 0 38 0 1 1 2 1 0 36 4 1 2 1 2 1 0 33 6 
ELSE[ ]\011/* Else */
NPUSHB[ ]\011/* 50 values pushed */
14 1 3 0 1 30 0 1 0 2 1 1 0 35 0 0 0 3 4 0 3 1 0 38 6 1 5 0 4 2 5 4 0 0 38 0 1 1 2 1 0 36 0 2 1 2 1 0 33 6 
EIF[ ]\011/* EndIf */
EIF[ ]\011/* EndIf */
EIF[ ]\011/* EndIf */
EIF[ ]\011/* EndIf */
PUSHB[ ]\011/* 1 value pushed */
56 
CALL[ ]\011/* CallFunction */";
};
width = 1048;
}
);
note = k;
unicode = 006B;
},
{
glyphname = l;
layers = (
{
layerId = "35A30917-2BE5-44A3-8659-B24E5BB0D762";
paths = (
{
closed = 1;
nodes = (
"166 1473 LINE",
"166 0 LINE",
"344 0 LINE",
"344 1473 LINE"
);
}
);
userData = {
assembly = "NPUSHB[ ]\011/* 10 values pushed */
0 0 0 3 0 3 2 1 3 7 
CALL[ ]\011/* CallFunction */
MPPEM[ ]\011/* MeasurePixelPerEm */
PUSHB[ ]\011/* 1 value pushed */
95 
LT[ ]\011/* LessThan */
IF[ ]\011/* If */
NPUSHB[ ]\011/* 13 values pushed */
2 1 1 1 13 31 0 0 0 12 0 32 2 
ELSE[ ]\011/* Else */
MPPEM[ ]\011/* MeasurePixelPerEm */
PUSHB[ ]\011/* 1 value pushed */
108 
LT[ ]\011/* LessThan */
IF[ ]\011/* If */
NPUSHB[ ]\011/* 13 values pushed */
2 1 1 1 13 31 0 0 0 15 0 32 2 
ELSE[ ]\011/* Else */
MPPEM[ ]\011/* MeasurePixelPerEm */
PUSHB[ ]\011/* 1 value pushed */
141 
LT[ ]\011/* LessThan */
IF[ ]\011/* If */
NPUSHB[ ]\011/* 15 values pushed */
0 0 0 1 0 0 36 2 1 1 1 13 0 32 2 
ELSE[ ]\011/* Else */
NPUSHB[ ]\011/* 25 values pushed */
2 1 1 0 0 1 0 0 35 2 1 1 1 0 0 0 36 0 0 1 0 0 0 33 3 
EIF[ ]\011/* EndIf */
EIF[ ]\011/* EndIf */
EIF[ ]\011/* EndIf */
PUSHB[ ]\011/* 1 value pushed */
56 
CALL[ ]\011/* CallFunction */";
};
width = 512;
}
);
note = l;
unicode = 006C;
},
{
glyphname = lslash;
layers = (
{
layerId = "35A30917-2BE5-44A3-8659-B24E5BB0D762";
paths = (
{
closed = 1;
nodes = (
"231 1473 LINE",
"231 834 LINE",
"79 766 LINE SMOOTH",
"62.333 758.667 OFFCURVE",
"54 745.333 OFFCURVE",
"54 726 CURVE SMOOTH",
"54 621 LINE",
"231 697 LINE",
"231 0 LINE",
"409 0 LINE",
"409 763 LINE",
"560 830 LINE SMOOTH",
"580 839.333 OFFCURVE",
"587 852.667 OFFCURVE",
"587 874 CURVE SMOOTH",
"587 976 LINE",
"409 899 LINE",
"409 1473 LINE"
);
}
);
userData = {
assembly = "NPUSHB[ ]\011/* 10 values pushed */
0 0 0 16 0 16 9 8 3 7 
CALL[ ]\011/* CallFunction */
MPPEM[ ]\011/* MeasurePixelPerEm */
PUSHB[ ]\011/* 1 value pushed */
95 
LT[ ]\011/* LessThan */
IF[ ]\011/* If */
NPUSHB[ ]\011/* 24 values pushed */
15 11 10 7 2 1 6 0 1 1 30 2 1 1 1 13 31 0 0 0 12 0 32 3 
ELSE[ ]\011/* Else */
MPPEM[ ]\011/* MeasurePixelPerEm */
PUSHB[ ]\011/* 1 value pushed */
108 
LT[ ]\011/* LessThan */
IF[ ]\011/* If */
NPUSHB[ ]\011/* 24 values pushed */
15 11 10 7 2 1 6 0 1 1 30 2 1 1 1 13 31 0 0 0 15 0 32 3 
ELSE[ ]\011/* Else */
MPPEM[ ]\011/* MeasurePixelPerEm */
PUSHB[ ]\011/* 1 value pushed */
141 
LT[ ]\011/* LessThan */
IF[ ]\011/* If */
NPUSHB[ ]\011/* 26 values pushed */
15 11 10 7 2 1 6 0 1 1 30 0 0 0 1 0 0 36 2 1 1 1 13 0 32 3 
ELSE[ ]\011/* Else */
NPUSHB[ ]\011/* 36 values pushed */
15 11 10 7 2 1 6 0 1 1 30 2 1 1 0 0 1 0 0 35 2 1 1 1 0 0 0 36 0 0 1 0 0 0 33 4 
EIF[ ]\011/* EndIf */
EIF[ ]\011/* EndIf */
EIF[ ]\011/* EndIf */
PUSHB[ ]\011/* 1 value pushed */
56 
CALL[ ]\011/* CallFunction */";
};
width = 642;
}
);
note = lslash;
unicode = 0142;
},
{
glyphname = m;
layers = (
{
layerId = "35A30917-2BE5-44A3-8659-B24E5BB0D762";
paths = (
{
closed = 1;
nodes = (
"324 0 LINE",
"324 755 LINE",
"386.667 836.333 OFFCURVE",
"462 887 OFFCURVE",
"550 887 CURVE SMOOTH",
"675.333 887 OFFCURVE",
"742 807.667 OFFCURVE",
"742 645 CURVE SMOOTH",
"742 0 LINE",
"920 0 LINE",
"920 645 LINE SMOOTH",
"920 796.009 OFFCURVE",
"1011.962 887 OFFCURVE",
"1138 887 CURVE SMOOTH",
"1270 887 OFFCURVE",
"1341 803.667 OFFCURVE",
"1341 645 CURVE SMOOTH",
"1341 0 LINE",
"1519 0 LINE",
"1519 645 LINE SMOOTH",
"1519 767.667 OFFCURVE",
"1487.5 863.667 OFFCURVE",
"1429.5 929 CURVE SMOOTH",
"1371.5 994.333 OFFCURVE",
"1287.667 1029 OFFCURVE",
"1181 1029 CURVE SMOOTH",
"1043.416 1029 OFFCURVE",
"912.59 960.975 OFFCURVE",
"858 818 CURVE",
"820.667 947.333 OFFCURVE",
"737.333 1029 OFFCURVE",
"600 1029 CURVE SMOOTH",
"477.333 1029 OFFCURVE",
"387.667 964 OFFCURVE",
"313 872 CURVE",
"300 976 LINE",
"293.333 1000.667 OFFCURVE",
"277.333 1013 OFFCURVE",
"252 1013 CURVE SMOOTH",
"146 1013 LINE",
"146 0 LINE"
);
}
);
userData = {
assembly = "NPUSHB[ ]\011/* 22 values pushed */
0 0 0 42 0 42 39 37 34 33 28 26 23 22 17 15 9 7 3 1 9 7 
CALL[ ]\011/* CallFunction */
MPPEM[ ]\011/* MeasurePixelPerEm */
PUSHB[ ]\011/* 1 value pushed */
30 
LT[ ]\011/* LessThan */
IF[ ]\011/* If */
NPUSHB[ ]\011/* 33 values pushed */
41 11 5 3 3 4 1 30 6 1 4 4 0 1 0 36 2 1 2 0 0 14 31 8 7 5 3 3 3 12 3 32 4 
ELSE[ ]\011/* Else */
MPPEM[ ]\011/* MeasurePixelPerEm */
PUSHB[ ]\011/* 1 value pushed */
95 
LT[ ]\011/* LessThan */
IF[ ]\011/* If */
NPUSHB[ ]\011/* 37 values pushed */
41 11 5 3 3 4 1 30 0 0 0 14 31 6 1 4 4 1 1 0 36 2 1 1 1 20 31 8 7 5 3 3 3 12 3 32 5 
ELSE[ ]\011/* Else */
MPPEM[ ]\011/* MeasurePixelPerEm */
PUSHB[ ]\011/* 1 value pushed */
108 
LT[ ]\011/* LessThan */
IF[ ]\011/* If */
NPUSHB[ ]\011/* 37 values pushed */
41 11 5 3 3 4 1 30 2 1 1 6 1 4 3 1 4 1 0 38 0 0 0 3 0 0 36 8 7 5 3 3 3 15 3 32 4 
ELSE[ ]\011/* Else */
MPPEM[ ]\011/* MeasurePixelPerEm */
PUSHB[ ]\011/* 1 value pushed */
232 
LT[ ]\011/* LessThan */
IF[ ]\011/* If */
NPUSHB[ ]\011/* 46 values pushed */
41 11 5 3 3 4 1 30 0 0 4 3 0 1 0 35 2 1 1 6 1 4 3 1 4 1 0 38 0 0 0 3 0 0 36 8 7 5 3 3 0 3 0 0 33 5 
ELSE[ ]\011/* Else */
NPUSHB[ ]\011/* 64 values pushed */
41 11 5 3 7 4 1 30 0 5 7 3 7 5 3 50 0 3 3 51 0 0 6 7 0 1 0 35 0 1 0 6 4 1 6 1 0 38 0 2 0 4 7 2 4 1 0 38 0 0 0 7 0 0 36 8 1 7 0 7 0 0 33 8 
EIF[ ]\011/* EndIf */
EIF[ ]\011/* EndIf */
EIF[ ]\011/* EndIf */
EIF[ ]\011/* EndIf */
PUSHB[ ]\011/* 1 value pushed */
56 
CALL[ ]\011/* CallFunction */";
};
width = 1642;
}
);
note = m;
unicode = 006D;
},
{
glyphname = n;
layers = (
{
layerId = "35A30917-2BE5-44A3-8659-B24E5BB0D762";
paths = (
{
closed = 1;
nodes = (
"324 0 LINE",
"324 746 LINE",
"401.333 832.667 OFFCURVE",
"492.667 887 OFFCURVE",
"598 887 CURVE SMOOTH",
"742 887 OFFCURVE",
"811 798.333 OFFCURVE",
"811 645 CURVE SMOOTH",
"811 0 LINE",
"989 0 LINE",
"989 645 LINE SMOOTH",
"989 759.667 OFFCURVE",
"959.167 856.167 OFFCURVE",
"902.5 923.5 CURVE SMOOTH",
"845.833 990.833 OFFCURVE",
"760.667 1029 OFFCURVE",
"650 1029 CURVE SMOOTH",
"507.333 1029 OFFCURVE",
"402 963.333 OFFCURVE",
"314 866 CURVE",
"300 976 LINE",
"293.333 1000.667 OFFCURVE",
"277.333 1013 OFFCURVE",
"252 1013 CURVE SMOOTH",
"146 1013 LINE",
"146 0 LINE"
);
}
);
userData = {
assembly = "NPUSHB[ ]\011/* 16 values pushed */
0 0 0 23 0 23 20 18 15 14 9 7 3 1 6 7 
CALL[ ]\011/* CallFunction */
MPPEM[ ]\011/* MeasurePixelPerEm */
PUSHB[ ]\011/* 1 value pushed */
30 
LT[ ]\011/* LessThan */
IF[ ]\011/* If */
NPUSHB[ ]\011/* 29 values pushed */
22 5 2 2 3 1 30 0 3 3 0 1 0 36 1 1 0 0 14 31 5 4 2 2 2 12 2 32 4 
ELSE[ ]\011/* Else */
MPPEM[ ]\011/* MeasurePixelPerEm */
PUSHB[ ]\011/* 1 value pushed */
95 
LT[ ]\011/* LessThan */
IF[ ]\011/* If */
NPUSHB[ ]\011/* 33 values pushed */
22 5 2 2 3 1 30 0 0 0 14 31 0 3 3 1 1 0 36 0 1 1 20 31 5 4 2 2 2 12 2 32 5 
ELSE[ ]\011/* Else */
MPPEM[ ]\011/* MeasurePixelPerEm */
PUSHB[ ]\011/* 1 value pushed */
108 
LT[ ]\011/* LessThan */
IF[ ]\011/* If */
NPUSHB[ ]\011/* 33 values pushed */
22 5 2 2 3 1 30 0 1 0 3 2 1 3 1 0 38 0 0 0 2 0 0 36 5 4 2 2 2 15 2 32 4 
ELSE[ ]\011/* Else */
MPPEM[ ]\011/* MeasurePixelPerEm */
PUSHB[ ]\011/* 1 value pushed */
232 
LT[ ]\011/* LessThan */
IF[ ]\011/* If */
NPUSHB[ ]\011/* 42 values pushed */
22 5 2 2 3 1 30 0 0 3 2 0 1 0 35 0 1 0 3 2 1 3 1 0 38 0 0 0 2 0 0 36 5 4 2 2 0 2 0 0 33 5 
ELSE[ ]\011/* Else */
NPUSHB[ ]\011/* 46 values pushed */
22 5 2 4 3 1 30 0 2 4 2 53 0 0 3 4 0 1 0 35 0 1 0 3 4 1 3 1 0 38 0 0 0 4 0 0 36 5 1 4 0 4 0 0 33 6 
EIF[ ]\011/* EndIf */
EIF[ ]\011/* EndIf */
EIF[ ]\011/* EndIf */
EIF[ ]\011/* EndIf */
PUSHB[ ]\011/* 1 value pushed */
56 
CALL[ ]\011/* CallFunction */";
};
width = 1112;
}
);
note = n;
unicode = 006E;
},
{
glyphname = o;
layers = (
{
layerId = "35A30917-2BE5-44A3-8659-B24E5BB0D762";
paths = (
{
closed = 1;
nodes = (
"408 1029 OFFCURVE",
"287 977.667 OFFCURVE",
"203 887 CURVE SMOOTH",
"119 796.333 OFFCURVE",
"72 665.667 OFFCURVE",
"72 507 CURVE SMOOTH",
"72 347 OFFCURVE",
"119 217.667 OFFCURVE",
"203 127 CURVE SMOOTH",
"287 36.333 OFFCURVE",
"408 -14 OFFCURVE",
"556 -14 CURVE SMOOTH",
"704 -14 OFFCURVE",
"825.167 36.333 OFFCURVE",
"908.5 127 CURVE SMOOTH",
"991.833 217.667 OFFCURVE",
"1038 347 OFFCURVE",
"1038 507 CURVE SMOOTH",
"1038 665.667 OFFCURVE",
"991.833 796.333 OFFCURVE",
"908.5 887 CURVE SMOOTH",
"825.167 977.667 OFFCURVE",
"704 1029 OFFCURVE",
"556 1029 CURVE SMOOTH"
);
},
{
closed = 1;
nodes = (
"454.667 125 OFFCURVE",
"380.5 160.833 OFFCURVE",
"330.5 225.5 CURVE SMOOTH",
"280.5 290.167 OFFCURVE",
"256 386 OFFCURVE",
"256 506 CURVE SMOOTH",
"256 626 OFFCURVE",
"280.5 722.667 OFFCURVE",
"330.5 788 CURVE SMOOTH",
"380.5 853.333 OFFCURVE",
"454.667 889 OFFCURVE",
"556 889 CURVE SMOOTH",
"756 889 OFFCURVE",
"854 747.333 OFFCURVE",
"854 506 CURVE SMOOTH",
"854 266 OFFCURVE",
"756 125 OFFCURVE",
"556 125 CURVE SMOOTH"
);
}
);
userData = {
assembly = "NPUSHB[ ]\011/* 18 values pushed */
21 20 1 0 27 25 20 35 21 35 11 9 0 19 1 19 6 7 
CALL[ ]\011/* CallFunction */
MPPEM[ ]\011/* MeasurePixelPerEm */
PUSHB[ ]\011/* 1 value pushed */
9 
LT[ ]\011/* LessThan */
IF[ ]\011/* If */
NPUSHB[ ]\011/* 28 values pushed */
0 3 3 0 1 0 36 4 1 0 0 20 31 5 1 2 2 1 1 0 36 0 1 1 18 1 32 4 
ELSE[ ]\011/* Else */
MPPEM[ ]\011/* MeasurePixelPerEm */
PUSHB[ ]\011/* 1 value pushed */
95 
LT[ ]\011/* LessThan */
IF[ ]\011/* If */
NPUSHB[ ]\011/* 28 values pushed */
0 3 3 0 1 0 36 4 1 0 0 20 31 5 1 2 2 1 1 0 36 0 1 1 21 1 32 4 
ELSE[ ]\011/* Else */
MPPEM[ ]\011/* MeasurePixelPerEm */
PUSHB[ ]\011/* 1 value pushed */
108 
LT[ ]\011/* LessThan */
IF[ ]\011/* If */
NPUSHB[ ]\011/* 26 values pushed */
4 1 0 0 3 2 0 3 1 0 38 5 1 2 2 1 1 0 36 0 1 1 21 1 32 3 
ELSE[ ]\011/* Else */
NPUSHB[ ]\011/* 36 values pushed */
4 1 0 0 3 2 0 3 1 0 38 5 1 2 1 1 2 1 0 35 5 1 2 2 1 1 0 36 0 1 2 1 1 0 33 4 
EIF[ ]\011/* EndIf */
EIF[ ]\011/* EndIf */
EIF[ ]\011/* EndIf */
PUSHB[ ]\011/* 1 value pushed */
56 
CALL[ ]\011/* CallFunction */";
};
width = 1112;
}
);
note = o;
unicode = 006F;
},
{
glyphname = oslash;
layers = (
{
layerId = "35A30917-2BE5-44A3-8659-B24E5BB0D762";
paths = (
{
closed = 1;
nodes = (
"1069 1097 LINE",
"979 1097 LINE SMOOTH",
"936.333 1097 OFFCURVE",
"921.667 1083 OFFCURVE",
"895 1047 CURVE SMOOTH",
"827 956 LINE",
"752.333 1002.667 OFFCURVE",
"662.333 1029 OFFCURVE",
"557 1029 CURVE SMOOTH",
"409 1029 OFFCURVE",
"288 977.667 OFFCURVE",
"204 887 CURVE SMOOTH",
"120 796.333 OFFCURVE",
"73 665.667 OFFCURVE",
"73 507 CURVE SMOOTH",
"73 341.667 OFFCURVE",
"121 212 OFFCURVE",
"209 120 CURVE",
"64 -76 LINE",
"131 -76 LINE SMOOTH",
"169.667 -76 OFFCURVE",
"211.667 -60.667 OFFCURVE",
"241 -22 CURVE SMOOTH",
"296 52 LINE",
"368 9.333 OFFCURVE",
"455.667 -14 OFFCURVE",
"557 -14 CURVE SMOOTH",
"705 -14 OFFCURVE",
"826.167 36.333 OFFCURVE",
"909.5 127 CURVE SMOOTH",
"992.833 217.667 OFFCURVE",
"1039 347 OFFCURVE",
"1039 507 CURVE SMOOTH",
"1039 664.333 OFFCURVE",
"993.333 793.333 OFFCURVE",
"912 884 CURVE"
);
},
{
closed = 1;
nodes = (
"246 626 OFFCURVE",
"272.833 724.333 OFFCURVE",
"325.5 791 CURVE SMOOTH",
"378.167 857.667 OFFCURVE",
"455.667 895 OFFCURVE",
"557 895 CURVE SMOOTH",
"631 895 OFFCURVE",
"692.333 876.333 OFFCURVE",
"741 839 CURVE",
"305 249 LINE",
"265.667 313.667 OFFCURVE",
"246 399.333 OFFCURVE",
"246 506 CURVE SMOOTH"
);
},
{
closed = 1;
nodes = (
"486.333 120 OFFCURVE",
"427.667 136 OFFCURVE",
"381 168 CURVE",
"814 753 LINE",
"848.667 689 OFFCURVE",
"866 606.667 OFFCURVE",
"866 506 CURVE SMOOTH",
"866 386 OFFCURVE",
"839.167 289.667 OFFCURVE",
"786.5 223 CURVE SMOOTH",
"733.833 156.333 OFFCURVE",
"657 120 OFFCURVE",
"557 120 CURVE SMOOTH"
);
}
);
userData = {
assembly = "NPUSHB[ ]\011/* 18 values pushed */
45 44 44 53 45 53 40 38 33 31 26 24 16 14 9 7 7 7 
CALL[ ]\011/* CallFunction */
MPPEM[ ]\011/* MeasurePixelPerEm */
PUSHB[ ]\011/* 1 value pushed */
9 
LT[ ]\011/* LessThan */
IF[ ]\011/* If */
NPUSHB[ ]\011/* 60 values pushed */
28 1 4 2 52 51 37 36 0 5 5 4 11 1 0 5 3 30 17 1 5 1 29 0 3 2 3 52 0 1 0 1 53 0 4 4 2 1 0 36 0 2 2 20 31 6 1 5 5 0 1 0 36 0 0 0 18 0 32 8 
ELSE[ ]\011/* Else */
MPPEM[ ]\011/* MeasurePixelPerEm */
PUSHB[ ]\011/* 1 value pushed */
95 
LT[ ]\011/* LessThan */
IF[ ]\011/* If */
NPUSHB[ ]\011/* 60 values pushed */
28 1 4 2 52 51 37 36 0 5 5 4 11 1 0 5 3 30 17 1 5 1 29 0 3 2 3 52 0 1 0 1 53 0 4 4 2 1 0 36 0 2 2 20 31 6 1 5 5 0 1 0 36 0 0 0 21 0 32 8 
ELSE[ ]\011/* Else */
MPPEM[ ]\011/* MeasurePixelPerEm */
PUSHB[ ]\011/* 1 value pushed */
108 
LT[ ]\011/* LessThan */
IF[ ]\011/* If */
NPUSHB[ ]\011/* 58 values pushed */
28 1 4 2 52 51 37 36 0 5 5 4 11 1 0 5 3 30 17 1 5 1 29 0 3 2 3 52 0 1 0 1 53 0 2 0 4 5 2 4 1 0 38 6 1 5 5 0 1 0 36 0 0 0 21 0 32 7 
ELSE[ ]\011/* Else */
NPUSHB[ ]\011/* 68 values pushed */
28 1 4 2 52 51 37 36 0 5 5 4 11 1 0 5 3 30 17 1 5 1 29 0 3 2 3 52 0 1 0 1 53 0 2 0 4 5 2 4 1 0 38 6 1 5 0 0 5 1 0 35 6 1 5 5 0 1 0 36 0 0 5 0 1 0 33 8 
EIF[ ]\011/* EndIf */
EIF[ ]\011/* EndIf */
EIF[ ]\011/* EndIf */
PUSHB[ ]\011/* 1 value pushed */
56 
CALL[ ]\011/* CallFunction */";
};
width = 1112;
}
);
note = oslash;
unicode = 00F8;
},
{
glyphname = oe;
layers = (
{
layerId = "35A30917-2BE5-44A3-8659-B24E5BB0D762";
paths = (
{
closed = 1;
nodes = (
"1090.667 1029 OFFCURVE",
"964.667 938 OFFCURVE",
"898 798 CURVE",
"827.333 944.667 OFFCURVE",
"698.667 1029 OFFCURVE",
"524 1029 CURVE SMOOTH",
"388 1029 OFFCURVE",
"274.833 977.667 OFFCURVE",
"195.5 887 CURVE SMOOTH",
"116.167 796.333 OFFCURVE",
"72 665.667 OFFCURVE",
"72 507 CURVE SMOOTH",
"72 347 OFFCURVE",
"116.5 217.667 OFFCURVE",
"194.5 127 CURVE SMOOTH",
"272.5 36.333 OFFCURVE",
"383.667 -14 OFFCURVE",
"517 -14 CURVE SMOOTH",
"699.667 -14 OFFCURVE",
"829 70.667 OFFCURVE",
"901 220 CURVE",
"974.333 61.333 OFFCURVE",
"1107.333 -14 OFFCURVE",
"1266 -14 CURVE SMOOTH",
"1404.605 -14 OFFCURVE",
"1555.886 36.407 OFFCURVE",
"1643 142 CURVE",
"1592 207 LINE",
"1584 218.333 OFFCURVE",
"1573 224 OFFCURVE",
"1559 224 CURVE SMOOTH",
"1537.489 224 OFFCURVE",
"1497.053 193.592 OFFCURVE",
"1464 175 CURVE SMOOTH",
"1421.333 151 OFFCURVE",
"1363.333 126 OFFCURVE",
"1282 126 CURVE SMOOTH",
"1195.333 126 OFFCURVE",
"1124.833 155 OFFCURVE",
"1073.5 215 CURVE SMOOTH",
"1022.167 275 OFFCURVE",
"990.333 364.667 OFFCURVE",
"985 486 CURVE",
"1612 486 LINE SMOOTH",
"1645.333 486 OFFCURVE",
"1653 501.333 OFFCURVE",
"1653 556 CURVE SMOOTH",
"1653 705.333 OFFCURVE",
"1611.167 822.667 OFFCURVE",
"1542.5 904 CURVE SMOOTH",
"1473.833 985.333 OFFCURVE",
"1377.333 1029 OFFCURVE",
"1268 1029 CURVE SMOOTH"
);
},
{
closed = 1;
nodes = (
"346 125 OFFCURVE",
"256 266 OFFCURVE",
"256 506 CURVE SMOOTH",
"256 626 OFFCURVE",
"278.5 722.667 OFFCURVE",
"324.5 788 CURVE SMOOTH",
"370.5 853.333 OFFCURVE",
"439.333 889 OFFCURVE",
"534 889 CURVE SMOOTH",
"626 889 OFFCURVE",
"695.667 853.333 OFFCURVE",
"741 788 CURVE SMOOTH",
"786.333 722.667 OFFCURVE",
"809 626 OFFCURVE",
"809 506 CURVE SMOOTH",
"809 266 OFFCURVE",
"719.333 125 OFFCURVE",
"534 125 CURVE SMOOTH"
);
},
{
closed = 1;
nodes = (
"1413.011 898 OFFCURVE",
"1495 767.405 OFFCURVE",
"1495 597 CURVE",
"987 597 LINE",
"996.333 690.333 OFFCURVE",
"1024.5 766 OFFCURVE",
"1070.5 818 CURVE SMOOTH",
"1116.5 870 OFFCURVE",
"1180.667 898 OFFCURVE",
"1262 898 CURVE SMOOTH"
);
}
);
userData = {
assembly = "NPUSHB[ ]\011/* 36 values pushed */
66 65 50 49 1 0 71 70 65 75 66 75 58 56 49 64 50 64 44 42 34 32 28 26 20 18 15 13 9 7 0 48 1 48 14 7 
CALL[ ]\011/* CallFunction */
MPPEM[ ]\011/* MeasurePixelPerEm */
PUSHB[ ]\011/* 1 value pushed */
9 
LT[ ]\011/* LessThan */
IF[ ]\011/* If */
NPUSHB[ ]\011/* 62 values pushed */
46 1 10 8 30 22 2 2 3 2 30 0 3 1 2 1 3 2 50 0 10 0 1 3 10 1 1 0 38 13 9 2 8 8 0 1 0 36 6 11 2 0 0 20 31 12 7 2 2 2 4 1 0 36 5 1 4 4 18 4 32 7 
ELSE[ ]\011/* Else */
MPPEM[ ]\011/* MeasurePixelPerEm */
PUSHB[ ]\011/* 1 value pushed */
54 
LT[ ]\011/* LessThan */
IF[ ]\011/* If */
NPUSHB[ ]\011/* 62 values pushed */
46 1 10 8 30 22 2 2 3 2 30 0 3 1 2 1 3 2 50 0 10 0 1 3 10 1 1 0 38 13 9 2 8 8 0 1 0 36 6 11 2 0 0 20 31 12 7 2 2 2 4 1 0 36 5 1 4 4 21 4 32 7 
ELSE[ ]\011/* Else */
MPPEM[ ]\011/* MeasurePixelPerEm */
PUSHB[ ]\011/* 1 value pushed */
95 
LT[ ]\011/* LessThan */
IF[ ]\011/* If */
NPUSHB[ ]\011/* 75 values pushed */
46 1 10 8 30 22 2 2 3 2 30 0 3 1 2 1 3 2 50 0 10 0 1 3 10 1 1 0 38 13 1 9 9 0 1 0 36 6 11 2 0 0 20 31 0 8 8 0 1 0 36 6 11 2 0 0 20 31 12 7 2 2 2 4 1 0 36 5 1 4 4 21 4 32 9 
ELSE[ ]\011/* Else */
MPPEM[ ]\011/* MeasurePixelPerEm */
PUSHB[ ]\011/* 1 value pushed */
108 
LT[ ]\011/* LessThan */
IF[ ]\011/* If */
NPUSHB[ ]\011/* 67 values pushed */
46 1 10 8 30 22 2 2 3 2 30 0 3 1 2 1 3 2 50 13 1 9 8 0 9 1 0 35 6 11 2 0 0 8 10 0 8 1 0 38 0 10 0 1 3 10 1 1 0 38 12 7 2 2 2 4 1 0 36 5 1 4 4 21 4 32 7 
ELSE[ ]\011/* Else */
MPPEM[ ]\011/* MeasurePixelPerEm */
PUSHB[ ]\011/* 1 value pushed */
78 
LT[ ]\011/* LessThan */
IF[ ]\011/* If */
NPUSHB[ ]\011/* 78 values pushed */
46 1 10 8 30 22 2 2 3 2 30 0 3 1 2 1 3 2 50 13 1 9 8 0 9 1 0 35 6 11 2 0 0 8 10 0 8 1 0 38 0 10 0 1 3 10 1 1 0 38 12 7 2 2 4 4 2 1 0 35 12 7 2 2 2 4 1 0 36 5 1 4 2 4 1 0 33 8 
ELSE[ ]\011/* Else */
MPPEM[ ]\011/* MeasurePixelPerEm */
PUSHW[ ]\011/* 1 value pushed */
1000 
LT[ ]\011/* LessThan */
IF[ ]\011/* If */
NPUSHB[ ]\011/* 84 values pushed */
46 1 10 8 30 22 2 2 3 2 30 0 3 1 2 1 3 2 50 13 1 9 8 0 9 1 0 35 6 11 2 0 0 8 10 0 8 1 0 38 0 10 0 1 3 10 1 1 0 38 0 2 7 4 2 1 0 35 12 1 7 4 4 7 1 0 35 12 1 7 7 4 1 0 36 5 1 4 7 4 1 0 33 9 
ELSE[ ]\011/* Else */
NPUSHB[ ]\011/* 85 values pushed */
46 1 10 8 30 22 2 2 3 2 30 0 3 1 2 1 3 2 50 11 1 0 13 1 9 8 0 9 1 0 38 0 6 0 8 10 6 8 1 0 38 0 10 0 1 3 10 1 1 0 38 0 2 7 4 2 1 0 35 12 1 7 0 5 4 7 5 1 0 38 0 2 2 4 1 0 36 0 4 2 4 1 0 33 9 
EIF[ ]\011/* EndIf */
EIF[ ]\011/* EndIf */
EIF[ ]\011/* EndIf */
EIF[ ]\011/* EndIf */
EIF[ ]\011/* EndIf */
EIF[ ]\011/* EndIf */
PUSHB[ ]\011/* 1 value pushed */
56 
CALL[ ]\011/* CallFunction */";
};
width = 1734;
}
);
note = oe;
unicode = 0153;
},
{
glyphname = p;
layers = (
{
layerId = "35A30917-2BE5-44A3-8659-B24E5BB0D762";
paths = (
{
closed = 1;
nodes = (
"324 -343 LINE",
"324 105 LINE",
"392 29 OFFCURVE",
"476.667 -14 OFFCURVE",
"602 -14 CURVE SMOOTH",
"738 -14 OFFCURVE",
"848.333 43.5 OFFCURVE",
"923 137.5 CURVE SMOOTH",
"997.667 231.5 OFFCURVE",
"1039 363.667 OFFCURVE",
"1039 513 CURVE SMOOTH",
"1039 681 OFFCURVE",
"1001.667 811.167 OFFCURVE",
"935 898.5 CURVE SMOOTH",
"868.333 985.833 OFFCURVE",
"772 1031 OFFCURVE",
"656 1031 CURVE SMOOTH",
"510.667 1031 OFFCURVE",
"401.667 961.333 OFFCURVE",
"315 856 CURVE",
"300 976 LINE",
"293.333 1000.667 OFFCURVE",
"277.333 1013 OFFCURVE",
"252 1013 CURVE SMOOTH",
"146 1013 LINE",
"146 -343 LINE"
);
},
{
closed = 1;
nodes = (
"678.333 887 OFFCURVE",
"743 860.167 OFFCURVE",
"787 799.5 CURVE SMOOTH",
"831 738.833 OFFCURVE",
"855 645 OFFCURVE",
"855 513 CURVE SMOOTH",
"855 263.667 OFFCURVE",
"750 124 OFFCURVE",
"562 124 CURVE SMOOTH",
"466 124 OFFCURVE",
"389.333 156 OFFCURVE",
"324 244 CURVE",
"324 734 LINE",
"397.333 831.333 OFFCURVE",
"481 887 OFFCURVE",
"597 887 CURVE SMOOTH"
);
}
);
userData = {
assembly = "NPUSHB[ ]\011/* 22 values pushed */
24 23 0 0 31 29 23 37 24 37 0 22 0 22 19 17 9 7 3 1 8 7 
CALL[ ]\011/* CallFunction */
MPPEM[ ]\011/* MeasurePixelPerEm */
PUSHB[ ]\011/* 1 value pushed */
9 
LT[ ]\011/* LessThan */
IF[ ]\011/* If */
NPUSHB[ ]\011/* 46 values pushed */
27 26 5 3 5 4 21 1 2 5 2 30 7 1 4 4 0 1 0 36 1 1 0 0 14 31 0 5 5 2 1 0 36 0 2 2 18 31 6 1 3 3 16 3 32 6 
ELSE[ ]\011/* Else */
MPPEM[ ]\011/* MeasurePixelPerEm */
PUSHB[ ]\011/* 1 value pushed */
26 
LT[ ]\011/* LessThan */
IF[ ]\011/* If */
NPUSHB[ ]\011/* 46 values pushed */
27 26 5 3 5 4 21 1 2 5 2 30 7 1 4 4 0 1 0 36 1 1 0 0 14 31 0 5 5 2 1 0 36 0 2 2 21 31 6 1 3 3 16 3 32 6 
ELSE[ ]\011/* Else */
MPPEM[ ]\011/* MeasurePixelPerEm */
PUSHB[ ]\011/* 1 value pushed */
73 
LT[ ]\011/* LessThan */
IF[ ]\011/* If */
NPUSHB[ ]\011/* 50 values pushed */
27 26 5 3 5 4 21 1 2 5 2 30 0 0 0 14 31 7 1 4 4 1 1 0 36 0 1 1 20 31 0 5 5 2 1 0 36 0 2 2 21 31 6 1 3 3 16 3 32 7 
ELSE[ ]\011/* Else */
MPPEM[ ]\011/* MeasurePixelPerEm */
PUSHB[ ]\011/* 1 value pushed */
95 
LT[ ]\011/* LessThan */
IF[ ]\011/* If */
NPUSHB[ ]\011/* 52 values pushed */
27 26 5 3 5 4 21 1 2 5 2 30 7 1 4 4 1 1 0 36 0 1 1 20 31 0 5 5 2 1 0 36 0 2 2 21 31 6 1 3 3 0 1 0 36 0 0 0 14 3 32 7 
ELSE[ ]\011/* Else */
MPPEM[ ]\011/* MeasurePixelPerEm */
PUSHB[ ]\011/* 1 value pushed */
108 
LT[ ]\011/* LessThan */
IF[ ]\011/* If */
NPUSHB[ ]\011/* 47 values pushed */
27 26 5 3 5 4 21 1 2 5 2 30 0 1 7 1 4 5 1 4 1 0 38 0 0 6 1 3 0 3 0 0 37 0 5 5 2 1 0 36 0 2 2 21 2 32 5 
ELSE[ ]\011/* Else */
NPUSHB[ ]\011/* 57 values pushed */
27 26 5 3 5 4 21 1 2 5 2 30 0 0 4 3 0 1 0 35 0 1 7 1 4 5 1 4 1 0 38 0 5 0 2 3 5 2 1 0 38 0 0 0 3 0 0 36 6 1 3 0 3 0 0 33 6 
EIF[ ]\011/* EndIf */
EIF[ ]\011/* EndIf */
EIF[ ]\011/* EndIf */
EIF[ ]\011/* EndIf */
EIF[ ]\011/* EndIf */
PUSHB[ ]\011/* 1 value pushed */
56 
CALL[ ]\011/* CallFunction */";
};
width = 1104;
}
);
note = p;
unicode = 0070;
},
{
glyphname = thorn;
layers = (
{
layerId = "35A30917-2BE5-44A3-8659-B24E5BB0D762";
paths = (
{
closed = 1;
nodes = (
"324 -343 LINE",
"324 118 LINE",
"392 34 OFFCURVE",
"475.333 -14 OFFCURVE",
"602 -14 CURVE SMOOTH",
"738 -14 OFFCURVE",
"848.333 43.5 OFFCURVE",
"923 137.5 CURVE SMOOTH",
"997.667 231.5 OFFCURVE",
"1039 363.667 OFFCURVE",
"1039 513 CURVE SMOOTH",
"1039 681 OFFCURVE",
"1001.667 810.167 OFFCURVE",
"935 897.5 CURVE SMOOTH",
"868.333 984.833 OFFCURVE",
"772 1029 OFFCURVE",
"656 1029 CURVE SMOOTH",
"516 1029 OFFCURVE",
"408 964.667 OFFCURVE",
"324 866 CURVE",
"324 1473 LINE",
"146 1473 LINE",
"146 -343 LINE"
);
},
{
closed = 1;
nodes = (
"678.333 887 OFFCURVE",
"743 860.167 OFFCURVE",
"787 799.5 CURVE SMOOTH",
"831 738.833 OFFCURVE",
"855 645 OFFCURVE",
"855 513 CURVE SMOOTH",
"855 263.667 OFFCURVE",
"750 124 OFFCURVE",
"562 124 CURVE SMOOTH",
"466 124 OFFCURVE",
"389.333 156 OFFCURVE",
"324 244 CURVE",
"324 734 LINE",
"397.333 831.333 OFFCURVE",
"481 887 OFFCURVE",
"597 887 CURVE SMOOTH"
);
}
);
userData = {
assembly = "NPUSHB[ ]\011/* 22 values pushed */
22 21 0 0 29 27 21 35 22 35 0 20 0 20 17 15 7 5 2 1 8 7 
CALL[ ]\011/* CallFunction */
MPPEM[ ]\011/* MeasurePixelPerEm */
PUSHB[ ]\011/* 1 value pushed */
9 
LT[ ]\011/* LessThan */
IF[ ]\011/* If */
NPUSHB[ ]\011/* 50 values pushed */
25 24 3 3 5 4 19 1 2 5 2 30 0 0 0 13 31 7 1 4 4 1 1 0 36 0 1 1 20 31 0 5 5 2 1 0 36 0 2 2 18 31 6 1 3 3 16 3 32 7 
ELSE[ ]\011/* Else */
MPPEM[ ]\011/* MeasurePixelPerEm */
PUSHB[ ]\011/* 1 value pushed */
73 
LT[ ]\011/* LessThan */
IF[ ]\011/* If */
NPUSHB[ ]\011/* 50 values pushed */
25 24 3 3 5 4 19 1 2 5 2 30 0 0 0 13 31 7 1 4 4 1 1 0 36 0 1 1 20 31 0 5 5 2 1 0 36 0 2 2 21 31 6 1 3 3 16 3 32 7 
ELSE[ ]\011/* Else */
MPPEM[ ]\011/* MeasurePixelPerEm */
PUSHB[ ]\011/* 1 value pushed */
95 
LT[ ]\011/* LessThan */
IF[ ]\011/* If */
NPUSHB[ ]\011/* 52 values pushed */
25 24 3 3 5 4 19 1 2 5 2 30 7 1 4 4 1 1 0 36 0 1 1 20 31 0 5 5 2 1 0 36 0 2 2 21 31 6 1 3 3 0 0 0 36 0 0 0 13 3 32 7 
ELSE[ ]\011/* Else */
MPPEM[ ]\011/* MeasurePixelPerEm */
PUSHB[ ]\011/* 1 value pushed */
108 
LT[ ]\011/* LessThan */
IF[ ]\011/* If */
NPUSHB[ ]\011/* 50 values pushed */
25 24 3 3 5 4 19 1 2 5 2 30 0 1 7 1 4 5 1 4 1 0 38 0 5 5 2 1 0 36 0 2 2 21 31 6 1 3 3 0 0 0 36 0 0 0 13 3 32 6 
ELSE[ ]\011/* Else */
MPPEM[ ]\011/* MeasurePixelPerEm */
PUSHB[ ]\011/* 1 value pushed */
141 
LT[ ]\011/* LessThan */
IF[ ]\011/* If */
NPUSHB[ ]\011/* 48 values pushed */
25 24 3 3 5 4 19 1 2 5 2 30 0 1 7 1 4 5 1 4 1 0 38 0 5 0 2 3 5 2 1 0 38 6 1 3 3 0 0 0 36 0 0 0 13 3 32 5 
ELSE[ ]\011/* Else */
NPUSHB[ ]\011/* 57 values pushed */
25 24 3 3 5 4 19 1 2 5 2 30 0 0 1 3 0 0 0 35 0 1 7 1 4 5 1 4 1 0 38 0 5 0 2 3 5 2 1 0 38 0 0 0 3 0 0 36 6 1 3 0 3 0 0 33 6 
EIF[ ]\011/* EndIf */
EIF[ ]\011/* EndIf */
EIF[ ]\011/* EndIf */
EIF[ ]\011/* EndIf */
EIF[ ]\011/* EndIf */
PUSHB[ ]\011/* 1 value pushed */
56 
CALL[ ]\011/* CallFunction */";
};
width = 1104;
}
);
note = thorn;
unicode = 00FE;
},
{
glyphname = q;
layers = (
{
layerId = "35A30917-2BE5-44A3-8659-B24E5BB0D762";
paths = (
{
closed = 1;
nodes = (
"859 1013 LINE SMOOTH",
"833.667 1013 OFFCURVE",
"817.667 1000.667 OFFCURVE",
"811 976 CURVE",
"799 897 LINE",
"727 982.333 OFFCURVE",
"640.667 1031 OFFCURVE",
"510 1031 CURVE SMOOTH",
"372.667 1031 OFFCURVE",
"263.833 973.667 OFFCURVE",
"188.5 879 CURVE SMOOTH",
"113.167 784.333 OFFCURVE",
"72 652.333 OFFCURVE",
"72 503 CURVE SMOOTH",
"72 335 OFFCURVE",
"109.333 204.667 OFFCURVE",
"176 118 CURVE SMOOTH",
"242.667 31.333 OFFCURVE",
"339 -14 OFFCURVE",
"455 -14 CURVE SMOOTH",
"595 -14 OFFCURVE",
"701.667 51.333 OFFCURVE",
"787 150 CURVE",
"787 -343 LINE",
"965 -343 LINE",
"965 1013 LINE"
);
},
{
closed = 1;
nodes = (
"431.333 130 OFFCURVE",
"367 156.833 OFFCURVE",
"323 217.5 CURVE SMOOTH",
"279 278.167 OFFCURVE",
"256 371 OFFCURVE",
"256 503 CURVE SMOOTH",
"256 752.333 OFFCURVE",
"360.667 892 OFFCURVE",
"550 892 CURVE SMOOTH",
"644.667 892 OFFCURVE",
"723 858.333 OFFCURVE",
"787 773 CURVE",
"787 283 LINE",
"713.667 185.667 OFFCURVE",
"630 130 OFFCURVE",
"514 130 CURVE SMOOTH"
);
}
);
userData = {
assembly = "NPUSHB[ ]\011/* 22 values pushed */
24 23 0 0 31 29 23 37 24 37 0 22 0 21 17 15 7 5 2 1 8 7 
CALL[ ]\011/* CallFunction */
MPPEM[ ]\011/* MeasurePixelPerEm */
PUSHB[ ]\011/* 1 value pushed */
9 
LT[ ]\011/* LessThan */
IF[ ]\011/* If */
NPUSHB[ ]\011/* 46 values pushed */
19 1 5 2 27 26 3 3 4 5 2 30 0 5 5 2 1 0 36 6 3 2 2 2 20 31 7 1 4 4 1 1 0 36 0 1 1 18 31 0 0 0 16 0 32 6 
ELSE[ ]\011/* Else */
MPPEM[ ]\011/* MeasurePixelPerEm */
PUSHB[ ]\011/* 1 value pushed */
26 
LT[ ]\011/* LessThan */
IF[ ]\011/* If */
NPUSHB[ ]\011/* 46 values pushed */
19 1 5 2 27 26 3 3 4 5 2 30 0 5 5 2 1 0 36 6 3 2 2 2 20 31 7 1 4 4 1 1 0 36 0 1 1 21 31 0 0 0 16 0 32 6 
ELSE[ ]\011/* Else */
MPPEM[ ]\011/* MeasurePixelPerEm */
PUSHB[ ]\011/* 1 value pushed */
73 
LT[ ]\011/* LessThan */
IF[ ]\011/* If */
NPUSHB[ ]\011/* 50 values pushed */
19 1 5 3 27 26 3 3 4 5 2 30 6 1 3 3 14 31 0 5 5 2 1 0 36 0 2 2 20 31 7 1 4 4 1 1 0 36 0 1 1 21 31 0 0 0 16 0 32 7 
ELSE[ ]\011/* Else */
MPPEM[ ]\011/* MeasurePixelPerEm */
PUSHB[ ]\011/* 1 value pushed */
95 
LT[ ]\011/* LessThan */
IF[ ]\011/* If */
NPUSHB[ ]\011/* 52 values pushed */
19 1 5 3 27 26 3 3 4 5 2 30 0 5 5 2 1 0 36 0 2 2 20 31 7 1 4 4 1 1 0 36 0 1 1 21 31 0 0 0 3 1 0 36 6 1 3 3 14 0 32 7 
ELSE[ ]\011/* Else */
MPPEM[ ]\011/* MeasurePixelPerEm */
PUSHB[ ]\011/* 1 value pushed */
108 
LT[ ]\011/* LessThan */
IF[ ]\011/* If */
NPUSHB[ ]\011/* 47 values pushed */
19 1 5 3 27 26 3 3 4 5 2 30 0 2 0 5 4 2 5 1 0 38 6 1 3 0 0 3 0 0 0 37 7 1 4 4 1 1 0 36 0 1 1 21 1 32 5 
ELSE[ ]\011/* Else */
NPUSHB[ ]\011/* 58 values pushed */
19 1 5 3 27 26 3 3 4 5 2 30 6 1 3 5 0 3 1 0 35 0 2 0 5 4 2 5 1 0 38 7 1 4 0 1 0 4 1 1 0 38 6 1 3 3 0 0 0 36 0 0 3 0 0 0 33 6 
EIF[ ]\011/* EndIf */
EIF[ ]\011/* EndIf */
EIF[ ]\011/* EndIf */
EIF[ ]\011/* EndIf */
EIF[ ]\011/* EndIf */
PUSHB[ ]\011/* 1 value pushed */
56 
CALL[ ]\011/* CallFunction */";
};
width = 1118;
}
);
note = q;
unicode = 0071;
},
{
glyphname = r;
layers = (
{
layerId = "35A30917-2BE5-44A3-8659-B24E5BB0D762";
paths = (
{
closed = 1;
nodes = (
"324 0 LINE",
"324 645 LINE",
"380 782.333 OFFCURVE",
"460 856 OFFCURVE",
"584 856 CURVE SMOOTH",
"618.667 856 OFFCURVE",
"645.667 852.833 OFFCURVE",
"665 846.5 CURVE SMOOTH",
"684.333 840.167 OFFCURVE",
"698.667 837 OFFCURVE",
"708 837 CURVE SMOOTH",
"724 837 OFFCURVE",
"734.333 845.333 OFFCURVE",
"739 862 CURVE",
"762 995 LINE",
"723.333 1017.667 OFFCURVE",
"679 1031 OFFCURVE",
"623 1031 CURVE SMOOTH",
"485.667 1031 OFFCURVE",
"384.333 947.333 OFFCURVE",
"315 806 CURVE",
"303 964 LINE",
"297.667 1000 OFFCURVE",
"286.667 1013 OFFCURVE",
"248 1013 CURVE SMOOTH",
"146 1013 LINE",
"146 0 LINE"
);
}
);
userData = {
assembly = "NPUSHB[ ]\011/* 16 values pushed */
0 0 0 22 0 22 19 17 16 14 10 8 3 1 6 7 
CALL[ ]\011/* CallFunction */
MPPEM[ ]\011/* MeasurePixelPerEm */
PUSHB[ ]\011/* 1 value pushed */
26 
LT[ ]\011/* LessThan */
IF[ ]\011/* If */
NPUSHB[ ]\011/* 33 values pushed */
12 1 2 0 21 6 2 4 2 2 30 3 1 2 2 0 1 0 36 1 1 0 0 14 31 5 1 4 4 12 4 32 4 
ELSE[ ]\011/* Else */
MPPEM[ ]\011/* MeasurePixelPerEm */
PUSHB[ ]\011/* 1 value pushed */
95 
LT[ ]\011/* LessThan */
IF[ ]\011/* If */
NPUSHB[ ]\011/* 44 values pushed */
12 1 3 0 21 6 2 4 2 2 30 0 2 3 4 3 2 4 50 0 0 0 14 31 0 3 3 1 1 0 36 0 1 1 20 31 5 1 4 4 12 4 32 6 
ELSE[ ]\011/* Else */
MPPEM[ ]\011/* MeasurePixelPerEm */
PUSHB[ ]\011/* 1 value pushed */
108 
LT[ ]\011/* LessThan */
IF[ ]\011/* If */
NPUSHB[ ]\011/* 44 values pushed */
12 1 3 0 21 6 2 4 2 2 30 0 2 3 4 3 2 4 50 0 1 0 3 2 1 3 1 0 38 0 0 0 4 0 0 36 5 1 4 4 15 4 32 5 
ELSE[ ]\011/* Else */
NPUSHB[ ]\011/* 53 values pushed */
12 1 3 0 21 6 2 4 2 2 30 0 2 3 4 3 2 4 50 0 0 3 4 0 1 0 35 0 1 0 3 2 1 3 1 0 38 0 0 0 4 0 0 36 5 1 4 0 4 0 0 33 6 
EIF[ ]\011/* EndIf */
EIF[ ]\011/* EndIf */
EIF[ ]\011/* EndIf */
PUSHB[ ]\011/* 1 value pushed */
56 
CALL[ ]\011/* CallFunction */";
};
width = 806;
}
);
note = r;
unicode = 0072;
},
{
glyphname = s;
layers = (
{
layerId = "35A30917-2BE5-44A3-8659-B24E5BB0D762";
paths = (
{
closed = 1;
nodes = (
"766 911 LINE",
"688.667 984.333 OFFCURVE",
"582.333 1029 OFFCURVE",
"449 1029 CURVE SMOOTH",
"334.333 1029 OFFCURVE",
"244.333 994.5 OFFCURVE",
"183 940.5 CURVE SMOOTH",
"121.667 886.5 OFFCURVE",
"89 812.333 OFFCURVE",
"89 735 CURVE SMOOTH",
"89 567.309 OFFCURVE",
"208.481 506.552 OFFCURVE",
"352.5 460 CURVE SMOOTH",
"407.143 442.337 OFFCURVE",
"491.522 417.887 OFFCURVE",
"534 395.5 CURVE SMOOTH",
"583.333 369.5 OFFCURVE",
"616 335 OFFCURVE",
"616 279 CURVE SMOOTH",
"616 181.192 OFFCURVE",
"538.806 112 OFFCURVE",
"409 112 CURVE SMOOTH",
"327.667 112 OFFCURVE",
"276.5 134.333 OFFCURVE",
"238.5 157 CURVE SMOOTH",
"207.525 175.476 OFFCURVE",
"173.414 202 OFFCURVE",
"152 202 CURVE SMOOTH",
"128 202 OFFCURVE",
"114.667 192.333 OFFCURVE",
"104 175 CURVE SMOOTH",
"62 107 LINE",
"142 35 OFFCURVE",
"258.667 -16 OFFCURVE",
"400 -16 CURVE SMOOTH",
"524 -16 OFFCURVE",
"618.667 19.5 OFFCURVE",
"684 77.5 CURVE SMOOTH",
"749.333 135.5 OFFCURVE",
"783 216.667 OFFCURVE",
"783 310 CURVE SMOOTH",
"783 470.122 OFFCURVE",
"661.953 527.349 OFFCURVE",
"520.5 574.5 CURVE SMOOTH",
"395.783 616.072 OFFCURVE",
"258 643.939 OFFCURVE",
"258 749 CURVE SMOOTH",
"258 836.068 OFFCURVE",
"340.315 896 OFFCURVE",
"453 896 CURVE SMOOTH",
"522.333 896 OFFCURVE",
"571.833 877.5 OFFCURVE",
"608.5 859.5 CURVE SMOOTH",
"637.305 845.36 OFFCURVE",
"671.557 824 OFFCURVE",
"689 824 CURVE SMOOTH",
"705.667 824 OFFCURVE",
"718 831.333 OFFCURVE",
"726 846 CURVE"
);
}
);
userData = {
assembly = "NPUSHB[ ]\011/* 14 values pushed */
58 56 39 37 34 32 27 25 8 6 3 1 6 7 
CALL[ ]\011/* CallFunction */
MPPEM[ ]\011/* MeasurePixelPerEm */
PUSHB[ ]\011/* 1 value pushed */
95 
LT[ ]\011/* LessThan */
IF[ ]\011/* If */
NPUSHB[ ]\011/* 51 values pushed */
60 1 1 5 29 1 2 4 2 30 0 0 1 3 1 0 3 50 0 3 4 1 3 4 48 0 1 1 5 1 0 36 0 5 5 20 31 0 4 4 2 1 0 36 0 2 2 18 2 32 7 
ELSE[ ]\011/* Else */
MPPEM[ ]\011/* MeasurePixelPerEm */
PUSHB[ ]\011/* 1 value pushed */
108 
LT[ ]\011/* LessThan */
IF[ ]\011/* If */
NPUSHB[ ]\011/* 49 values pushed */
60 1 1 5 29 1 2 4 2 30 0 0 1 3 1 0 3 50 0 3 4 1 3 4 48 0 5 0 1 0 5 1 1 0 38 0 4 4 2 1 0 36 0 2 2 21 2 32 6 
ELSE[ ]\011/* Else */
NPUSHB[ ]\011/* 58 values pushed */
60 1 1 5 29 1 2 4 2 30 0 0 1 3 1 0 3 50 0 3 4 1 3 4 48 0 5 0 1 0 5 1 1 0 38 0 4 2 2 4 1 0 35 0 4 4 2 1 0 36 0 2 4 2 1 0 33 7 
EIF[ ]\011/* EndIf */
EIF[ ]\011/* EndIf */
PUSHB[ ]\011/* 1 value pushed */
56 
CALL[ ]\011/* CallFunction */";
};
width = 868;
}
);
note = s;
unicode = 0073;
},
{
glyphname = germandbls;
layers = (
{
layerId = "35A30917-2BE5-44A3-8659-B24E5BB0D762";
paths = (
{
closed = 1;
nodes = (
"526.333 1454 OFFCURVE",
"404.333 1408.333 OFFCURVE",
"319 1327 CURVE SMOOTH",
"233.667 1245.667 OFFCURVE",
"186 1130.667 OFFCURVE",
"186 992 CURVE SMOOTH",
"186 0 LINE",
"365 0 LINE",
"365 986 LINE SMOOTH",
"365 1098 OFFCURVE",
"394.833 1182 OFFCURVE",
"447.5 1238 CURVE SMOOTH",
"500.167 1294 OFFCURVE",
"575.333 1322 OFFCURVE",
"666 1322 CURVE SMOOTH",
"818.175 1322 OFFCURVE",
"899 1239.838 OFFCURVE",
"899 1140 CURVE SMOOTH",
"899 1108 OFFCURVE",
"891.5 1080.167 OFFCURVE",
"876.5 1056.5 CURVE SMOOTH",
"846.5 1009.167 OFFCURVE",
"800 970 OFFCURVE",
"748 934 CURVE SMOOTH",
"722 916 OFFCURVE",
"697.833 896.5 OFFCURVE",
"675.5 875.5 CURVE SMOOTH",
"630.833 833.5 OFFCURVE",
"597 782.667 OFFCURVE",
"597 712 CURVE SMOOTH",
"597 668 OFFCURVE",
"606.333 632.167 OFFCURVE",
"625 604.5 CURVE SMOOTH",
"662.333 549.167 OFFCURVE",
"720.667 512 OFFCURVE",
"786 484 CURVE SMOOTH",
"818.667 470 OFFCURVE",
"849 454.5 OFFCURVE",
"877 437.5 CURVE SMOOTH",
"933 403.5 OFFCURVE",
"975 360.667 OFFCURVE",
"975 286 CURVE SMOOTH",
"975 184.941 OFFCURVE",
"899.962 112 OFFCURVE",
"786 112 CURVE SMOOTH",
"715.333 112 OFFCURVE",
"667.167 134.333 OFFCURVE",
"630.5 157 CURVE SMOOTH",
"600.287 175.677 OFFCURVE",
"566.613 202 OFFCURVE",
"545 202 CURVE SMOOTH",
"522.333 202 OFFCURVE",
"507.667 192.333 OFFCURVE",
"497 175 CURVE SMOOTH",
"456 107 LINE",
"536 35 OFFCURVE",
"641.667 -16 OFFCURVE",
"771 -16 CURVE SMOOTH",
"876.333 -16 OFFCURVE",
"968.333 14.833 OFFCURVE",
"1035 71.5 CURVE SMOOTH",
"1101.667 128.167 OFFCURVE",
"1142 210 OFFCURVE",
"1142 314 CURVE SMOOTH",
"1142 366 OFFCURVE",
"1133.167 409 OFFCURVE",
"1115.5 443 CURVE SMOOTH",
"1080.167 511 OFFCURVE",
"1024.5 556.167 OFFCURVE",
"962.5 587.5 CURVE SMOOTH",
"895.851 621.183 OFFCURVE",
"783 682.269 OFFCURVE",
"783 747 CURVE SMOOTH",
"783 801.259 OFFCURVE",
"874.239 867.493 OFFCURVE",
"927.5 903 CURVE SMOOTH",
"952.5 919.667 OFFCURVE",
"975.667 939 OFFCURVE",
"997 961 CURVE SMOOTH",
"1039.667 1005 OFFCURVE",
"1072 1060 OFFCURVE",
"1072 1140 CURVE SMOOTH",
"1072 1208 OFFCURVE",
"1041.333 1285.5 OFFCURVE",
"976 1347.5 CURVE SMOOTH",
"910.667 1409.5 OFFCURVE",
"810.333 1454 OFFCURVE",
"673 1454 CURVE SMOOTH"
);
}
);
userData = {
assembly = "NPUSHB[ ]\011/* 18 values pushed */
1 0 67 66 61 59 37 35 32 30 25 23 0 72 1 72 7 7 
CALL[ ]\011/* CallFunction */
MPPEM[ ]\011/* MeasurePixelPerEm */
PUSHB[ ]\011/* 1 value pushed */
30 
LT[ ]\011/* LessThan */
IF[ ]\011/* If */
NPUSHB[ ]\011/* 42 values pushed */
27 1 1 3 1 30 0 2 4 3 4 2 3 50 0 4 4 0 1 0 36 6 1 0 0 17 31 0 3 3 1 1 0 36 5 1 1 1 18 1 32 6 
ELSE[ ]\011/* Else */
MPPEM[ ]\011/* MeasurePixelPerEm */
PUSHB[ ]\011/* 1 value pushed */
95 
LT[ ]\011/* LessThan */
IF[ ]\011/* If */
NPUSHB[ ]\011/* 46 values pushed */
27 1 5 3 1 30 0 2 4 3 4 2 3 50 0 4 4 0 1 0 36 6 1 0 0 17 31 0 5 5 12 31 0 3 3 1 1 0 36 0 1 1 18 1 32 7 
ELSE[ ]\011/* Else */
MPPEM[ ]\011/* MeasurePixelPerEm */
PUSHB[ ]\011/* 1 value pushed */
108 
LT[ ]\011/* LessThan */
IF[ ]\011/* If */
NPUSHB[ ]\011/* 44 values pushed */
27 1 5 3 1 30 0 2 4 3 4 2 3 50 6 1 0 0 4 2 0 4 1 0 38 0 5 5 15 31 0 3 3 1 1 0 36 0 1 1 21 1 32 6 
ELSE[ ]\011/* Else */
NPUSHB[ ]\011/* 56 values pushed */
27 1 5 3 1 30 0 2 4 3 4 2 3 50 0 5 3 1 3 5 1 50 6 1 0 0 4 2 0 4 1 0 38 0 3 5 1 3 1 0 35 0 3 3 1 1 0 36 0 1 3 1 1 0 33 7 
EIF[ ]\011/* EndIf */
EIF[ ]\011/* EndIf */
EIF[ ]\011/* EndIf */
PUSHB[ ]\011/* 1 value pushed */
56 
CALL[ ]\011/* CallFunction */";
};
width = 1218;
}
);
note = germandbls;
unicode = 00DF;
},
{
glyphname = t;
layers = (
{
layerId = "35A30917-2BE5-44A3-8659-B24E5BB0D762";
paths = (
{
closed = 1;
nodes = (
"545 -16 OFFCURVE",
"636.667 18.667 OFFCURVE",
"698 76 CURVE",
"646 161 LINE SMOOTH",
"638.667 172.333 OFFCURVE",
"630.333 178 OFFCURVE",
"621 178 CURVE SMOOTH",
"601.686 178 OFFCURVE",
"535.341 130 OFFCURVE",
"493 130 CURVE SMOOTH",
"427.667 130 OFFCURVE",
"382 170.667 OFFCURVE",
"382 256 CURVE SMOOTH",
"382 864 LINE",
"672 864 LINE",
"672 993 LINE",
"382 993 LINE",
"382 1342 LINE",
"292 1342 LINE SMOOTH",
"269.333 1342 OFFCURVE",
"253.667 1328 OFFCURVE",
"251 1308 CURVE SMOOTH",
"210 995 LINE",
"44 974 LINE",
"44 903 LINE SMOOTH",
"44 876.333 OFFCURVE",
"60.667 864 OFFCURVE",
"82 864 CURVE SMOOTH",
"204 864 LINE",
"204 244 LINE SMOOTH",
"204 76 OFFCURVE",
"293 -16 OFFCURVE",
"453 -16 CURVE SMOOTH"
);
}
);
userData = {
assembly = "NPUSHB[ ]\011/* 20 values pushed */
1 0 29 27 24 22 19 18 17 16 15 13 6 4 0 33 1 33 8 7 
CALL[ ]\011/* CallFunction */
MPPEM[ ]\011/* MeasurePixelPerEm */
PUSHB[ ]\011/* 1 value pushed */
50 
LT[ ]\011/* LessThan */
IF[ ]\011/* If */
NPUSHB[ ]\011/* 51 values pushed */
9 1 1 3 31 1 0 5 2 30 0 2 3 2 52 0 6 1 5 1 6 5 50 4 1 1 1 3 0 0 36 0 3 3 14 31 0 5 5 0 1 2 36 7 1 0 0 18 0 32 7 
ELSE[ ]\011/* Else */
MPPEM[ ]\011/* MeasurePixelPerEm */
PUSHB[ ]\011/* 1 value pushed */
95 
LT[ ]\011/* LessThan */
IF[ ]\011/* If */
NPUSHB[ ]\011/* 49 values pushed */
9 1 1 3 31 1 0 5 2 30 0 2 3 2 52 0 6 1 5 1 6 5 50 0 3 4 1 1 6 3 1 1 0 38 0 5 5 0 1 2 36 7 1 0 0 18 0 32 6 
ELSE[ ]\011/* Else */
MPPEM[ ]\011/* MeasurePixelPerEm */
PUSHB[ ]\011/* 1 value pushed */
108 
LT[ ]\011/* LessThan */
IF[ ]\011/* If */
NPUSHB[ ]\011/* 49 values pushed */
9 1 1 3 31 1 0 5 2 30 0 2 3 2 52 0 6 1 5 1 6 5 50 0 3 4 1 1 6 3 1 1 0 38 0 5 5 0 1 2 36 7 1 0 0 21 0 32 6 
ELSE[ ]\011/* Else */
MPPEM[ ]\011/* MeasurePixelPerEm */
PUSHB[ ]\011/* 1 value pushed */
232 
LT[ ]\011/* LessThan */
IF[ ]\011/* If */
NPUSHB[ ]\011/* 58 values pushed */
9 1 1 3 31 1 0 5 2 30 0 2 3 2 52 0 6 1 5 1 6 5 50 0 3 4 1 1 6 3 1 1 0 38 0 5 0 0 5 1 0 35 0 5 5 0 1 2 36 7 1 0 5 0 1 2 33 7 
ELSE[ ]\011/* Else */
NPUSHB[ ]\011/* 64 values pushed */
9 1 4 3 31 1 0 5 2 30 0 2 3 2 52 0 1 4 6 4 1 6 50 0 6 5 4 6 5 48 0 3 0 4 1 3 4 0 0 38 0 5 0 0 5 1 0 35 0 5 5 0 1 2 36 7 1 0 5 0 1 2 33 8 
EIF[ ]\011/* EndIf */
EIF[ ]\011/* EndIf */
EIF[ ]\011/* EndIf */
EIF[ ]\011/* EndIf */
PUSHB[ ]\011/* 1 value pushed */
56 
CALL[ ]\011/* CallFunction */";
};
width = 746;
}
);
note = t;
unicode = 0074;
},
{
glyphname = u;
layers = (
{
layerId = "35A30917-2BE5-44A3-8659-B24E5BB0D762";
paths = (
{
closed = 1;
nodes = (
"122 1013 LINE",
"122 367 LINE SMOOTH",
"122 252.333 OFFCURVE",
"150.667 155.667 OFFCURVE",
"208 89 CURVE SMOOTH",
"265.333 22.333 OFFCURVE",
"350.333 -16 OFFCURVE",
"461 -16 CURVE SMOOTH",
"602.333 -16 OFFCURVE",
"709 48.667 OFFCURVE",
"797 146 CURVE",
"811 37 LINE",
"817.667 12.333 OFFCURVE",
"833.667 0 OFFCURVE",
"859 0 CURVE SMOOTH",
"965 0 LINE",
"965 1013 LINE",
"787 1013 LINE",
"787 266 LINE",
"709.667 178 OFFCURVE",
"617 126 OFFCURVE",
"513 126 CURVE SMOOTH",
"370.333 126 OFFCURVE",
"300 213.667 OFFCURVE",
"300 367 CURVE SMOOTH",
"300 1013 LINE"
);
}
);
userData = {
assembly = "NPUSHB[ ]\011/* 16 values pushed */
0 0 0 23 0 23 18 16 12 10 9 8 5 3 6 7 
CALL[ ]\011/* CallFunction */
MPPEM[ ]\011/* MeasurePixelPerEm */
PUSHB[ ]\011/* 1 value pushed */
30 
LT[ ]\011/* LessThan */
IF[ ]\011/* If */
NPUSHB[ ]\011/* 29 values pushed */
14 7 2 0 1 1 30 5 4 2 1 1 14 31 0 0 0 2 1 0 36 3 1 2 2 12 2 32 4 
ELSE[ ]\011/* Else */
MPPEM[ ]\011/* MeasurePixelPerEm */
PUSHB[ ]\011/* 1 value pushed */
95 
LT[ ]\011/* LessThan */
IF[ ]\011/* If */
NPUSHB[ ]\011/* 33 values pushed */
14 7 2 0 1 1 30 5 4 2 1 1 14 31 0 2 2 12 31 0 0 0 3 1 0 36 0 3 3 18 3 32 5 
ELSE[ ]\011/* Else */
MPPEM[ ]\011/* MeasurePixelPerEm */
PUSHB[ ]\011/* 1 value pushed */
108 
LT[ ]\011/* LessThan */
IF[ ]\011/* If */
NPUSHB[ ]\011/* 35 values pushed */
14 7 2 0 1 1 30 5 4 2 1 1 2 1 0 36 0 2 2 15 31 0 0 0 3 1 0 36 0 3 3 21 3 32 5 
ELSE[ ]\011/* Else */
MPPEM[ ]\011/* MeasurePixelPerEm */
PUSHB[ ]\011/* 1 value pushed */
232 
LT[ ]\011/* LessThan */
IF[ ]\011/* If */
NPUSHB[ ]\011/* 42 values pushed */
14 7 2 0 1 1 30 0 0 2 3 0 1 0 35 5 4 2 1 0 2 3 1 2 1 0 38 0 0 0 3 1 0 36 0 3 0 3 1 0 33 5 
ELSE[ ]\011/* Else */
NPUSHB[ ]\011/* 49 values pushed */
14 7 2 0 4 1 30 5 1 4 1 0 1 4 0 50 0 0 2 3 0 1 0 35 0 1 0 2 3 1 2 1 0 38 0 0 0 3 1 0 36 0 3 0 3 1 0 33 6 
EIF[ ]\011/* EndIf */
EIF[ ]\011/* EndIf */
EIF[ ]\011/* EndIf */
EIF[ ]\011/* EndIf */
PUSHB[ ]\011/* 1 value pushed */
56 
CALL[ ]\011/* CallFunction */";
};
width = 1112;
}
);
note = u;
unicode = 0075;
},
{
glyphname = v;
layers = (
{
layerId = "35A30917-2BE5-44A3-8659-B24E5BB0D762";
paths = (
{
closed = 1;
nodes = (
"431 0 LINE",
"592 0 LINE",
"1005 1013 LINE",
"866 1013 LINE SMOOTH",
"839.333 1013 OFFCURVE",
"821 997.333 OFFCURVE",
"813 976 CURVE SMOOTH",
"553 324 LINE SMOOTH",
"534.333 276 OFFCURVE",
"523.667 227.667 OFFCURVE",
"513 181 CURVE",
"503.667 227.667 OFFCURVE",
"494.667 276 OFFCURVE",
"476 324 CURVE SMOOTH",
"219 976 LINE SMOOTH",
"211 996 OFFCURVE",
"192 1013 OFFCURVE",
"164 1013 CURVE SMOOTH",
"18 1013 LINE"
);
}
);
userData = {
assembly = "NPUSHB[ ]\011/* 8 values pushed */
18 17 16 14 2 0 3 7 
CALL[ ]\011/* CallFunction */
MPPEM[ ]\011/* MeasurePixelPerEm */
PUSHB[ ]\011/* 1 value pushed */
95 
LT[ ]\011/* LessThan */
IF[ ]\011/* If */
NPUSHB[ ]\011/* 19 values pushed */
8 1 2 0 1 30 1 1 0 0 14 31 0 2 2 12 2 32 3 
ELSE[ ]\011/* Else */
MPPEM[ ]\011/* MeasurePixelPerEm */
PUSHB[ ]\011/* 1 value pushed */
108 
LT[ ]\011/* LessThan */
IF[ ]\011/* If */
NPUSHB[ ]\011/* 19 values pushed */
8 1 2 0 1 30 1 1 0 2 0 52 0 2 2 15 2 32 3 
ELSE[ ]\011/* Else */
MPPEM[ ]\011/* MeasurePixelPerEm */
PUSHB[ ]\011/* 1 value pushed */
232 
LT[ ]\011/* LessThan */
IF[ ]\011/* If */
NPUSHB[ ]\011/* 17 values pushed */
8 1 2 0 1 30 1 1 0 2 0 52 0 2 2 43 3 
ELSE[ ]\011/* Else */
NPUSHB[ ]\011/* 21 values pushed */
8 1 2 1 1 30 0 0 1 0 52 0 1 2 1 52 0 2 2 43 4 
EIF[ ]\011/* EndIf */
EIF[ ]\011/* EndIf */
EIF[ ]\011/* EndIf */
PUSHB[ ]\011/* 1 value pushed */
56 
CALL[ ]\011/* CallFunction */";
};
width = 1024;
}
);
note = v;
unicode = 0076;
},
{
glyphname = w;
layers = (
{
layerId = "35A30917-2BE5-44A3-8659-B24E5BB0D762";
paths = (
{
closed = 1;
nodes = (
"342 0 LINE",
"476 0 LINE SMOOTH",
"496 0 OFFCURVE",
"509.667 11.333 OFFCURVE",
"517 34 CURVE SMOOTH",
"744 720 LINE SMOOTH",
"749.333 735.333 OFFCURVE",
"753.667 751 OFFCURVE",
"757 767 CURVE SMOOTH",
"760.333 783 OFFCURVE",
"763.667 798.667 OFFCURVE",
"767 814 CURVE",
"770.333 798.667 OFFCURVE",
"773.667 783.167 OFFCURVE",
"777 767.5 CURVE SMOOTH",
"780.333 751.833 OFFCURVE",
"784.667 736.333 OFFCURVE",
"790 721 CURVE SMOOTH",
"1014 34 LINE SMOOTH",
"1020.667 11.333 OFFCURVE",
"1032.667 0 OFFCURVE",
"1050 0 CURVE SMOOTH",
"1191 0 LINE",
"1519 1013 LINE",
"1385 1013 LINE SMOOTH",
"1359.667 1013 OFFCURVE",
"1339.667 997.333 OFFCURVE",
"1333 976 CURVE SMOOTH",
"1135 324 LINE SMOOTH",
"1123 282.667 OFFCURVE",
"1111.667 232 OFFCURVE",
"1105 188 CURVE",
"1094.333 232 OFFCURVE",
"1083.667 277.333 OFFCURVE",
"1069 324 CURVE SMOOTH",
"860 980 LINE SMOOTH",
"853.333 1000 OFFCURVE",
"835.667 1015 OFFCURVE",
"809 1015 CURVE SMOOTH",
"732 1015 LINE SMOOTH",
"706.667 1015 OFFCURVE",
"689.667 1000 OFFCURVE",
"683 980 CURVE SMOOTH",
"469 324 LINE SMOOTH",
"454.333 276 OFFCURVE",
"440.667 232.333 OFFCURVE",
"430 187 CURVE",
"423.333 232.333 OFFCURVE",
"413.667 276 OFFCURVE",
"403 324 CURVE",
"209 976 LINE SMOOTH",
"202.333 996 OFFCURVE",
"183.333 1013 OFFCURVE",
"154 1013 CURVE SMOOTH",
"14 1013 LINE"
);
}
);
userData = {
assembly = "NPUSHB[ ]\011/* 12 values pushed */
46 44 34 32 31 29 17 14 2 0 5 7 
CALL[ ]\011/* CallFunction */
MPPEM[ ]\011/* MeasurePixelPerEm */
PUSHB[ ]\011/* 1 value pushed */
95 
LT[ ]\011/* LessThan */
IF[ ]\011/* If */
NPUSHB[ ]\011/* 23 values pushed */
39 23 8 3 3 0 1 30 2 1 2 0 0 14 31 4 1 3 3 12 3 32 3 
ELSE[ ]\011/* Else */
MPPEM[ ]\011/* MeasurePixelPerEm */
PUSHB[ ]\011/* 1 value pushed */
108 
LT[ ]\011/* LessThan */
IF[ ]\011/* If */
NPUSHB[ ]\011/* 23 values pushed */
39 23 8 3 3 0 1 30 2 1 2 0 3 0 52 4 1 3 3 15 3 32 3 
ELSE[ ]\011/* Else */
MPPEM[ ]\011/* MeasurePixelPerEm */
PUSHB[ ]\011/* 1 value pushed */
199 
LT[ ]\011/* LessThan */
IF[ ]\011/* If */
NPUSHB[ ]\011/* 21 values pushed */
39 23 8 3 3 0 1 30 2 1 2 0 3 0 52 4 1 3 3 43 3 
ELSE[ ]\011/* Else */
MPPEM[ ]\011/* MeasurePixelPerEm */
PUSHB[ ]\011/* 1 value pushed */
232 
LT[ ]\011/* LessThan */
IF[ ]\011/* If */
NPUSHB[ ]\011/* 25 values pushed */
39 23 8 3 3 0 1 30 0 1 0 1 52 2 1 0 3 0 52 4 1 3 3 43 4 
ELSE[ ]\011/* Else */
NPUSHB[ ]\011/* 33 values pushed */
39 23 8 3 4 2 1 30 0 1 0 1 52 0 0 2 0 52 0 2 4 2 52 0 4 3 4 52 0 3 3 43 6 
EIF[ ]\011/* EndIf */
EIF[ ]\011/* EndIf */
EIF[ ]\011/* EndIf */
EIF[ ]\011/* EndIf */
PUSHB[ ]\011/* 1 value pushed */
56 
CALL[ ]\011/* CallFunction */";
};
width = 1532;
}
);
note = w;
unicode = 0077;
},
{
glyphname = x;
layers = (
{
layerId = "35A30917-2BE5-44A3-8659-B24E5BB0D762";
paths = (
{
closed = 1;
nodes = (
"28 0 LINE",
"187 0 LINE SMOOTH",
"213.667 0 OFFCURVE",
"226.667 18.333 OFFCURVE",
"240 37 CURVE SMOOTH",
"476 382 LINE",
"485.333 397.333 OFFCURVE",
"492.333 414.667 OFFCURVE",
"497 434 CURVE",
"752 37 LINE",
"762.667 18.333 OFFCURVE",
"777.667 0 OFFCURVE",
"807 0 CURVE SMOOTH",
"978 0 LINE",
"623 529 LINE",
"964 1013 LINE",
"800 1013 LINE SMOOTH",
"780 1013 OFFCURVE",
"768.333 1000.667 OFFCURVE",
"755 982 CURVE SMOOTH",
"537 662 LINE",
"525.667 643.333 OFFCURVE",
"517 624.667 OFFCURVE",
"511 606 CURVE",
"263 986 LINE SMOOTH",
"252.333 1003.333 OFFCURVE",
"242.333 1013 OFFCURVE",
"213 1013 CURVE SMOOTH",
"42 1013 LINE",
"383 519 LINE"
);
}
);
userData = {
assembly = "NPUSHB[ ]\011/* 10 values pushed */
27 25 17 15 13 11 3 1 4 7 
CALL[ ]\011/* CallFunction */
MPPEM[ ]\011/* MeasurePixelPerEm */
PUSHB[ ]\011/* 1 value pushed */
95 
LT[ ]\011/* LessThan */
IF[ ]\011/* If */
NPUSHB[ ]\011/* 23 values pushed */
20 14 6 0 4 2 0 1 30 1 1 0 0 14 31 3 1 2 2 12 2 32 3 
ELSE[ ]\011/* Else */
MPPEM[ ]\011/* MeasurePixelPerEm */
PUSHB[ ]\011/* 1 value pushed */
108 
LT[ ]\011/* LessThan */
IF[ ]\011/* If */
NPUSHB[ ]\011/* 25 values pushed */
20 14 6 0 4 2 0 1 30 1 1 0 0 2 1 0 36 3 1 2 2 15 2 32 3 
ELSE[ ]\011/* Else */
MPPEM[ ]\011/* MeasurePixelPerEm */
PUSHB[ ]\011/* 1 value pushed */
232 
LT[ ]\011/* LessThan */
IF[ ]\011/* If */
NPUSHB[ ]\011/* 35 values pushed */
20 14 6 0 4 2 0 1 30 1 1 0 2 2 0 1 0 35 1 1 0 0 2 1 0 36 3 1 2 0 2 1 0 33 4 
ELSE[ ]\011/* Else */
NPUSHB[ ]\011/* 42 values pushed */
20 14 6 0 4 3 1 1 30 0 1 3 2 1 1 0 35 0 0 0 3 2 0 3 1 0 38 0 1 1 2 1 0 36 0 2 1 2 1 0 33 5 
EIF[ ]\011/* EndIf */
EIF[ ]\011/* EndIf */
EIF[ ]\011/* EndIf */
PUSHB[ ]\011/* 1 value pushed */
56 
CALL[ ]\011/* CallFunction */";
};
width = 1008;
}
);
note = x;
unicode = 0078;
},
{
glyphname = y;
layers = (
{
layerId = "35A30917-2BE5-44A3-8659-B24E5BB0D762";
paths = (
{
closed = 1;
nodes = (
"1008 1013 LINE",
"866 1013 LINE SMOOTH",
"843.333 1013 OFFCURVE",
"822 997.333 OFFCURVE",
"814 976 CURVE SMOOTH",
"551 339 LINE SMOOTH",
"539 308.333 OFFCURVE",
"530.333 279.667 OFFCURVE",
"521 249 CURVE",
"514.333 279.667 OFFCURVE",
"506 308.667 OFFCURVE",
"494 338 CURVE SMOOTH",
"223 976 LINE SMOOTH",
"215 994.667 OFFCURVE",
"198.667 1013 OFFCURVE",
"168 1013 CURVE SMOOTH",
"14 1013 LINE",
"432 59 LINE",
"247 -343 LINE",
"379 -343 LINE SMOOTH",
"416.333 -343 OFFCURVE",
"431 -325.667 OFFCURVE",
"443 -299 CURVE SMOOTH"
);
}
);
userData = {
assembly = "NPUSHB[ ]\011/* 8 values pushed */
22 20 8 6 4 2 3 7 
CALL[ ]\011/* CallFunction */
MPPEM[ ]\011/* MeasurePixelPerEm */
PUSHB[ ]\011/* 1 value pushed */
73 
LT[ ]\011/* LessThan */
IF[ ]\011/* If */
NPUSHB[ ]\011/* 20 values pushed */
14 5 2 0 1 1 30 2 1 1 1 14 31 0 0 0 16 0 32 3 
ELSE[ ]\011/* Else */
MPPEM[ ]\011/* MeasurePixelPerEm */
PUSHB[ ]\011/* 1 value pushed */
95 
LT[ ]\011/* LessThan */
IF[ ]\011/* If */
NPUSHB[ ]\011/* 20 values pushed */
14 5 2 0 1 1 30 0 0 1 0 53 2 1 1 1 14 1 32 3 
ELSE[ ]\011/* Else */
MPPEM[ ]\011/* MeasurePixelPerEm */
PUSHB[ ]\011/* 1 value pushed */
232 
LT[ ]\011/* LessThan */
IF[ ]\011/* If */
NPUSHB[ ]\011/* 18 values pushed */
14 5 2 0 1 1 30 2 1 1 0 1 52 0 0 0 43 3 
ELSE[ ]\011/* Else */
NPUSHB[ ]\011/* 22 values pushed */
14 5 2 0 2 1 30 0 1 2 1 52 0 2 0 2 52 0 0 0 43 4 
EIF[ ]\011/* EndIf */
EIF[ ]\011/* EndIf */
EIF[ ]\011/* EndIf */
PUSHB[ ]\011/* 1 value pushed */
56 
CALL[ ]\011/* CallFunction */";
};
width = 1024;
}
);
note = y;
unicode = 0079;
},
{
glyphname = z;
layers = (
{
layerId = "35A30917-2BE5-44A3-8659-B24E5BB0D762";
paths = (
{
closed = 1;
nodes = (
"853 1013 LINE",
"101 1013 LINE",
"101 873 LINE",
"646 873 LINE",
"95 138 LINE SMOOTH",
"79 116.667 OFFCURVE",
"70 91.333 OFFCURVE",
"70 74 CURVE SMOOTH",
"70 0 LINE",
"833 0 LINE",
"833 139 LINE",
"280 139 LINE",
"828 869 LINE SMOOTH",
"842.667 887.667 OFFCURVE",
"853 911.667 OFFCURVE",
"853 937 CURVE SMOOTH"
);
}
);
userData = {
assembly = "NPUSHB[ ]\011/* 10 values pushed */
15 14 13 12 7 6 5 4 4 7 
CALL[ ]\011/* CallFunction */
MPPEM[ ]\011/* MeasurePixelPerEm */
PUSHB[ ]\011/* 1 value pushed */
95 
LT[ ]\011/* LessThan */
IF[ ]\011/* If */
NPUSHB[ ]\011/* 26 values pushed */
0 2 2 3 0 0 36 0 3 3 14 31 0 0 0 1 0 0 36 0 1 1 12 1 32 4 
ELSE[ ]\011/* Else */
MPPEM[ ]\011/* MeasurePixelPerEm */
PUSHB[ ]\011/* 1 value pushed */
108 
LT[ ]\011/* LessThan */
IF[ ]\011/* If */
NPUSHB[ ]\011/* 24 values pushed */
0 3 0 2 0 3 2 0 0 38 0 0 0 1 0 0 36 0 1 1 15 1 32 3 
ELSE[ ]\011/* Else */
NPUSHB[ ]\011/* 33 values pushed */
0 3 0 2 0 3 2 0 0 38 0 0 1 1 0 0 0 35 0 0 0 1 0 0 36 0 1 0 1 0 0 33 4 
EIF[ ]\011/* EndIf */
EIF[ ]\011/* EndIf */
PUSHB[ ]\011/* 1 value pushed */
56 
CALL[ ]\011/* CallFunction */";
};
width = 924;
}
);
note = z;
unicode = 007A;
},
{
glyphname = fi;
layers = (
{
layerId = "35A30917-2BE5-44A3-8659-B24E5BB0D762";
paths = (
{
closed = 1;
nodes = (
"365 0 LINE",
"365 864 LINE",
"793 864 LINE",
"793 0 LINE",
"971 0 LINE",
"971 993 LINE",
"359 993 LINE",
"359 1044 LINE SMOOTH",
"359 1241.333 OFFCURVE",
"461 1339 OFFCURVE",
"697 1339 CURVE SMOOTH",
"707 1339 OFFCURVE",
"716 1338.833 OFFCURVE",
"724 1338.5 CURVE SMOOTH",
"732 1338.167 OFFCURVE",
"739.667 1338 OFFCURVE",
"747 1338 CURVE SMOOTH",
"772.333 1338 OFFCURVE",
"785.333 1340.667 OFFCURVE",
"788 1358 CURVE",
"794 1451 LINE",
"755.333 1464.333 OFFCURVE",
"698.667 1471 OFFCURVE",
"648 1471 CURVE SMOOTH",
"494.667 1471 OFFCURVE",
"379.333 1427.667 OFFCURVE",
"302 1353 CURVE SMOOTH",
"224.667 1278.333 OFFCURVE",
"186 1173 OFFCURVE",
"186 1049 CURVE SMOOTH",
"186 993 LINE",
"26 993 LINE",
"26 920 LINE SMOOTH",
"26 893.333 OFFCURVE",
"46 880.667 OFFCURVE",
"74 874 CURVE",
"186 861 LINE",
"186 0 LINE"
);
}
);
userData = {
assembly = "NPUSHB[ ]\011/* 20 values pushed */
0 0 0 33 0 33 32 31 30 29 28 27 24 19 14 12 7 6 8 7 
CALL[ ]\011/* CallFunction */
MPPEM[ ]\011/* MeasurePixelPerEm */
PUSHB[ ]\011/* 1 value pushed */
50 
LT[ ]\011/* LessThan */
IF[ ]\011/* If */
NPUSHB[ ]\011/* 45 values pushed */
17 16 2 2 1 1 1 4 5 2 30 0 2 2 1 1 0 36 0 1 1 13 31 0 5 5 0 0 0 36 3 1 0 0 14 31 7 6 2 4 4 12 4 32 6 
ELSE[ ]\011/* Else */
MPPEM[ ]\011/* MeasurePixelPerEm */
PUSHB[ ]\011/* 1 value pushed */
95 
LT[ ]\011/* LessThan */
IF[ ]\011/* If */
NPUSHB[ ]\011/* 43 values pushed */
17 16 2 2 1 1 1 4 5 2 30 3 1 0 0 5 4 0 5 0 0 38 0 2 2 1 1 0 36 0 1 1 13 31 7 6 2 4 4 12 4 32 5 
ELSE[ ]\011/* Else */
MPPEM[ ]\011/* MeasurePixelPerEm */
PUSHB[ ]\011/* 1 value pushed */
108 
LT[ ]\011/* LessThan */
IF[ ]\011/* If */
NPUSHB[ ]\011/* 43 values pushed */
17 16 2 2 1 1 1 4 5 2 30 3 1 0 0 5 4 0 5 0 0 38 0 2 2 1 1 0 36 0 1 1 13 31 7 6 2 4 4 15 4 32 5 
ELSE[ ]\011/* Else */
MPPEM[ ]\011/* MeasurePixelPerEm */
PUSHB[ ]\011/* 1 value pushed */
198 
LT[ ]\011/* LessThan */
IF[ ]\011/* If */
NPUSHB[ ]\011/* 43 values pushed */
17 16 2 2 1 1 1 4 5 2 30 7 6 2 4 5 4 53 3 1 0 0 5 4 0 5 0 0 38 0 2 2 1 1 0 36 0 1 1 13 2 32 5 
ELSE[ ]\011/* Else */
MPPEM[ ]\011/* MeasurePixelPerEm */
PUSHB[ ]\011/* 1 value pushed */
232 
LT[ ]\011/* LessThan */
IF[ ]\011/* If */
NPUSHB[ ]\011/* 53 values pushed */
17 16 2 2 1 1 1 4 5 2 30 7 6 2 4 5 4 53 0 1 0 2 0 1 2 1 0 38 3 1 0 5 5 0 0 0 35 3 1 0 0 5 0 0 36 0 5 0 5 0 0 33 6 
ELSE[ ]\011/* Else */
NPUSHB[ ]\011/* 65 values pushed */
17 16 2 2 1 1 1 6 5 2 30 0 0 2 3 2 0 3 50 7 1 6 5 4 5 6 4 50 0 4 4 51 0 1 0 2 0 1 2 1 0 38 0 3 5 5 3 0 0 35 0 3 3 5 0 0 36 0 5 3 5 0 0 33 8 
EIF[ ]\011/* EndIf */
EIF[ ]\011/* EndIf */
EIF[ ]\011/* EndIf */
EIF[ ]\011/* EndIf */
EIF[ ]\011/* EndIf */
PUSHB[ ]\011/* 1 value pushed */
56 
CALL[ ]\011/* CallFunction */";
};
width = 1140;
}
);
note = fi;
unicode = FB01;
},
{
glyphname = fl;
layers = (
{
layerId = "35A30917-2BE5-44A3-8659-B24E5BB0D762";
paths = (
{
closed = 1;
nodes = (
"365 0 LINE",
"365 864 LINE",
"623 864 LINE",
"623 993 LINE",
"359 993 LINE",
"359 1047 LINE SMOOTH",
"359 1225.667 OFFCURVE",
"455.667 1330 OFFCURVE",
"629 1330 CURVE SMOOTH",
"655.667 1330 OFFCURVE",
"687.167 1329 OFFCURVE",
"723.5 1327 CURVE SMOOTH",
"759.833 1325 OFFCURVE",
"796 1323.333 OFFCURVE",
"832 1322 CURVE",
"832 0 LINE",
"1010 0 LINE",
"1010 1447 LINE",
"910 1447 LINE SMOOTH",
"862 1447 OFFCURVE",
"812.5 1449.167 OFFCURVE",
"761.5 1453.5 CURVE SMOOTH",
"710.5 1457.833 OFFCURVE",
"657.333 1460 OFFCURVE",
"602 1460 CURVE SMOOTH",
"463.333 1460 OFFCURVE",
"359.333 1412.667 OFFCURVE",
"290 1338 CURVE SMOOTH",
"220.667 1263.333 OFFCURVE",
"186 1159 OFFCURVE",
"186 1047 CURVE SMOOTH",
"186 993 LINE",
"26 993 LINE",
"26 920 LINE SMOOTH",
"26 893.333 OFFCURVE",
"46 880.667 OFFCURVE",
"74 874 CURVE",
"186 861 LINE",
"186 0 LINE"
);
}
);
userData = {
assembly = "NPUSHB[ ]\011/* 22 values pushed */
0 0 0 31 0 31 30 29 28 27 24 20 19 18 17 15 14 12 7 6 9 7 
CALL[ ]\011/* CallFunction */
MPPEM[ ]\011/* MeasurePixelPerEm */
PUSHB[ ]\011/* 1 value pushed */
38 
LT[ ]\011/* LessThan */
IF[ ]\011/* If */
NPUSHB[ ]\011/* 41 values pushed */
1 1 3 6 1 30 0 4 4 1 1 0 36 2 1 1 1 13 31 0 6 6 0 0 0 36 5 1 0 0 14 31 8 7 2 3 3 12 3 32 6 
ELSE[ ]\011/* Else */
MPPEM[ ]\011/* MeasurePixelPerEm */
PUSHB[ ]\011/* 1 value pushed */
50 
LT[ ]\011/* LessThan */
IF[ ]\011/* If */
NPUSHB[ ]\011/* 45 values pushed */
1 1 3 6 1 30 0 2 2 17 31 0 4 4 1 1 0 36 0 1 1 13 31 0 6 6 0 0 0 36 5 1 0 0 14 31 8 7 2 3 3 12 3 32 7 
ELSE[ ]\011/* Else */
MPPEM[ ]\011/* MeasurePixelPerEm */
PUSHB[ ]\011/* 1 value pushed */
95 
LT[ ]\011/* LessThan */
IF[ ]\011/* If */
NPUSHB[ ]\011/* 43 values pushed */
1 1 3 6 1 30 5 1 0 0 6 3 0 6 0 0 38 0 2 2 17 31 0 4 4 1 1 0 36 0 1 1 13 31 8 7 2 3 3 12 3 32 6 
ELSE[ ]\011/* Else */
MPPEM[ ]\011/* MeasurePixelPerEm */
PUSHB[ ]\011/* 1 value pushed */
108 
LT[ ]\011/* LessThan */
IF[ ]\011/* If */
NPUSHB[ ]\011/* 45 values pushed */
1 1 3 6 1 30 5 1 0 0 6 3 0 6 0 0 38 0 4 4 1 1 0 36 0 1 1 13 31 0 2 2 3 0 0 36 8 7 2 3 3 15 3 32 6 
ELSE[ ]\011/* Else */
MPPEM[ ]\011/* MeasurePixelPerEm */
PUSHB[ ]\011/* 1 value pushed */
164 
LT[ ]\011/* LessThan */
IF[ ]\011/* If */
NPUSHB[ ]\011/* 42 values pushed */
1 1 3 6 1 30 5 1 0 0 6 3 0 6 0 0 38 0 2 8 7 2 3 2 3 0 0 37 0 4 4 1 1 0 36 0 1 1 13 4 32 5 
ELSE[ ]\011/* Else */
MPPEM[ ]\011/* MeasurePixelPerEm */
PUSHB[ ]\011/* 1 value pushed */
232 
LT[ ]\011/* LessThan */
IF[ ]\011/* If */
NPUSHB[ ]\011/* 52 values pushed */
1 1 3 6 1 30 0 2 4 3 2 1 0 35 0 1 0 4 0 1 4 1 0 38 5 1 0 0 6 3 0 6 0 0 38 0 2 2 3 0 0 36 8 7 2 3 2 3 0 0 33 6 
ELSE[ ]\011/* Else */
NPUSHB[ ]\011/* 66 values pushed */
1 1 7 6 1 30 0 0 4 5 4 0 5 50 8 1 7 6 3 6 7 3 50 0 2 4 3 2 1 0 35 0 1 0 4 0 1 4 1 0 38 0 5 0 6 7 5 6 0 0 38 0 2 2 3 0 0 36 0 3 2 3 0 0 33 8 
EIF[ ]\011/* EndIf */
EIF[ ]\011/* EndIf */
EIF[ ]\011/* EndIf */
EIF[ ]\011/* EndIf */
EIF[ ]\011/* EndIf */
EIF[ ]\011/* EndIf */
PUSHB[ ]\011/* 1 value pushed */
56 
CALL[ ]\011/* CallFunction */";
};
width = 1188;
}
);
note = fl;
unicode = FB02;
},
{
glyphname = ordfeminine;
layers = (
{
layerId = "35A30917-2BE5-44A3-8659-B24E5BB0D762";
paths = (
{
closed = 1;
nodes = (
"596 1221 LINE SMOOTH",
"596 1357.103 OFFCURVE",
"512.034 1450 OFFCURVE",
"370 1450 CURVE SMOOTH",
"272.667 1450 OFFCURVE",
"193.333 1420.333 OFFCURVE",
"124 1355 CURVE",
"146 1313 LINE SMOOTH",
"152.667 1299.667 OFFCURVE",
"166.333 1288 OFFCURVE",
"185 1288 CURVE SMOOTH",
"223.92 1288 OFFCURVE",
"289.469 1344 OFFCURVE",
"355 1344 CURVE SMOOTH",
"431 1344 OFFCURVE",
"470 1305 OFFCURVE",
"470 1221 CURVE SMOOTH",
"470 1184 LINE",
"327.333 1181.333 OFFCURVE",
"232.667 1155.833 OFFCURVE",
"174 1120.5 CURVE SMOOTH",
"115.333 1085.167 OFFCURVE",
"92 1038.333 OFFCURVE",
"92 993 CURVE SMOOTH",
"92 886.68 OFFCURVE",
"167.171 831 OFFCURVE",
"270 831 CURVE SMOOTH",
"358.25 831 OFFCURVE",
"415.554 861.609 OFFCURVE",
"480 918 CURVE",
"492 869 LINE",
"502.667 845 OFFCURVE",
"512 840 OFFCURVE",
"536 840 CURVE SMOOTH",
"596 840 LINE"
);
},
{
closed = 1;
nodes = (
"255.667 923 OFFCURVE",
"217 943 OFFCURVE",
"217 999 CURVE SMOOTH",
"217 1065.987 OFFCURVE",
"314.51 1096.557 OFFCURVE",
"470 1101 CURVE",
"470 996 LINE",
"422 949.333 OFFCURVE",
"377 923 OFFCURVE",
"309 923 CURVE SMOOTH"
);
}
);
userData = {
assembly = "NPUSHB[ ]\011/* 22 values pushed */
43 42 47 46 42 53 43 53 37 35 30 28 25 23 20 19 11 9 2 0 9 7 
CALL[ ]\011/* CallFunction */
MPPEM[ ]\011/* MeasurePixelPerEm */
PUSHB[ ]\011/* 1 value pushed */
54 
LT[ ]\011/* LessThan */
IF[ ]\011/* If */
NPUSHB[ ]\011/* 57 values pushed */
33 1 3 5 45 1 6 7 5 1 0 6 3 30 0 4 3 2 3 4 2 50 0 2 0 7 6 2 7 1 0 38 8 1 6 1 1 0 6 0 1 0 37 0 3 3 5 1 0 36 0 5 5 17 3 32 6 
ELSE[ ]\011/* Else */
MPPEM[ ]\011/* MeasurePixelPerEm */
PUSHB[ ]\011/* 1 value pushed */
95 
LT[ ]\011/* LessThan */
IF[ ]\011/* If */
NPUSHB[ ]\011/* 64 values pushed */
33 1 3 5 45 1 6 7 5 1 0 6 3 30 0 4 3 2 3 4 2 50 0 0 6 1 6 0 1 50 0 2 0 7 6 2 7 1 0 38 8 1 6 0 1 6 1 1 0 37 0 3 3 5 1 0 36 0 5 5 17 3 32 7 
ELSE[ ]\011/* Else */
NPUSHB[ ]\011/* 75 values pushed */
33 1 3 5 45 1 6 7 5 1 0 6 3 30 0 4 3 2 3 4 2 50 0 0 6 1 6 0 1 50 0 5 0 3 4 5 3 1 0 38 0 2 0 7 6 2 7 1 0 38 8 1 6 0 1 6 1 0 35 8 1 6 6 1 1 0 36 0 1 6 1 1 0 33 8 
EIF[ ]\011/* EndIf */
EIF[ ]\011/* EndIf */
PUSHB[ ]\011/* 1 value pushed */
56 
CALL[ ]\011/* CallFunction */";
};
width = 684;
}
);
note = ordfeminine;
unicode = 00AA;
},
{
glyphname = ordmasculine;
layers = (
{
layerId = "35A30917-2BE5-44A3-8659-B24E5BB0D762";
paths = (
{
closed = 1;
nodes = (
"287.333 1449 OFFCURVE",
"210.5 1419.333 OFFCURVE",
"156.5 1366 CURVE SMOOTH",
"102.5 1312.667 OFFCURVE",
"72 1234.667 OFFCURVE",
"72 1140 CURVE SMOOTH",
"72 1044 OFFCURVE",
"102.5 965.5 OFFCURVE",
"156.5 911.5 CURVE SMOOTH",
"210.5 857.5 OFFCURVE",
"287.333 828 OFFCURVE",
"382 828 CURVE SMOOTH",
"475.333 828 OFFCURVE",
"551.667 857.5 OFFCURVE",
"605 911.5 CURVE SMOOTH",
"658.333 965.5 OFFCURVE",
"689 1044 OFFCURVE",
"689 1140 CURVE SMOOTH",
"689 1234.667 OFFCURVE",
"658.333 1312.667 OFFCURVE",
"605 1366 CURVE SMOOTH",
"551.667 1419.333 OFFCURVE",
"475.333 1449 OFFCURVE",
"382 1449 CURVE SMOOTH"
);
},
{
closed = 1;
nodes = (
"266 934 OFFCURVE",
"212 1005.667 OFFCURVE",
"212 1139 CURVE SMOOTH",
"212 1272.333 OFFCURVE",
"266 1343 OFFCURVE",
"382 1343 CURVE SMOOTH",
"494 1343 OFFCURVE",
"549 1272.333 OFFCURVE",
"549 1139 CURVE SMOOTH",
"549 1005.667 OFFCURVE",
"494 934 OFFCURVE",
"382 934 CURVE SMOOTH"
);
}
);
userData = {
assembly = "NPUSHB[ ]\011/* 18 values pushed */
21 20 1 0 27 25 20 31 21 31 11 9 0 19 1 19 6 7 
CALL[ ]\011/* CallFunction */
MPPEM[ ]\011/* MeasurePixelPerEm */
PUSHB[ ]\011/* 1 value pushed */
95 
LT[ ]\011/* LessThan */
IF[ ]\011/* If */
NPUSHB[ ]\011/* 25 values pushed */
5 1 2 0 1 2 1 1 0 37 0 3 3 0 1 0 36 4 1 0 0 17 3 32 3 
ELSE[ ]\011/* Else */
NPUSHB[ ]\011/* 36 values pushed */
4 1 0 0 3 2 0 3 1 0 38 5 1 2 1 1 2 1 0 35 5 1 2 2 1 1 0 36 0 1 2 1 1 0 33 4 
EIF[ ]\011/* EndIf */
PUSHB[ ]\011/* 1 value pushed */
56 
CALL[ ]\011/* CallFunction */";
};
width = 762;
}
);
note = ordmasculine;
unicode = 00BA;
},
{
glyphname = pi;
layers = (
{
layerId = "35A30917-2BE5-44A3-8659-B24E5BB0D762";
paths = (
{
closed = 1;
nodes = (
"130 1013 LINE SMOOTH",
"88.015 1013 OFFCURVE",
"61 978.269 OFFCURVE",
"61 946 CURVE SMOOTH",
"61 882 LINE",
"250 882 LINE",
"250 246 LINE SMOOTH",
"250 158 OFFCURVE",
"215 118 OFFCURVE",
"127 118 CURVE SMOOTH",
"79.916 118 OFFCURVE",
"61.084 119.376 OFFCURVE",
"55 92 CURVE",
"48 17 LINE",
"89.333 -5.667 OFFCURVE",
"133.667 -12 OFFCURVE",
"179 -12 CURVE SMOOTH",
"351 -12 OFFCURVE",
"429 85.333 OFFCURVE",
"429 244 CURVE SMOOTH",
"429 882 LINE",
"826 882 LINE",
"826 0 LINE",
"1004 0 LINE",
"1004 882 LINE",
"1140 882 LINE SMOOTH",
"1178.667 882 OFFCURVE",
"1199 910.333 OFFCURVE",
"1199 941 CURVE SMOOTH",
"1199 1013 LINE"
);
}
);
userData = {
assembly = "NPUSHB[ ]\011/* 20 values pushed */
0 0 0 33 0 32 27 26 23 20 14 12 9 8 7 6 5 3 8 7 
CALL[ ]\011/* CallFunction */
MPPEM[ ]\011/* MeasurePixelPerEm */
PUSHB[ ]\011/* 1 value pushed */
40 
LT[ ]\011/* LessThan */
IF[ ]\011/* If */
NPUSHB[ ]\011/* 36 values pushed */
16 1 1 4 1 30 5 2 2 0 0 6 1 0 36 7 1 6 6 14 31 0 4 4 1 1 0 36 3 1 1 1 12 1 32 5 
ELSE[ ]\011/* Else */
MPPEM[ ]\011/* MeasurePixelPerEm */
PUSHB[ ]\011/* 1 value pushed */
95 
LT[ ]\011/* LessThan */
IF[ ]\011/* If */
NPUSHB[ ]\011/* 40 values pushed */
16 1 1 4 1 30 5 2 2 0 0 6 1 0 36 7 1 6 6 14 31 0 1 1 12 31 0 4 4 3 1 0 36 0 3 3 21 3 32 6 
ELSE[ ]\011/* Else */
MPPEM[ ]\011/* MeasurePixelPerEm */
PUSHB[ ]\011/* 1 value pushed */
108 
LT[ ]\011/* LessThan */
IF[ ]\011/* If */
NPUSHB[ ]\011/* 38 values pushed */
16 1 1 4 1 30 7 1 6 5 2 2 0 4 6 0 0 0 38 0 1 1 15 31 0 4 4 3 1 0 36 0 3 3 21 3 32 5 
ELSE[ ]\011/* Else */
MPPEM[ ]\011/* MeasurePixelPerEm */
PUSHB[ ]\011/* 1 value pushed */
232 
LT[ ]\011/* LessThan */
IF[ ]\011/* If */
NPUSHB[ ]\011/* 50 values pushed */
16 1 1 4 1 30 0 1 4 3 4 1 3 50 7 1 6 5 2 2 0 4 6 0 0 0 38 0 4 1 3 4 1 0 35 0 4 4 3 1 0 36 0 3 4 3 1 0 33 6 
ELSE[ ]\011/* Else */
NPUSHB[ ]\011/* 62 values pushed */
16 1 1 4 1 30 0 5 6 2 2 5 42 0 0 2 4 2 0 42 0 1 4 3 4 1 3 50 7 1 6 0 2 0 6 2 0 0 38 0 4 1 3 4 1 0 35 0 4 4 3 1 0 36 0 3 4 3 1 0 33 8 
EIF[ ]\011/* EndIf */
EIF[ ]\011/* EndIf */
EIF[ ]\011/* EndIf */
EIF[ ]\011/* EndIf */
PUSHB[ ]\011/* 1 value pushed */
56 
CALL[ ]\011/* CallFunction */";
};
width = 1236;
}
);
note = pi;
unicode = 03C0;
},
{
glyphname = zero;
layers = (
{
layerId = "35A30917-2BE5-44A3-8659-B24E5BB0D762";
paths = (
{
closed = 1;
nodes = (
"1100 966.667 OFFCURVE",
"1042.333 1149.833 OFFCURVE",
"949 1270.5 CURVE SMOOTH",
"855.667 1391.167 OFFCURVE",
"724.333 1449 OFFCURVE",
"579 1449 CURVE SMOOTH",
"432.333 1449 OFFCURVE",
"303.333 1391.167 OFFCURVE",
"210 1270.5 CURVE SMOOTH",
"116.667 1149.833 OFFCURVE",
"60 966.667 OFFCURVE",
"60 716 CURVE SMOOTH",
"60 465.333 OFFCURVE",
"116.667 283 OFFCURVE",
"210 163 CURVE SMOOTH",
"303.333 43 OFFCURVE",
"432.333 -15 OFFCURVE",
"579 -15 CURVE SMOOTH",
"724.333 -15 OFFCURVE",
"855.667 43 OFFCURVE",
"949 163 CURVE SMOOTH",
"1042.333 283 OFFCURVE",
"1100 465.333 OFFCURVE",
"1100 716 CURVE SMOOTH"
);
},
{
closed = 1;
nodes = (
"915 497.333 OFFCURVE",
"875.5 352.667 OFFCURVE",
"813.5 262 CURVE SMOOTH",
"751.5 171.333 OFFCURVE",
"667 135 OFFCURVE",
"579 135 CURVE SMOOTH",
"491 135 OFFCURVE",
"406.333 171.333 OFFCURVE",
"345 262 CURVE SMOOTH",
"283.667 352.667 OFFCURVE",
"244 497.333 OFFCURVE",
"244 716 CURVE SMOOTH",
"244 934.667 OFFCURVE",
"283.667 1080.333 OFFCURVE",
"345 1171 CURVE SMOOTH",
"406.333 1261.667 OFFCURVE",
"491 1298 OFFCURVE",
"579 1298 CURVE SMOOTH",
"667 1298 OFFCURVE",
"751.5 1261.667 OFFCURVE",
"813.5 1171 CURVE SMOOTH",
"875.5 1080.333 OFFCURVE",
"915 934.667 OFFCURVE",
"915 716 CURVE SMOOTH"
);
}
);
userData = {
assembly = "NPUSHB[ ]\011/* 10 values pushed */
36 34 26 24 16 14 6 4 4 7 
CALL[ ]\011/* CallFunction */
MPPEM[ ]\011/* MeasurePixelPerEm */
PUSHB[ ]\011/* 1 value pushed */
95 
LT[ ]\011/* LessThan */
IF[ ]\011/* If */
NPUSHB[ ]\011/* 26 values pushed */
0 2 2 1 1 0 36 0 1 1 17 31 0 3 3 0 1 0 36 0 0 0 18 0 32 4 
ELSE[ ]\011/* Else */
MPPEM[ ]\011/* MeasurePixelPerEm */
PUSHB[ ]\011/* 1 value pushed */
108 
LT[ ]\011/* LessThan */
IF[ ]\011/* If */
NPUSHB[ ]\011/* 24 values pushed */
0 1 0 2 3 1 2 1 0 38 0 3 3 0 1 0 36 0 0 0 21 0 32 3 
ELSE[ ]\011/* Else */
NPUSHB[ ]\011/* 33 values pushed */
0 1 0 2 3 1 2 1 0 38 0 3 0 0 3 1 0 35 0 3 3 0 1 0 36 0 0 3 0 1 0 33 4 
EIF[ ]\011/* EndIf */
EIF[ ]\011/* EndIf */
PUSHB[ ]\011/* 1 value pushed */
56 
CALL[ ]\011/* CallFunction */";
};
width = 1160;
}
);
note = zero;
unicode = 0030;
},
{
glyphname = one;
layers = (
{
layerId = "35A30917-2BE5-44A3-8659-B24E5BB0D762";
paths = (
{
closed = 1;
nodes = (
"287 0 LINE",
"1055 0 LINE",
"1055 136 LINE",
"773 136 LINE",
"773 1436 LINE",
"628 1436 LINE",
"202 1067 LINE",
"258 990 LINE",
"266 978 OFFCURVE",
"283 968 OFFCURVE",
"303 968 CURVE SMOOTH",
"315 968 OFFCURVE",
"328.667 972.333 OFFCURVE",
"342 983 CURVE SMOOTH",
"598 1202 LINE",
"596 1172 OFFCURVE",
"595 1142.333 OFFCURVE",
"595 1113 CURVE SMOOTH",
"595 136 LINE",
"287 136 LINE"
);
}
);
userData = {
assembly = "NPUSHB[ ]\011/* 12 values pushed */
18 17 16 15 14 13 9 7 1 0 5 7 
CALL[ ]\011/* CallFunction */
MPPEM[ ]\011/* MeasurePixelPerEm */
PUSHB[ ]\011/* 1 value pushed */
95 
LT[ ]\011/* LessThan */
IF[ ]\011/* If */
NPUSHB[ ]\011/* 35 values pushed */
12 4 2 1 2 1 30 0 1 2 0 2 1 0 50 0 2 2 11 31 3 1 0 0 4 0 2 36 0 4 4 12 4 32 5 
ELSE[ ]\011/* Else */
MPPEM[ ]\011/* MeasurePixelPerEm */
PUSHB[ ]\011/* 1 value pushed */
108 
LT[ ]\011/* LessThan */
IF[ ]\011/* If */
NPUSHB[ ]\011/* 32 values pushed */
12 4 2 1 2 1 30 0 2 1 2 52 0 1 0 1 52 3 1 0 0 4 0 2 36 0 4 4 15 4 32 5 
ELSE[ ]\011/* Else */
MPPEM[ ]\011/* MeasurePixelPerEm */
PUSHB[ ]\011/* 1 value pushed */
232 
LT[ ]\011/* LessThan */
IF[ ]\011/* If */
NPUSHB[ ]\011/* 42 values pushed */
12 4 2 1 2 1 30 0 2 1 2 52 0 1 0 1 52 3 1 0 4 4 0 0 0 35 3 1 0 0 4 0 2 36 0 4 0 4 0 2 33 6 
ELSE[ ]\011/* Else */
NPUSHB[ ]\011/* 47 values pushed */
12 4 2 1 2 1 30 0 2 1 2 52 0 1 0 1 52 0 3 0 4 0 3 42 0 0 3 4 0 0 0 35 0 0 0 4 0 2 36 0 4 0 4 0 2 33 7 
EIF[ ]\011/* EndIf */
EIF[ ]\011/* EndIf */
EIF[ ]\011/* EndIf */
PUSHB[ ]\011/* 1 value pushed */
56 
CALL[ ]\011/* CallFunction */";
};
width = 1160;
}
);
note = one;
unicode = 0031;
},
{
glyphname = two;
layers = (
{
layerId = "35A30917-2BE5-44A3-8659-B24E5BB0D762";
paths = (
{
closed = 1;
nodes = (
"478.333 1449 OFFCURVE",
"370.5 1413 OFFCURVE",
"288.5 1345 CURVE SMOOTH",
"206.5 1277 OFFCURVE",
"151.667 1175.667 OFFCURVE",
"133 1045 CURVE",
"226 1029 LINE SMOOTH",
"235.333 1027.667 OFFCURVE",
"242.333 1027 OFFCURVE",
"249 1027 CURVE SMOOTH",
"283.667 1027 OFFCURVE",
"304.333 1043.333 OFFCURVE",
"315 1082 CURVE",
"342.018 1208.983 OFFCURVE",
"451.992 1296 OFFCURVE",
"591 1296 CURVE SMOOTH",
"741.231 1296 OFFCURVE",
"849 1208.146 OFFCURVE",
"849 1045 CURVE SMOOTH",
"849 961 OFFCURVE",
"824.167 889 OFFCURVE",
"779.5 817 CURVE SMOOTH",
"734.833 745 OFFCURVE",
"671 675.333 OFFCURVE",
"595 598 CURVE SMOOTH",
"136 137 LINE SMOOTH",
"113.333 114.333 OFFCURVE",
"104 86.333 OFFCURVE",
"104 61 CURVE SMOOTH",
"104 0 LINE",
"1060 0 LINE",
"1060 108 LINE SMOOTH",
"1060 144 OFFCURVE",
"1035.667 169 OFFCURVE",
"997 169 CURVE SMOOTH",
"517 169 LINE SMOOTH",
"466.333 169 OFFCURVE",
"410.333 159.667 OFFCURVE",
"357 145 CURVE",
"734 531 LINE SMOOTH",
"814 612.333 OFFCURVE",
"887.333 688.167 OFFCURVE",
"942 771.5 CURVE SMOOTH",
"996.667 854.833 OFFCURVE",
"1031 943.333 OFFCURVE",
"1031 1050 CURVE SMOOTH",
"1031 1175.333 OFFCURVE",
"984.167 1274.833 OFFCURVE",
"907.5 1343.5 CURVE SMOOTH",
"830.833 1412.167 OFFCURVE",
"722.333 1449 OFFCURVE",
"601 1449 CURVE SMOOTH"
);
}
);
userData = {
assembly = "NPUSHB[ ]\011/* 16 values pushed */
1 0 44 42 36 34 20 19 16 13 0 51 1 51 6 7 
CALL[ ]\011/* CallFunction */
MPPEM[ ]\011/* MeasurePixelPerEm */
PUSHB[ ]\011/* 1 value pushed */
95 
LT[ ]\011/* LessThan */
IF[ ]\011/* If */
NPUSHB[ ]\011/* 45 values pushed */
47 1 4 3 11 1 2 1 2 30 0 4 3 1 3 4 1 50 0 3 3 0 1 0 36 5 1 0 0 17 31 0 1 1 2 0 0 36 0 2 2 12 2 32 6 
ELSE[ ]\011/* Else */
MPPEM[ ]\011/* MeasurePixelPerEm */
PUSHB[ ]\011/* 1 value pushed */
108 
LT[ ]\011/* LessThan */
IF[ ]\011/* If */
NPUSHB[ ]\011/* 43 values pushed */
47 1 4 3 11 1 2 1 2 30 0 4 3 1 3 4 1 50 5 1 0 0 3 4 0 3 1 0 38 0 1 1 2 0 0 36 0 2 2 15 2 32 5 
ELSE[ ]\011/* Else */
NPUSHB[ ]\011/* 52 values pushed */
47 1 4 3 11 1 2 1 2 30 0 4 3 1 3 4 1 50 5 1 0 0 3 4 0 3 1 0 38 0 1 2 2 1 1 0 35 0 1 1 2 0 0 36 0 2 1 2 0 0 33 6 
EIF[ ]\011/* EndIf */
EIF[ ]\011/* EndIf */
PUSHB[ ]\011/* 1 value pushed */
56 
CALL[ ]\011/* CallFunction */";
};
width = 1160;
}
);
note = two;
unicode = 0032;
},
{
glyphname = three;
layers = (
{
layerId = "35A30917-2BE5-44A3-8659-B24E5BB0D762";
paths = (
{
closed = 1;
nodes = (
"497.333 1449 OFFCURVE",
"389.5 1413 OFFCURVE",
"307.5 1345 CURVE SMOOTH",
"225.5 1277 OFFCURVE",
"170.667 1175.667 OFFCURVE",
"152 1045 CURVE",
"245 1029 LINE SMOOTH",
"254.333 1027.667 OFFCURVE",
"261.333 1027 OFFCURVE",
"268 1027 CURVE SMOOTH",
"301.333 1027 OFFCURVE",
"322.333 1043.333 OFFCURVE",
"333 1082 CURVE SMOOTH",
"366.157 1209.102 OFFCURVE",
"466.884 1296 OFFCURVE",
"610 1296 CURVE SMOOTH",
"759.044 1296 OFFCURVE",
"864 1212.273 OFFCURVE",
"864 1052 CURVE SMOOTH",
"864 977.333 OFFCURVE",
"840.667 915 OFFCURVE",
"786 871 CURVE SMOOTH",
"731.333 827 OFFCURVE",
"646.333 800.333 OFFCURVE",
"525 799 CURVE",
"525 670 LINE",
"674.333 670 OFFCURVE",
"766.5 641.667 OFFCURVE",
"820.5 595 CURVE SMOOTH",
"874.5 548.333 OFFCURVE",
"892 483.333 OFFCURVE",
"892 406 CURVE SMOOTH",
"892 343.333 OFFCURVE",
"866.5 276 OFFCURVE",
"816.5 224 CURVE SMOOTH",
"766.5 172 OFFCURVE",
"691 136 OFFCURVE",
"591 136 CURVE SMOOTH",
"491 136 OFFCURVE",
"426.333 169.333 OFFCURVE",
"381 212 CURVE SMOOTH",
"335.667 254.667 OFFCURVE",
"311.667 307.333 OFFCURVE",
"293 346 CURVE",
"290.333 352.667 OFFCURVE",
"287.667 358.667 OFFCURVE",
"285 364 CURVE",
"274.333 388 OFFCURVE",
"252.667 399 OFFCURVE",
"226 399 CURVE SMOOTH",
"212 399 OFFCURVE",
"198 396 OFFCURVE",
"184 390 CURVE SMOOTH",
"108 358 LINE",
"141.333 251.333 OFFCURVE",
"186.333 157.667 OFFCURVE",
"261 91 CURVE SMOOTH",
"335.667 24.333 OFFCURVE",
"441 -16 OFFCURVE",
"593 -16 CURVE SMOOTH",
"725 -16 OFFCURVE",
"843.333 24.5 OFFCURVE",
"930 98.5 CURVE SMOOTH",
"1016.667 172.5 OFFCURVE",
"1070 279 OFFCURVE",
"1070 411 CURVE SMOOTH",
"1070 585.667 OFFCURVE",
"975.667 703.667 OFFCURVE",
"789 753 CURVE",
"945.472 799.667 OFFCURVE",
"1038 905.406 OFFCURVE",
"1038 1082 CURVE SMOOTH",
"1038 1192.667 OFFCURVE",
"994.5 1285 OFFCURVE",
"920.5 1349 CURVE SMOOTH",
"846.5 1413 OFFCURVE",
"741.333 1449 OFFCURVE",
"620 1449 CURVE SMOOTH"
);
}
);
userData = {
assembly = "NPUSHB[ ]\011/* 22 values pushed */
1 0 67 65 59 57 49 48 47 46 38 36 27 25 19 17 0 74 1 74 9 7 
CALL[ ]\011/* CallFunction */
MPPEM[ ]\011/* MeasurePixelPerEm */
PUSHB[ ]\011/* 1 value pushed */
95 
LT[ ]\011/* LessThan */
IF[ ]\011/* If */
NPUSHB[ ]\011/* 67 values pushed */
70 1 7 6 10 1 4 5 23 1 3 2 3 30 0 7 6 5 6 7 5 50 0 2 4 3 4 2 3 50 0 5 0 4 2 5 4 1 0 38 0 6 6 0 1 0 36 8 1 0 0 17 31 0 3 3 1 1 0 36 0 1 1 18 1 32 8 
ELSE[ ]\011/* Else */
MPPEM[ ]\011/* MeasurePixelPerEm */
PUSHB[ ]\011/* 1 value pushed */
108 
LT[ ]\011/* LessThan */
IF[ ]\011/* If */
NPUSHB[ ]\011/* 65 values pushed */
70 1 7 6 10 1 4 5 23 1 3 2 3 30 0 7 6 5 6 7 5 50 0 2 4 3 4 2 3 50 8 1 0 0 6 7 0 6 1 0 38 0 5 0 4 2 5 4 1 0 38 0 3 3 1 1 0 36 0 1 1 21 1 32 7 
ELSE[ ]\011/* Else */
NPUSHB[ ]\011/* 74 values pushed */
70 1 7 6 10 1 4 5 23 1 3 2 3 30 0 7 6 5 6 7 5 50 0 2 4 3 4 2 3 50 8 1 0 0 6 7 0 6 1 0 38 0 5 0 4 2 5 4 1 0 38 0 3 1 1 3 1 0 35 0 3 3 1 1 0 36 0 1 3 1 1 0 33 8 
EIF[ ]\011/* EndIf */
EIF[ ]\011/* EndIf */
PUSHB[ ]\011/* 1 value pushed */
56 
CALL[ ]\011/* CallFunction */";
};
width = 1160;
}
);
note = three;
unicode = 0033;
},
{
glyphname = four;
layers = (
{
layerId = "35A30917-2BE5-44A3-8659-B24E5BB0D762";
paths = (
{
closed = 1;
nodes = (
"903 1433 LINE",
"737 1433 LINE",
"40 508 LINE",
"58 417 LINE",
"63.333 394.333 OFFCURVE",
"84.333 377 OFFCURVE",
"111 377 CURVE SMOOTH",
"746 377 LINE",
"746 0 LINE",
"903 0 LINE",
"903 377 LINE",
"1081 377 LINE SMOOTH",
"1107.667 377 OFFCURVE",
"1120 393.667 OFFCURVE",
"1120 415 CURVE SMOOTH",
"1120 517 LINE",
"903 517 LINE"
);
},
{
closed = 1;
nodes = (
"746 517 LINE",
"233 517 LINE",
"754 1226 LINE",
"747.333 1183.333 OFFCURVE",
"746 1142.667 OFFCURVE",
"746 1108 CURVE SMOOTH"
);
}
);
userData = {
assembly = "NPUSHB[ ]\011/* 14 values pushed */
22 21 16 15 11 9 8 7 6 4 1 0 6 7 
CALL[ ]\011/* CallFunction */
MPPEM[ ]\011/* MeasurePixelPerEm */
PUSHB[ ]\011/* 1 value pushed */
95 
LT[ ]\011/* LessThan */
IF[ ]\011/* If */
NPUSHB[ ]\011/* 30 values pushed */
20 1 0 4 1 30 5 1 0 3 1 1 2 0 1 1 0 38 0 4 4 11 31 0 2 2 12 2 32 4 
ELSE[ ]\011/* Else */
MPPEM[ ]\011/* MeasurePixelPerEm */
PUSHB[ ]\011/* 1 value pushed */
108 
LT[ ]\011/* LessThan */
IF[ ]\011/* If */
NPUSHB[ ]\011/* 32 values pushed */
20 1 0 4 1 30 5 1 0 3 1 1 2 0 1 1 0 38 0 4 4 2 0 0 36 0 2 2 15 2 32 4 
ELSE[ ]\011/* Else */
MPPEM[ ]\011/* MeasurePixelPerEm */
PUSHB[ ]\011/* 1 value pushed */
232 
LT[ ]\011/* LessThan */
IF[ ]\011/* If */
NPUSHB[ ]\011/* 41 values pushed */
20 1 0 4 1 30 0 4 0 2 4 0 0 35 5 1 0 3 1 1 2 0 1 1 0 38 0 4 4 2 0 0 36 0 2 4 2 0 0 33 5 
ELSE[ ]\011/* Else */
NPUSHB[ ]\011/* 49 values pushed */
20 1 0 4 1 30 0 4 0 2 4 0 0 35 0 5 0 3 1 5 3 1 0 38 0 0 0 1 2 0 1 1 0 38 0 4 4 2 0 0 36 0 2 4 2 0 0 33 6 
EIF[ ]\011/* EndIf */
EIF[ ]\011/* EndIf */
EIF[ ]\011/* EndIf */
PUSHB[ ]\011/* 1 value pushed */
56 
CALL[ ]\011/* CallFunction */";
};
width = 1160;
}
);
note = four;
unicode = 0034;
},
